# 3ds Max Wavefront OBJ Exporter v0.97b - (c)2007 guruware
# File Created: 13.05.2016 14:29:29

mtllib ArmatureCeilingLed.mtl

#
# object ArmatureCeilingLed
#

v  -65.4942 -13.6866 -8.3307
v  -65.4942 -16.3635 -8.3307
v  -65.4942 -17.6531 -4.7260
v  -65.4942 -12.3971 -4.7260
v  -65.4942 -17.6531 4.6381
v  -65.4942 -12.3971 4.6381
v  -65.4942 -16.3635 8.2428
v  -65.4942 -13.6866 8.2428
v  71.0058 -17.6531 -4.7259
v  71.0058 -16.3635 -8.3307
v  71.0058 -13.6866 -8.3307
v  71.0058 -12.3970 -4.7259
v  71.0058 -17.6531 4.6381
v  71.0058 -12.3970 4.6381
v  71.0058 -16.3635 8.2428
v  71.0058 -13.6866 8.2428
v  -60.1105 -17.6531 -4.7260
v  -60.1105 -17.6531 4.6381
v  65.4510 -17.6531 4.6381
v  65.4510 -17.6531 -4.7259
v  -59.3135 -15.3531 3.8532
v  -59.3135 -15.3531 -3.9411
v  64.6540 -15.3530 -3.9411
v  64.6540 -15.3530 3.8532
v  -59.3135 -17.6531 3.8532
v  -59.3135 -17.6531 -3.9411
v  64.6540 -17.6530 3.8532
v  64.6540 -17.6530 -3.9411
v  65.4510 -17.6530 4.6381
v  65.4510 -17.6530 -4.7259
v  -53.9044 -17.6531 -3.9411
v  -53.9044 -17.6531 3.8532
v  -53.9044 -15.3531 3.8532
v  -53.9044 -15.3531 -3.9411
v  -47.8981 -17.6531 -3.9411
v  -47.8981 -17.6531 3.8532
v  -47.8981 -15.3531 3.8532
v  -47.8981 -15.3531 -3.9411
v  -41.8919 -17.6531 -3.9411
v  -41.8919 -17.6531 3.8532
v  -41.8919 -15.3531 3.8532
v  -41.8919 -15.3531 -3.9411
v  -35.8856 -17.6531 -3.9411
v  -35.8856 -17.6531 3.8532
v  -35.8856 -15.3531 3.8532
v  -35.8856 -15.3531 -3.9411
v  -29.8794 -17.6531 -3.9411
v  -29.8794 -17.6531 3.8532
v  -29.8794 -15.3531 3.8532
v  -29.8794 -15.3531 -3.9411
v  -23.8731 -17.6531 -3.9411
v  -23.8731 -17.6531 3.8532
v  -23.8731 -15.3531 3.8532
v  -23.8731 -15.3531 -3.9411
v  -17.8669 -17.6531 -3.9411
v  -17.8669 -17.6531 3.8532
v  -17.8669 -15.3531 3.8532
v  -17.8669 -15.3531 -3.9411
v  -11.8606 -17.6531 -3.9411
v  -11.8606 -17.6531 3.8532
v  -11.8606 -15.3531 3.8532
v  -11.8606 -15.3531 -3.9411
v  -5.8543 -17.6531 -3.9411
v  -5.8543 -17.6531 3.8532
v  -5.8543 -15.3531 3.8532
v  -5.8543 -15.3531 -3.9411
v  0.1519 -17.6531 -3.9411
v  0.1519 -17.6531 3.8532
v  0.1519 -15.3531 3.8532
v  0.1519 -15.3531 -3.9411
v  6.1582 -17.6531 -3.9411
v  6.1582 -17.6531 3.8532
v  6.1582 -15.3531 3.8532
v  6.1582 -15.3531 -3.9411
v  12.1644 -17.6531 -3.9411
v  12.1644 -17.6531 3.8532
v  12.1644 -15.3531 3.8532
v  12.1644 -15.3531 -3.9411
v  18.1707 -17.6531 -3.9411
v  18.1707 -17.6531 3.8532
v  18.1707 -15.3531 3.8532
v  18.1707 -15.3531 -3.9411
v  24.1769 -17.6531 -3.9411
v  24.1769 -17.6531 3.8532
v  24.1769 -15.3531 3.8532
v  24.1769 -15.3531 -3.9411
v  30.1832 -17.6531 -3.9411
v  30.1832 -17.6531 3.8532
v  30.1832 -15.3531 3.8532
v  30.1832 -15.3531 -3.9411
v  36.1894 -17.6531 -3.9411
v  36.1894 -17.6531 3.8532
v  36.1894 -15.3531 3.8532
v  36.1894 -15.3531 -3.9411
v  42.1957 -17.6531 -3.9411
v  42.1957 -17.6531 3.8532
v  42.1957 -15.3531 3.8532
v  42.1957 -15.3531 -3.9411
v  48.2020 -17.6531 -3.9411
v  48.2020 -17.6531 3.8532
v  48.2020 -15.3531 3.8532
v  48.2020 -15.3531 -3.9411
v  54.2082 -17.6531 -3.9411
v  54.2082 -17.6531 3.8532
v  54.2082 -15.3531 3.8532
v  54.2082 -15.3531 -3.9411
v  60.2145 -17.6531 -3.9411
v  60.2145 -17.6531 3.8532
v  60.2145 -15.3531 3.8532
v  60.2145 -15.3531 -3.9411
v  65.9631 -12.5997 -0.2490
v  65.9631 -12.5997 0.1612
v  65.9631 2.4509 0.1612
v  65.9631 2.4509 -0.2490
v  -61.0038 -12.5997 -0.2490
v  -61.0038 -12.5997 0.1612
v  -61.0038 2.4509 0.1612
v  -61.0038 2.4509 -0.2490
v  -60.4096 -12.3877 3.7676
v  -60.4096 -12.3877 -3.8555
v  65.9212 -12.3877 -3.8555
v  65.9212 -12.3877 3.7676
# 122 vertices

vn -1.0000 -0.0000 -0.0000
vn 1.0000 0.0000 0.0000
vn 0.0000 -1.0000 0.0000
vn 0.0000 -0.9416 -0.3368
vn -0.0000 -0.9416 0.3368
vn -0.0000 -0.0000 1.0000
vn 0.0000 0.0000 -1.0000
vn 0.0000 0.9416 -0.3368
vn -0.0000 0.9416 0.3368
vn 0.0000 -1.0000 -0.0000
vn -0.0000 -1.0000 -0.0000
vn -0.0018 1.0000 -0.0000
vn 0.0018 1.0000 -0.0000
vn -0.0000 0.9999 -0.0107
vn -0.0000 0.9999 0.0107
vn -0.0000 1.0000 -0.0000
# 16 vertex normals

vt 0.0000 1.0000 0.0000
vt 0.0000 0.0000 0.0000
vt 0.3333 0.0000 0.0000
vt 0.3333 1.0000 0.0000
vt 0.6667 0.0000 0.0000
vt 0.6667 1.0000 0.0000
vt 1.0000 0.0000 0.0000
vt 1.0000 1.0000 0.0000
vt 0.3333 0.3333 0.0000
vt 0.6667 0.3333 0.0000
vt 0.6667 0.6667 0.0000
vt 0.3333 0.6667 0.0000
# 12 texture coords

g ArmatureCeilingLed
usemtl WhitePlastic
s 2
f 1/1/1 2/2/1 3/3/1 4/4/1 
f 4/4/1 3/3/1 5/5/1 6/6/1 
f 6/6/1 5/5/1 7/7/1 8/8/1 
s 4
f 9/5/2 10/7/2 11/8/2 12/6/2 
f 13/3/2 9/5/2 12/6/2 14/4/2 
f 15/2/2 13/3/2 14/4/2 16/1/2 
s 8
f 5/5/3 3/3/3 17/9/3 18/10/3 
f 19/11/3 20/12/3 9/4/3 13/6/3 
s off
f 2/2/4 10/7/4 9/5/4 20/12/4 17/9/4 3/3/4 
f 15/2/5 7/7/5 5/5/5 18/10/5 19/11/5 13/3/5 
f 7/7/6 15/2/6 16/1/6 8/8/6 
f 10/7/7 2/2/7 1/1/7 11/8/7 
f 11/8/8 1/1/8 4/4/8 12/6/8 
f 8/8/9 16/1/9 14/4/9 6/6/9 
usemtl FlourescentEmissive
s 8
f 21/10/10 22/9/10 23/12/10 24/11/10 
s off
f 25/10/2 26/9/2 22/9/2 21/10/2 
f 27/11/7 25/10/7 21/10/7 24/11/7 
f 28/12/1 27/11/1 24/11/1 23/12/1 
f 26/9/6 28/12/6 23/12/6 22/9/6 
usemtl GreyMatte
f 18/10/10 17/9/10 26/9/10 25/10/10 
f 29/11/10 18/10/10 25/10/10 27/11/10 
f 30/12/11 29/11/11 27/11/11 28/12/11 
f 17/9/3 30/12/3 28/12/3 26/9/3 
usemtl WhitePlastic
f 31/9/1 32/10/1 33/10/1 34/9/1 
f 32/10/2 31/9/2 34/9/2 33/10/2 
f 35/9/1 36/10/1 37/10/1 38/9/1 
f 36/10/2 35/9/2 38/9/2 37/10/2 
f 39/9/1 40/10/1 41/10/1 42/9/1 
f 40/10/2 39/9/2 42/9/2 41/10/2 
f 43/9/1 44/10/1 45/10/1 46/9/1 
f 44/10/2 43/9/2 46/9/2 45/10/2 
f 47/9/1 48/10/1 49/10/1 50/9/1 
f 48/10/2 47/9/2 50/9/2 49/10/2 
f 51/9/1 52/10/1 53/10/1 54/9/1 
f 52/10/2 51/9/2 54/9/2 53/10/2 
f 55/9/1 56/10/1 57/10/1 58/9/1 
f 56/10/2 55/9/2 58/9/2 57/10/2 
f 59/9/1 60/10/1 61/10/1 62/9/1 
f 60/10/2 59/9/2 62/9/2 61/10/2 
f 63/9/1 64/10/1 65/10/1 66/9/1 
f 64/10/2 63/9/2 66/9/2 65/10/2 
f 67/9/1 68/10/1 69/10/1 70/9/1 
f 68/10/2 67/9/2 70/9/2 69/10/2 
f 71/9/1 72/10/1 73/10/1 74/9/1 
f 72/10/2 71/9/2 74/9/2 73/10/2 
f 75/9/1 76/10/1 77/10/1 78/9/1 
f 76/10/2 75/9/2 78/9/2 77/10/2 
f 79/9/1 80/10/1 81/10/1 82/9/1 
f 80/10/2 79/9/2 82/9/2 81/10/2 
f 83/9/1 84/10/1 85/10/1 86/9/1 
f 84/10/2 83/9/2 86/9/2 85/10/2 
f 87/9/1 88/10/1 89/10/1 90/9/1 
f 88/10/2 87/9/2 90/9/2 89/10/2 
f 91/9/1 92/10/1 93/10/1 94/9/1 
f 92/10/2 91/9/2 94/9/2 93/10/2 
f 95/9/1 96/10/1 97/10/1 98/9/1 
f 96/10/2 95/9/2 98/9/2 97/10/2 
f 99/9/1 100/10/1 101/10/1 102/9/1 
f 100/10/2 99/9/2 102/9/2 101/10/2 
f 103/9/1 104/10/1 105/10/1 106/9/1 
f 104/10/2 103/9/2 106/9/2 105/10/2 
f 107/9/1 108/10/1 109/10/1 110/9/1 
f 108/10/2 107/9/2 110/9/2 109/10/2 
f 111/9/1 112/10/1 113/10/1 114/9/1 
f 112/10/2 111/9/2 114/9/2 113/10/2 
f 115/9/1 116/10/1 117/10/1 118/9/1 
f 116/10/2 115/9/2 118/9/2 117/10/2 
f 4/4/12 6/6/12 119/6/12 120/4/12 
f 14/4/13 12/6/13 121/6/13 122/4/13 
f 12/6/14 4/4/14 120/4/14 121/6/14 
f 6/6/15 14/4/15 122/4/15 119/6/15 
usemtl FlourescentEmissive
f 121/6/16 120/4/16 119/6/16 122/4/16 
# 72 polygons

