# Blender v2.77 (sub 0) OBJ File: 'Books_02.blend'
# www.blender.org
mtllib Books_02.mtl
o Cube.008_Cube.044
v 23.011684 -0.434374 -1.129801
v 23.011684 16.142447 -1.129801
v 23.011684 -0.434374 -11.835382
v 23.011684 16.142447 -11.835382
v 26.260584 -0.434374 -1.129801
v 26.260584 16.142447 -1.129801
v 26.260584 -0.434374 -11.835382
v 26.260584 16.142447 -11.835382
v 19.762785 -0.434377 0.237096
v 19.762785 16.142441 0.237096
v 19.762785 -0.434377 -10.468484
v 19.762785 16.142441 -10.468484
v 23.011684 -0.434377 0.237096
v 23.011684 16.142443 0.237096
v 23.011684 -0.434377 -10.468484
v 23.011684 16.142443 -10.468484
v 16.513885 -0.434377 -0.062821
v 16.513885 16.142441 -0.062821
v 16.513885 -0.434377 -10.768401
v 16.513885 16.142441 -10.768401
v 19.762785 -0.434377 -0.062821
v 19.762785 16.142443 -0.062821
v 19.762785 -0.434377 -10.768401
v 19.762785 16.142443 -10.768401
v 13.264984 -0.434377 0.271006
v 13.264984 16.142441 0.271006
v 13.264984 -0.434377 -10.434574
v 13.264984 16.142441 -10.434574
v 16.513885 -0.434377 0.271006
v 16.513885 16.142443 0.271006
v 16.513885 -0.434377 -10.434574
v 16.513885 16.142443 -10.434574
v 10.016084 -0.434377 0.000001
v 10.016084 16.142441 0.000001
v 10.016084 -0.434377 -10.705579
v 10.016084 16.142441 -10.705579
v 13.264984 -0.434377 0.000001
v 13.264984 16.142443 0.000001
v 13.264984 -0.434377 -10.705579
v 13.264984 16.142443 -10.705579
v 6.767183 0.000006 -0.362521
v 6.767183 16.576824 -0.362521
v 6.767183 0.000006 -11.068101
v 6.767183 16.576824 -11.068101
v 10.016084 0.000007 -0.362521
v 10.016084 16.576826 -0.362521
v 10.016084 0.000007 -11.068101
v 10.016084 16.576826 -11.068101
v 3.248901 0.000006 -0.362521
v 3.248901 16.576824 -0.362521
v 3.248901 0.000006 -11.068101
v 3.248901 16.576824 -11.068101
v 6.497801 0.000007 -0.362521
v 6.497801 16.576826 -0.362521
v 6.497801 0.000007 -11.068101
v 6.497801 16.576826 -11.068101
v 0.000000 0.000006 0.000001
v 0.000000 16.576824 0.000001
v 0.000000 0.000006 -10.705579
v 0.000000 16.576824 -10.705579
v 3.248899 0.000007 0.000001
v 3.248899 16.576826 0.000001
v 3.248899 0.000007 -10.705579
v 3.248899 16.576826 -10.705579
vn 0.0000 1.0000 0.0000
vn -1.0000 0.0000 0.0000
vn 1.0000 0.0000 0.0000
vn 0.0000 0.0000 1.0000
usemtl Book_paper
s off
f 6//1 8//1 4//1 2//1
f 14//1 16//1 12//1 10//1
f 22//1 24//1 20//1 18//1
f 30//1 32//1 28//1 26//1
f 38//1 40//1 36//1 34//1
f 46//1 48//1 44//1 42//1
f 54//1 56//1 52//1 50//1
f 62//1 64//1 60//1 58//1
usemtl Book_4
f 2//2 4//2 3//2 1//2
f 8//3 6//3 5//3 7//3
f 6//4 2//4 1//4 5//4
f 10//2 12//2 11//2 9//2
f 16//3 14//3 13//3 15//3
f 14//4 10//4 9//4 13//4
f 18//2 20//2 19//2 17//2
f 24//3 22//3 21//3 23//3
f 22//4 18//4 17//4 21//4
f 26//2 28//2 27//2 25//2
f 32//3 30//3 29//3 31//3
f 30//4 26//4 25//4 29//4
f 34//2 36//2 35//2 33//2
f 40//3 38//3 37//3 39//3
f 38//4 34//4 33//4 37//4
f 42//2 44//2 43//2 41//2
f 48//3 46//3 45//3 47//3
f 46//4 42//4 41//4 45//4
f 50//2 52//2 51//2 49//2
f 56//3 54//3 53//3 55//3
f 54//4 50//4 49//4 53//4
f 58//2 60//2 59//2 57//2
f 64//3 62//3 61//3 63//3
f 62//4 58//4 57//4 61//4
