# Blender v2.77 (sub 0) OBJ File: 'Bookshelve_middlesize.blend'
# www.blender.org
mtllib Bookshelve_middlesize.mtl
o object_1
v -20.000000 -0.000002 14.000000
v -20.000000 73.000000 14.000011
v -20.000000 73.000000 -15.999989
v -20.000000 0.000003 -16.000000
v 37.063351 73.000000 14.000011
v 37.063351 73.000000 -15.999989
v 37.063351 -0.000002 14.000000
v 37.063351 0.000003 -16.000000
v -16.000000 49.999996 14.000009
v 33.063351 49.999996 14.000009
v 33.063351 50.000004 -15.999991
v -16.000000 50.000004 -15.999991
v 33.063351 69.000000 14.000011
v 33.063351 69.000000 -15.999989
v -16.000000 69.000000 14.000011
v -16.000000 69.000000 -15.999989
v -16.000000 26.999998 14.000005
v 33.063351 26.999998 14.000005
v 33.063351 27.000002 -15.999995
v -16.000000 27.000002 -15.999995
v 33.063351 45.999996 14.000008
v 33.063351 46.000004 -15.999992
v -16.000000 45.999996 14.000008
v -16.000000 46.000004 -15.999992
v -16.000000 3.999998 14.000001
v 33.063351 3.999998 14.000001
v 33.063351 4.000002 -15.999999
v -16.000000 4.000002 -15.999999
v 33.063351 22.999998 14.000004
v 33.063351 23.000002 -15.999996
v -16.000000 22.999998 14.000004
v -16.000000 23.000002 -15.999996
v -20.000000 73.000000 14.000011
v -20.000000 73.000000 -15.999987
v 37.063351 73.000000 14.000011
v 37.063351 73.000000 -15.999987
v -16.000000 73.000000 14.000000
v 33.063351 73.000000 14.000000
v 33.063351 73.000000 -15.999998
v -16.000000 73.000000 -15.999998
v -20.000000 73.000000 13.999999
v -20.000000 142.000000 14.000011
v -20.000000 142.000000 -15.999987
v -20.000000 73.000000 -15.999998
v 37.063351 142.000000 14.000011
v 37.063351 142.000000 -15.999987
v 37.063351 73.000000 13.999999
v 37.063351 73.000000 -15.999998
v -16.000000 118.999985 14.000008
v 33.063351 118.999985 14.000008
v 33.063351 118.999985 -15.999990
v -16.000000 118.999985 -15.999990
v 33.063351 138.000000 14.000011
v 33.063351 138.000000 -15.999987
v -16.000000 138.000000 14.000011
v -16.000000 138.000000 -15.999987
v -16.000000 96.000000 14.000004
v 33.063351 96.000000 14.000004
v 33.063351 96.000000 -15.999994
v -16.000000 96.000000 -15.999994
v 33.063351 114.999985 14.000008
v 33.063351 114.999985 -15.999990
v -16.000000 114.999985 14.000008
v -16.000000 114.999985 -15.999990
v -16.000000 73.000000 14.000000
v 33.063351 73.000000 14.000000
v 33.063351 73.000000 -15.999998
v -16.000000 73.000000 -15.999998
v 33.063351 92.000000 14.000004
v 33.063351 92.000000 -15.999994
v -16.000000 92.000000 14.000004
v -16.000000 92.000000 -15.999994
vt 0.0000 0.0000
vt 0.1029 0.0000
vt 0.1029 0.6364
vt 0.0000 0.6364
vt 0.1852 0.0000
vt 0.2881 0.0000
vt 0.2881 0.6364
vt 0.1852 0.6364
vt 0.3704 0.0000
vt 0.3704 0.6364
vt 0.3704 0.0000
vt 0.4362 0.0000
vt 0.4362 0.6364
vt 0.3704 0.6364
vt 0.4753 0.0000
vt 0.4753 0.6364
vt 0.5412 0.0000
vt 0.5412 0.6364
vt 0.5802 0.0000
vt 0.5802 0.6364
vt 0.5802 0.0000
vt 0.6461 0.0000
vt 0.6461 0.6364
vt 0.5802 0.6364
vt 0.6852 0.0000
vt 0.6852 0.6364
vt 0.7510 0.0000
vt 0.7510 0.6364
vt 0.7901 0.0000
vt 0.7901 0.6364
vt 0.7901 0.0000
vt 0.8560 0.0000
vt 0.8560 0.6364
vt 0.7901 0.6364
vt 0.8951 0.0000
vt 0.8951 0.6364
vt 0.9609 0.0000
vt 0.9609 0.6364
vt 1.0000 0.0000
vt 1.0000 0.6364
vt 0.0940 0.9636
vt 0.1297 0.9636
vt 0.1372 1.0000
vt 0.1372 0.6364
vt 0.0865 0.9636
vt 0.0940 0.6727
vt 0.0508 0.9636
vt 0.0432 0.9636
vt 0.0000 1.0000
vt 0.0075 0.9636
vt 0.0508 0.6727
vt 0.0075 0.6727
vt 0.1297 0.6727
vt 0.0000 0.6364
vt 0.0865 0.6727
vt 0.0432 0.6727
vt 0.0940 0.6727
vt 0.1372 0.6364
vt 0.1297 0.6727
vt 0.1372 1.0000
vt 0.0865 0.6727
vt 0.0940 0.9636
vt 0.0508 0.6727
vt 0.0432 0.6727
vt 0.0000 0.6364
vt 0.0075 0.6727
vt 0.0508 0.9636
vt 0.0075 0.9636
vt 0.1297 0.9636
vt 0.0000 1.0000
vt 0.0865 0.9636
vt 0.0432 0.9636
vt 0.1029 0.0000
vt 0.1852 0.0000
vt 0.1852 0.6364
vt 0.1029 0.6364
vt 0.7901 0.0000
vt 0.8560 0.0000
vt 0.8560 0.6364
vt 0.7901 0.6364
vt 0.0000 0.0000
vt 0.1029 0.0000
vt 0.1029 0.6364
vt 0.0000 0.6364
vt 0.1852 0.0000
vt 0.1852 0.6364
vt 0.2881 0.0000
vt 0.2881 0.6364
vt 0.3704 0.0000
vt 0.4362 0.0000
vt 0.4362 0.6364
vt 0.3704 0.6364
vt 0.4753 0.0000
vt 0.4753 0.6364
vt 0.5412 0.0000
vt 0.5412 0.6364
vt 0.5802 0.0000
vt 0.5802 0.6364
vt 0.5802 0.0000
vt 0.6461 0.0000
vt 0.6461 0.6364
vt 0.5802 0.6364
vt 0.6852 0.0000
vt 0.6852 0.6364
vt 0.7510 0.0000
vt 0.7510 0.6364
vt 0.7901 0.0000
vt 0.7901 0.6364
vt 0.7901 0.0000
vt 0.8560 0.0000
vt 0.8560 0.6364
vt 0.7901 0.6364
vt 0.8951 0.0000
vt 0.8951 0.6364
vt 0.9609 0.0000
vt 0.9609 0.6364
vt 1.0000 0.0000
vt 1.0000 0.6364
vt 0.0940 0.9636
vt 0.1297 0.9636
vt 0.1372 1.0000
vt 0.0865 0.9636
vt 0.0940 0.6727
vt 0.0508 0.9636
vt 0.0432 0.9636
vt 0.0000 1.0000
vt 0.0075 0.9636
vt 0.0508 0.6727
vt 0.0075 0.6727
vt 0.1372 0.6364
vt 0.1297 0.6727
vt 0.0000 0.6364
vt 0.0865 0.6727
vt 0.0432 0.6727
vt 0.0940 0.6727
vt 0.1372 0.6364
vt 0.1297 0.6727
vt 0.0865 0.6727
vt 0.0940 0.9636
vt 0.0508 0.6727
vt 0.0432 0.6727
vt 0.0000 0.6364
vt 0.0075 0.6727
vt 0.0508 0.9636
vt 0.0075 0.9636
vt 0.1372 1.0000
vt 0.1297 0.9636
vt 0.0000 1.0000
vt 0.0865 0.9636
vt 0.0432 0.9636
vn -1.0000 0.0000 0.0000
vn 1.0000 -0.0000 0.0000
vn 0.0000 -1.0000 -0.0000
vn 0.0000 1.0000 0.0000
vn -0.0000 -0.0000 1.0000
vn 0.0000 0.0000 -1.0000
usemtl Wood
s 1
f 1/1/1 2/2/1 3/3/1 4/4/1
f 5/5/2 7/6/2 8/7/2 6/8/2
f 7/6/3 1/9/3 4/10/3 8/7/3
f 9/11/4 10/12/4 11/13/4 12/14/4
f 10/12/1 13/15/1 14/16/1 11/13/1
f 13/15/3 15/17/3 16/18/3 14/16/3
f 15/17/2 9/19/2 12/20/2 16/18/2
f 17/21/4 18/22/4 19/23/4 20/24/4
f 18/22/1 21/25/1 22/26/1 19/23/1
f 21/25/3 23/27/3 24/28/3 22/26/3
f 23/27/2 17/29/2 20/30/2 24/28/2
f 25/31/4 26/32/4 27/33/4 28/34/4
f 26/32/1 29/35/1 30/36/1 27/33/1
f 29/35/3 31/37/3 32/38/3 30/36/3
f 31/37/2 25/39/2 28/40/2 32/38/2
f 29/41/5 26/42/5 7/43/5
f 1/44/5 7/43/5 26/42/5
f 7/43/5 18/45/5 29/41/5
f 31/46/5 29/41/5 18/45/5
f 21/47/5 18/45/5 7/43/5
f 10/48/5 21/47/5 5/49/5
f 7/43/5 5/49/5 21/47/5
f 5/49/5 13/50/5 10/48/5
f 10/48/5 23/51/5 21/47/5
f 15/52/5 13/50/5 5/49/5
f 1/44/5 25/53/5 31/46/5
f 2/54/5 1/44/5 17/55/5
f 31/46/5 17/55/5 1/44/5
f 1/44/5 26/42/5 25/53/5
f 18/45/5 17/55/5 31/46/5
f 10/48/5 9/56/5 23/51/5
f 2/54/5 23/51/5 9/56/5
f 5/49/5 2/54/5 15/52/5
f 9/56/5 15/52/5 2/54/5
f 2/54/5 17/55/5 23/51/5
f 30/57/6 8/58/6 27/59/6
f 4/60/6 27/59/6 8/58/6
f 8/58/6 30/57/6 19/61/6
f 32/62/6 19/61/6 30/57/6
f 22/63/6 8/58/6 19/61/6
f 11/64/6 6/65/6 22/63/6
f 8/58/6 22/63/6 6/65/6
f 6/65/6 11/64/6 14/66/6
f 11/64/6 22/63/6 24/67/6
f 16/68/6 6/65/6 14/66/6
f 4/60/6 32/62/6 28/69/6
f 3/70/6 20/71/6 4/60/6
f 32/62/6 4/60/6 20/71/6
f 4/60/6 28/69/6 27/59/6
f 19/61/6 32/62/6 20/71/6
f 11/64/6 24/67/6 12/72/6
f 3/70/6 12/72/6 24/67/6
f 6/65/6 16/68/6 3/70/6
f 12/72/6 3/70/6 16/68/6
f 3/70/6 24/67/6 20/71/6
f 33/73/4 35/74/4 36/75/4 34/76/4
f 37/77/4 38/78/4 39/79/4 40/80/4
f 41/81/1 42/82/1 43/83/1 44/84/1
f 42/82/4 45/85/4 46/86/4 43/83/4
f 45/85/2 47/87/2 48/88/2 46/86/2
f 49/89/4 50/90/4 51/91/4 52/92/4
f 50/90/1 53/93/1 54/94/1 51/91/1
f 53/93/3 55/95/3 56/96/3 54/94/3
f 55/95/2 49/97/2 52/98/2 56/96/2
f 57/99/4 58/100/4 59/101/4 60/102/4
f 58/100/1 61/103/1 62/104/1 59/101/1
f 61/103/3 63/105/3 64/106/3 62/104/3
f 63/105/2 57/107/2 60/108/2 64/106/2
f 65/109/4 66/110/4 67/111/4 68/112/4
f 66/110/1 69/113/1 70/114/1 67/111/1
f 69/113/3 71/115/3 72/116/3 70/114/3
f 71/115/2 65/117/2 68/118/2 72/116/2
f 69/119/5 66/120/5 47/121/5
f 47/121/5 58/122/5 69/119/5
f 71/123/5 69/119/5 58/122/5
f 61/124/5 58/122/5 47/121/5
f 50/125/5 61/124/5 45/126/5
f 47/121/5 45/126/5 61/124/5
f 45/126/5 53/127/5 50/125/5
f 50/125/5 63/128/5 61/124/5
f 55/129/5 53/127/5 45/126/5
f 41/130/5 65/131/5 71/123/5
f 42/132/5 41/130/5 57/133/5
f 71/123/5 57/133/5 41/130/5
f 58/122/5 57/133/5 71/123/5
f 50/125/5 49/134/5 63/128/5
f 42/132/5 63/128/5 49/134/5
f 45/126/5 42/132/5 55/129/5
f 49/134/5 55/129/5 42/132/5
f 42/132/5 57/133/5 63/128/5
f 70/135/6 48/136/6 67/137/6
f 48/136/6 70/135/6 59/138/6
f 72/139/6 59/138/6 70/135/6
f 62/140/6 48/136/6 59/138/6
f 51/141/6 46/142/6 62/140/6
f 48/136/6 62/140/6 46/142/6
f 46/142/6 51/141/6 54/143/6
f 51/141/6 62/140/6 64/144/6
f 56/145/6 46/142/6 54/143/6
f 44/146/6 72/139/6 68/147/6
f 43/148/6 60/149/6 44/146/6
f 72/139/6 44/146/6 60/149/6
f 59/138/6 72/139/6 60/149/6
f 51/141/6 64/144/6 52/150/6
f 43/148/6 52/150/6 64/144/6
f 46/142/6 56/145/6 43/148/6
f 52/150/6 43/148/6 56/145/6
f 43/148/6 64/144/6 60/149/6
o Book_shelve_middle_size_Cube
v 1.000000 -1.000000 -1.000000
v 1.000000 -1.000000 1.000000
v -1.000000 -1.000000 1.000000
v -1.000000 -1.000000 -1.000000
v 1.000000 1.000000 -0.999999
v 0.999999 1.000000 1.000001
v -1.000000 1.000000 1.000000
v -1.000000 1.000000 -1.000000
vn 0.0000 -1.0000 0.0000
vn 0.0000 1.0000 0.0000
vn 1.0000 0.0000 0.0000
vn -0.0000 -0.0000 1.0000
vn -1.0000 -0.0000 -0.0000
vn 0.0000 0.0000 -1.0000
usemtl Material
s off
f 73//7 74//7 75//7 76//7
f 77//8 80//8 79//8 78//8
f 73//9 77//9 78//9 74//9
f 74//10 78//10 79//10 75//10
f 75//11 79//11 80//11 76//11
f 77//12 73//12 76//12 80//12
