# Rhino

mtllib BookshelveSmall.mtl
g BookshelveSmall__Body
o object_1
usemtl Wood
v -20 0 14
v -20 73 14
v -20 0 -16
v -20 73 -16
v -16 4 14
v -16 23 14
v -16 27 14
v -16 46 14
v -16 50 14
v -16 69 14
v -16 4 -16
v -16 23 -16
v -16 27 -16
v -16 46 -16
v -16 50 -16
v -16 69 -16
v 16 4 14
v 16 23 14
v 16 27 14
v 16 46 14
v 16 50 14
v 16 69 14
v 16 4 -16
v 16 23 -16
v 16 27 -16
v 16 46 -16
v 16 50 -16
v 16 69 -16
v 20 0 14
v 20 73 14
v 20 0 -16
v 20 73 -16
vt 0 0
vt 0 0.6363632082939148
vt 0.1028806567192078 0
vt 0.1028806567192078 0.6363632082939148
vt 0.1028806567192078 0
vt 0.1028806567192078 0.6363632082939148
vt 0.1851851791143417 0
vt 0.1851851791143417 0.6363632082939148
vt 0.1851851791143417 0
vt 0.1851851791143417 0.6363632082939148
vt 0.2880658507347107 0
vt 0.2880658507347107 0.6363632082939148
vt 0.2880658507347107 0
vt 0.2880658507347107 0.6363632082939148
vt 0.3703703582286835 0
vt 0.3703703582286835 0.6363632082939148
vt 0.3703703582286835 0
vt 0.3703703582286835 0.6363632082939148
vt 0.4362139999866486 0
vt 0.4362139999866486 0.6363632082939148
vt 0.4362139999866486 0
vt 0.4362139999866486 0.6363632082939148
vt 0.4753086566925049 0
vt 0.4753086566925049 0.6363632082939148
vt 0.4753086566925049 0
vt 0.4753086566925049 0.6363632082939148
vt 0.5411522388458252 0
vt 0.5411522388458252 0.6363632082939148
vt 0.5411522388458252 0
vt 0.5411522388458252 0.6363632082939148
vt 0.5802469253540039 0
vt 0.5802469253540039 0.6363632082939148
vt 0.5802469253540039 0
vt 0.5802469253540039 0.6363632082939148
vt 0.6460905075073242 0
vt 0.6460905075073242 0.6363632082939148
vt 0.6460905075073242 0
vt 0.6460905075073242 0.6363632082939148
vt 0.6851851940155029 0
vt 0.6851851940155029 0.6363632082939148
vt 0.6851851940155029 0
vt 0.6851851940155029 0.6363632082939148
vt 0.751028835773468 0
vt 0.751028835773468 0.6363632082939148
vt 0.751028835773468 0
vt 0.751028835773468 0.6363632082939148
vt 0.790123462677002 0
vt 0.790123462677002 0.6363632082939148
vt 0.790123462677002 0
vt 0.790123462677002 0.6363632082939148
vt 0.855967104434967 0
vt 0.855967104434967 0.6363632082939148
vt 0.855967104434967 0
vt 0.855967104434967 0.6363632082939148
vt 0.895061731338501 0
vt 0.895061731338501 0.6363632082939148
vt 0.895061731338501 0
vt 0.895061731338501 0.6363632082939148
vt 0.9609053730964661 0
vt 0.9609053730964661 0.6363632082939148
vt 0.9609053730964661 0
vt 0.9609053730964661 0.6363632082939148
vt 1 0
vt 1 0.6363632082939148
vt 0.1372180432081223 0.6363638639450073
vt 0 0.6363638639450073
vt 0 1
vt 0.1372180432081223 1
vt 0.04323308169841766 0.6727274656295776
vt 0.04323308169841766 0.9636363983154297
vt 0.007518797181546688 0.9636363983154297
vt 0.007518797181546688 0.6727274656295776
vt 0.08646616339683533 0.6727274656295776
vt 0.08646616339683533 0.9636363983154297
vt 0.05075187981128693 0.9636363983154297
vt 0.05075187981128693 0.6727274656295776
vt 0.129699245095253 0.6727274656295776
vt 0.129699245095253 0.9636363983154297
vt 0.09398496150970459 0.9636363983154297
vt 0.09398496150970459 0.6727274656295776
vt 0.1372180432081223 1
vt 0 1
vt 0 0.6363638639450073
vt 0.1372180432081223 0.6363638639450073
vt 0.04323308169841766 0.9636363983154297
vt 0.04323308169841766 0.6727274656295776
vt 0.007518797181546688 0.6727274656295776
vt 0.007518797181546688 0.9636363983154297
vt 0.08646616339683533 0.9636363983154297
vt 0.08646616339683533 0.6727274656295776
vt 0.05075187981128693 0.6727274656295776
vt 0.05075187981128693 0.9636363983154297
vt 0.129699245095253 0.9636363983154297
vt 0.129699245095253 0.6727274656295776
vt 0.09398496150970459 0.6727274656295776
vt 0.09398496150970459 0.9636363983154297
vn -1 0 0
vn -1 0 0
vn -1 0 0
vn -1 0 0
vn 0 1 0
vn 0 1 0
vn 0 1 0
vn 0 1 0
vn 1 0 0
vn 1 0 0
vn 1 0 0
vn 1 0 0
vn 0 -1 0
vn 0 -1 0
vn 0 -1 0
vn 0 -1 0
vn 0 1 0
vn 0 1 0
vn 0 1 0
vn 0 1 0
vn -1 0 0
vn -1 0 0
vn -1 0 0
vn -1 0 0
vn 0 -1 0
vn 0 -1 0
vn 0 -1 0
vn 0 -1 0
vn 1 0 0
vn 1 0 0
vn 1 0 0
vn 1 0 0
vn 0 1 0
vn 0 1 0
vn 0 1 0
vn 0 1 0
vn -1 0 0
vn -1 0 0
vn -1 0 0
vn -1 0 0
vn 0 -1 0
vn 0 -1 0
vn 0 -1 0
vn 0 -1 0
vn 1 0 0
vn 1 0 0
vn 1 0 0
vn 1 0 0
vn 0 1 0
vn 0 1 0
vn 0 1 0
vn 0 1 0
vn -1 0 0
vn -1 0 0
vn -1 0 0
vn -1 0 0
vn 0 -1 0
vn 0 -1 0
vn 0 -1 0
vn 0 -1 0
vn 1 0 0
vn 1 0 0
vn 1 0 0
vn 1 0 0
vn 0 0 1
vn 0 0 1
vn 0 0 1
vn 0 0 1
vn 0 0 1
vn 0 0 1
vn 0 0 1
vn 0 0 1
vn 0 0 1
vn 0 0 1
vn 0 0 1
vn 0 0 1
vn 0 0 1
vn 0 0 1
vn 0 0 1
vn 0 0 1
vn 0 0 -1
vn 0 0 -1
vn 0 0 -1
vn 0 0 -1
vn 0 0 -1
vn 0 0 -1
vn 0 0 -1
vn 0 0 -1
vn 0 0 -1
vn 0 0 -1
vn 0 0 -1
vn 0 0 -1
vn 0 0 -1
vn 0 0 -1
vn 0 0 -1
vn 0 0 -1
f 1/1/1 2/3/3 4/4/4 3/2/2
f 2/5/5 30/7/7 32/8/8 4/6/6
f 30/9/9 29/11/11 31/12/12 32/10/10
f 29/13/13 1/15/15 3/16/16 31/14/14
f 9/17/17 21/19/19 27/20/20 15/18/18
f 21/21/21 22/23/23 28/24/24 27/22/22
f 22/25/25 10/27/27 16/28/28 28/26/26
f 10/29/29 9/31/31 15/32/32 16/30/30
f 7/33/33 19/35/35 25/36/36 13/34/34
f 19/37/37 20/39/39 26/40/40 25/38/38
f 20/41/41 8/43/43 14/44/44 26/42/42
f 8/45/45 7/47/47 13/48/48 14/46/46
f 5/49/49 17/51/51 23/52/52 11/50/50
f 17/53/53 18/55/55 24/56/56 23/54/54
f 18/57/57 6/59/59 12/60/60 24/58/58
f 6/61/61 5/63/63 11/64/64 12/62/62
f 18/79/79 17/78/78 29/68/68
f 1/65/65 29/68/68 17/78/78
f 29/68/68 19/74/74 18/79/79
f 6/80/80 18/79/79 19/74/74
f 20/75/75 19/74/74 29/68/68
f 21/70/70 20/75/75 30/67/67
f 29/68/68 30/67/67 20/75/75
f 30/67/67 22/71/71 21/70/70
f 21/70/70 8/76/76 20/75/75
f 10/72/72 22/71/71 30/67/67
f 1/65/65 5/77/77 6/80/80
f 2/66/66 1/65/65 7/73/73
f 6/80/80 7/73/73 1/65/65
f 1/65/65 17/78/78 5/77/77
f 19/74/74 7/73/73 6/80/80
f 21/70/70 9/69/69 8/76/76
f 2/66/66 8/76/76 9/69/69
f 30/67/67 2/66/66 10/72/72
f 9/69/69 10/72/72 2/66/66
f 2/66/66 7/73/73 8/76/76
f 24/95/95 31/84/84 23/94/94
f 3/81/81 23/94/94 31/84/84
f 31/84/84 24/95/95 25/90/90
f 12/96/96 25/90/90 24/95/95
f 26/91/91 31/84/84 25/90/90
f 27/86/86 32/83/83 26/91/91
f 31/84/84 26/91/91 32/83/83
f 32/83/83 27/86/86 28/87/87
f 27/86/86 26/91/91 14/92/92
f 16/88/88 32/83/83 28/87/87
f 3/81/81 12/96/96 11/93/93
f 4/82/82 13/89/89 3/81/81
f 12/96/96 3/81/81 13/89/89
f 3/81/81 11/93/93 23/94/94
f 25/90/90 12/96/96 13/89/89
f 27/86/86 14/92/92 15/85/85
f 4/82/82 15/85/85 14/92/92
f 32/83/83 16/88/88 4/82/82
f 15/85/85 4/82/82 16/88/88
f 4/82/82 14/92/92 13/89/89
