# Blender v2.77 (sub 0) OBJ File: 'Books.blend'
# www.blender.org
mtllib Books.mtl
o Cube.036
v 31.542721 12.819304 -10.919974
v 31.542721 -0.056720 -0.005091
v 31.542721 12.819304 -0.005091
v 28.277147 12.819304 -0.005091
v 28.277147 12.819304 -10.919974
v 28.277147 -0.056720 -0.005091
v 26.277147 13.272896 -10.919974
v 28.277147 13.272896 -10.919974
v 26.277147 13.272896 -0.005091
v 28.277147 13.272896 -0.005091
v 26.277147 12.380079 -0.005091
v 26.277147 12.380079 -10.919974
v 26.277145 -0.056720 -0.005091
v 19.496758 12.380079 -0.005091
v 19.496758 12.380079 -10.919974
v 18.531143 13.536627 -10.919974
v 19.496758 13.536627 -10.919974
v 18.531143 13.536626 -0.005091
v 19.496758 -0.056720 -0.005091
v 19.496758 13.536626 -0.005091
v 16.531143 12.380079 -0.005091
v 16.531143 12.380079 -10.919974
v 18.531143 12.380079 -10.919974
v 16.531143 -0.056720 -0.005091
v 18.531143 -0.056720 -0.005091
v 18.531143 12.380079 -0.005091
v 16.531143 14.838044 -10.919974
v 16.531143 14.838044 -0.005091
v 7.999998 14.838044 -10.919974
v 7.999998 -0.056720 -0.005091
v 7.999998 14.838032 -0.005091
v 5.999998 16.248146 -0.005091
v 5.999998 16.248146 -10.919974
v 7.999998 16.248146 -10.919974
v 5.999998 -0.056720 -0.005091
v 7.999998 16.248146 -0.005091
v 5.999998 14.007747 -10.919974
v 5.999998 14.007747 -0.005091
v -0.000002 14.007743 -0.005091
v -0.000002 14.007743 -10.919974
v -0.000002 -0.056720 -0.005091
v 31.542721 -0.056720 -10.919974
v -0.000002 -0.056720 -10.919974
vt -0.0395 0.8514
vt -0.3841 0.8514
vt -0.3841 0.0437
vt -0.0395 0.0437
vt 1.2399 0.8092
vt 1.1251 0.8092
vt 1.1251 0.0437
vt 1.2399 0.0437
vt 1.2399 0.7831
vt 1.4275 0.0437
vt 1.4275 0.7831
vt 0.7357 0.8243
vt 0.6802 0.8243
vt 0.6802 0.0437
vt 0.7357 0.0437
vt 0.6802 0.7579
vt 0.5654 0.7579
vt 0.5654 0.0437
vt 0.5654 0.8991
vt 0.0754 0.8991
vt 0.0754 0.0437
vt 0.0754 0.9801
vt -0.0395 0.9801
vt 0.7357 0.7579
vt 1.1251 0.7579
vt 0.9407 0.8505
vt 0.9421 0.0337
vt 0.9929 0.0337
vt 0.9915 0.8505
vt 0.0762 0.5863
vt 0.0106 0.5863
vt 0.0106 0.2894
vt 0.0762 0.2894
vt 0.0000 0.0000
vt 0.0000 0.0000
vt 0.0000 0.0000
vt 0.0000 0.0000
vt 0.0000 0.0000
vt 0.0000 0.0000
vt 0.0000 0.0000
vt 0.0000 0.0000
vt 0.0000 0.0000
vt 0.0000 0.0000
vt 0.0000 0.0000
vt 0.0000 0.0000
vt 0.0000 0.0000
vt 0.0000 0.0000
vt 0.0000 0.0000
vt 0.0000 0.0000
vt 0.0000 0.0000
vt 0.0000 0.0000
vt 0.0000 0.0000
vt 0.0000 0.0000
vt 0.0000 0.0000
vt 0.0000 0.0000
vt 0.0000 0.0000
vt 0.0000 0.0000
vt 0.0000 0.0000
vt 0.0000 0.0000
vt 0.0000 0.0000
vt 0.0000 0.0000
vt 0.0000 0.0000
vt 0.0000 0.0000
vt 0.0000 0.0000
vt 0.0000 0.0000
vn 0.0000 0.0000 1.0000
vn 1.0000 0.0000 0.0000
vn -1.0000 0.0000 0.0000
vn 0.0000 1.0000 0.0000
usemtl None
s off
f 38/1/1 39/2/1 41/3/1 35/4/1
f 10/5/1 9/6/1 13/7/1 6/8/1
f 4/9/1 6/8/1 2/10/1 3/11/1
f 20/12/1 18/13/1 25/14/1 19/15/1
f 26/16/1 21/17/1 24/18/1 25/14/1
f 28/19/1 31/20/1 30/21/1 24/18/1
f 36/22/1 32/23/1 35/4/1 30/21/1
f 14/24/1 19/15/1 13/7/1 11/25/1
f 3/26/2 2/27/2 42/28/2 1/29/2
f 39/30/3 40/31/3 43/32/3 41/33/3
usemtl None_NONE
f 10/34/4 8/35/4 7/36/4 9/37/4
f 15/38/4 14/39/4 11/40/4 12/41/4
f 20/42/4 17/43/4 16/44/4 18/45/4
f 26/46/4 23/47/4 22/48/4 21/49/4
f 29/50/4 31/51/4 28/52/4 27/53/4
f 36/54/4 34/55/4 33/56/4 32/57/4
f 32/57/3 33/56/3 37/58/3 38/59/3
f 31/51/2 29/50/2 34/55/2 36/54/2
f 37/58/4 40/60/4 39/61/4 38/59/4
f 21/49/2 22/48/2 27/53/2 28/52/2
f 18/45/3 16/44/3 23/47/3 26/46/3
f 20/42/2 14/39/2 15/38/2 17/43/2
f 9/37/3 7/36/3 12/41/3 11/40/3
f 4/62/2 5/63/2 8/35/2 10/34/2
f 1/64/4 5/63/4 4/62/4 3/65/4
