# Blender v2.77 (sub 0) OBJ File: 'Books_03.blend'
# www.blender.org
mtllib Books_03.mtl
o Cube.016_Cube.052
v 13.265571 9.724377 0.406245
v 13.265571 9.724377 -10.299336
v 15.265571 9.724377 0.406245
v 15.265571 9.724377 -10.299336
v 13.265571 0.000002 0.406246
v 13.265571 9.724377 0.406246
v 13.265571 0.000002 -10.299335
v 13.265571 9.724377 -10.299335
v 15.265571 0.000002 0.406246
v 15.265571 9.724377 0.406246
v 15.265571 0.000002 -10.299335
v 15.265571 9.724377 -10.299335
v 11.999998 13.147980 0.839488
v 11.999998 13.147980 -9.866094
v 13.265572 13.147980 0.839488
v 13.265572 13.147980 -9.866094
v 11.999998 0.000001 0.839488
v 11.999998 13.147980 0.839488
v 11.999998 0.000001 -9.866094
v 11.999998 13.147980 -9.866094
v 13.265572 0.000001 0.839488
v 13.265572 13.147980 0.839488
v 13.265572 0.000001 -9.866094
v 13.265572 13.147980 -9.866094
v 9.999998 12.708755 -0.477505
v 9.999998 12.708755 -11.183086
v 11.999998 12.708755 -0.477505
v 11.999998 12.708755 -11.183086
v 9.999998 0.000001 -0.477505
v 9.999998 12.708755 -0.477505
v 9.999998 0.000001 -11.183086
v 9.999998 12.708755 -11.183086
v 11.999998 0.000001 -0.477505
v 11.999998 12.708755 -0.477505
v 11.999998 0.000001 -11.183086
v 11.999998 12.708755 -11.183086
v 7.999998 12.708755 -0.000000
v 7.999998 12.708755 -10.705582
v 9.999998 12.708755 -0.000000
v 9.999998 12.708755 -10.705582
v 7.999998 0.000001 -0.000000
v 7.999998 12.708755 -0.000000
v 7.999998 0.000001 -10.705582
v 7.999998 12.708755 -10.705582
v 9.999998 0.000001 -0.000000
v 9.999998 12.708755 -0.000000
v 9.999998 0.000001 -10.705582
v 9.999998 12.708755 -10.705582
v 5.999999 15.166719 -0.000000
v 5.999999 15.166719 -10.705582
v 7.999999 15.166719 -0.000000
v 7.999999 15.166719 -10.705582
v 5.999999 0.000001 0.000001
v 5.999999 15.166719 0.000001
v 5.999999 0.000001 -10.705581
v 5.999999 15.166719 -10.705581
v 7.999999 0.000001 0.000001
v 7.999999 15.166719 0.000001
v 7.999999 0.000001 -10.705581
v 7.999999 15.166719 -10.705581
v 3.999999 15.166719 -0.432916
v 3.999999 15.166719 -11.138497
v 5.999999 15.166719 -0.432916
v 5.999999 15.166719 -11.138497
v 3.999999 0.000001 -0.432915
v 3.999999 15.166719 -0.432915
v 3.999999 0.000001 -11.138496
v 3.999999 15.166719 -11.138496
v 5.999999 0.000001 -0.432915
v 5.999999 15.166719 -0.432915
v 5.999999 0.000001 -11.138496
v 5.999999 15.166719 -11.138496
v 1.999999 15.166719 -0.233341
v 1.999999 15.166719 -10.938923
v 3.999999 15.166719 -0.233341
v 3.999999 15.166719 -10.938923
v 1.999999 0.000001 -0.233341
v 1.999999 15.166719 -0.233340
v 1.999999 0.000001 -10.938922
v 1.999999 15.166719 -10.938922
v 3.999999 0.000001 -0.233341
v 3.999999 15.166719 -0.233340
v 3.999999 0.000001 -10.938922
v 3.999999 15.166719 -10.938922
v -0.000001 15.166719 -0.000000
v -0.000001 15.166719 -10.705582
v 1.999999 15.166719 -0.000000
v 1.999999 15.166719 -10.705582
v -0.000001 0.000001 0.000001
v -0.000001 15.166719 0.000001
v -0.000001 0.000001 -10.705581
v -0.000001 15.166719 -10.705581
v 1.999999 0.000001 0.000001
v 1.999999 15.166719 0.000001
v 1.999999 0.000001 -10.705581
v 1.999999 15.166719 -10.705581
vn 0.0000 1.0000 0.0000
vn -1.0000 0.0000 0.0000
vn 1.0000 0.0000 0.0000
vn 0.0000 0.0000 1.0000
usemtl Book_paper
s off
f 3//1 4//1 2//1 1//1
f 15//1 16//1 14//1 13//1
f 27//1 28//1 26//1 25//1
f 39//1 40//1 38//1 37//1
f 51//1 52//1 50//1 49//1
f 63//1 64//1 62//1 61//1
f 75//1 76//1 74//1 73//1
f 87//1 88//1 86//1 85//1
usemtl Book_6
f 6//2 8//2 7//2 5//2
f 12//3 10//3 9//3 11//3
f 10//4 6//4 5//4 9//4
usemtl Book_5
f 18//2 20//2 19//2 17//2
f 24//3 22//3 21//3 23//3
f 22//4 18//4 17//4 21//4
usemtl book_1
f 30//2 32//2 31//2 29//2
f 36//3 34//3 33//3 35//3
f 34//4 30//4 29//4 33//4
f 42//2 44//2 43//2 41//2
f 48//3 46//3 45//3 47//3
f 46//4 42//4 41//4 45//4
usemtl Book_7
f 54//2 56//2 55//2 53//2
f 60//3 58//3 57//3 59//3
f 58//4 54//4 53//4 57//4
f 66//2 68//2 67//2 65//2
f 72//3 70//3 69//3 71//3
f 70//4 66//4 65//4 69//4
f 78//2 80//2 79//2 77//2
f 84//3 82//3 81//3 83//3
f 82//4 78//4 77//4 81//4
f 90//2 92//2 91//2 89//2
f 96//3 94//3 93//3 95//3
f 94//4 90//4 89//4 93//4
