# Rhino

mtllib Cup.mtl
g Default
o object_1
usemtl WhitePlastic
v -0.8660253882408142 2.5 7.52476167678833
v -0.8660253882408142 8.5 7.52476167678833
v -0.8660253882408142 2.5 3.464101552963257
v -0.8660253882408142 8.5 3.464101552963257
v -1.110223024625157e-16 7.439339637756348 6.464101791381836
v 0 7 3.464101552963257
v 2.220446049250313e-16 3.560660123825073 6.464101791381836
v 3.33066907387547e-16 4 3.464101552963257
v 0.4330126941204071 7.75 3.464101552963257
v 0.8660253882408142 2.5 7.52476167678833
v 0.8660253882408142 8.5 7.52476167678833
v 0.8660253882408142 2.5 3.464101552963257
v 0.8660253882408142 8.5 3.464101552963257
vt 0 0
vt 0 1
vt 1 0
vt 1 1
vt 0 0
vt 0 1
vt 1 0
vt 1 1
vt 0 0
vt 0 1
vt 1 0
vt 1 0.5
vt 1 1
vt 0 0
vt 0 1
vt 1 0
vt 1 1
vt 0 0
vt 0 1
vt 1 0
vt 1 1
vt 0 0
vt 0 1
vt 1 0
vt 1 1
vt 0 0
vt 0 1
vt 1 0
vt 1 1
vt 0 0
vt 0 1
vt 1 0
vt 1 1
vt 0 0
vt 0 1
vt 1 0
vt 1 1
vn -0.8660253882408142 -0.5 -2.403703314837231e-17
vn -0.8637130260467529 -0.4986649453639984 -0.07302778959274292
vn -0.7745966911315918 -0.6324555277824402 \
 -2.149937703231885e-17
vn -0.7189445495605469 -0.6877317428588867 -0.1007159873843193
vn -0.7745966911315918 -1.404333377991041e-16 0.6324555277824402
vn -0.7745966911315918 -6.651555181907948e-17 0.6324555277824402
vn -0.7745966911315918 -1.404333377991041e-16 0.6324555277824402
vn -0.7745966911315918 -6.651555181907948e-17 0.6324555277824402
vn -0.7745966911315918 0.6324555277824402 -2.149937703231885e-17
vn -0.7189445495605469 0.6877317428588867 -0.1007159873843193
vn -0.8660253882408142 0.5 -2.403703314837231e-17
vn -0.8656065464019775 0.4997581839561462 -0.03109676390886307
vn -0.8637130260467529 0.4986649453639984 -0.07302778959274292
vn 0.8637130260467529 -0.4986649453639984 -0.07302778959274292
vn 0.8660253882408142 -0.5 2.403703314837231e-17
vn 0.7189445495605469 -0.6877317428588867 -0.1007159873843193
vn 0.7745966911315918 -0.6324555277824402 2.149937703231885e-17
vn 0 1 0
vn 0 1 0
vn 0 1 0
vn 0 1 0
vn 0.7745966911315918 6.651555181907948e-17 0.6324555277824402
vn 0.7745966911315918 -1.404333377991041e-16 0.6324555277824402
vn 0.7745966911315918 6.651555181907948e-17 0.6324555277824402
vn 0.7745966911315918 -1.404333377991041e-16 0.6324555277824402
vn 0 2.220446049250313e-16 -1
vn 0 2.220446049250313e-16 -1
vn 0 2.220446049250313e-16 -1
vn 0 2.220446049250313e-16 -1
vn 0.7189445495605469 0.6877317428588867 -0.1007159873843193
vn 0.7745966911315918 0.6324555277824402 2.149937703231885e-17
vn 0.8637130260467529 0.4986649453639984 -0.07302778959274292
vn 0.8660253882408142 0.5 2.403703314837231e-17
vn 0 -1 0
vn 0 -1 0
vn 0 -1 0
vn 0 -1 0
f 8/2/2 12/1/1 10/3/3 7/4/4
f 7/6/6 10/5/5 11/7/7 5/8/8
f 9/12/12 5/10/10 11/9/9
f 11/9/9 13/11/11 9/12/12
f 5/10/10 9/12/12 6/13/13
f 3/15/15 8/14/14 7/16/16 1/17/17
f 12/19/19 3/18/18 1/20/20 10/21/21
f 1/23/23 7/22/22 5/24/24 2/25/25
f 10/27/27 1/26/26 2/28/28 11/29/29
f 2/31/31 5/30/30 6/32/32 4/33/33
f 11/35/35 2/34/34 4/36/36 13/37/37
g Todo__Cup__Body
o object_2
usemtl WhitePlastic
v -4 2 0
v -4 10 0
v -3.599999904632568 10 0.6928203105926514
v -3.599999904632568 10 -0.6928203105926514
v -3.200000047683716 10 1.385640621185303
v -3.200000047683716 0 0
v -3.200000047683716 2 0
v -3.200000047683716 10 0
v -3.200000047683716 10 -1.385640621185303
v -2.799999952316284 10 2.078460931777954
v -2.799999952316284 10 0.6928203105926514
v -2.799999952316284 10 -0.6928203105926514
v -2.799999952316284 10 -2.078460931777954
v -2.400000095367432 10 2.771281242370606
v -2.400000095367432 10 1.385640621185303
v -2.400000095367432 10 -1.385640621185303
v -2.400000095367432 10 -2.771281242370606
v -2 2 3.464101552963257
v -2 10 3.464101552963257
v -2 10 2.078460931777954
v -2 10 -2.078460931777954
v -2 2 -3.464101552963257
v -2 10 -3.464101552963257
v -1.600000023841858 0 2.771281242370606
v -1.600000023841858 2 2.771281242370606
v -1.600000023841858 10 2.771281242370606
v -1.600000023841858 0 -2.771281242370606
v -1.600000023841858 2 -2.771281242370606
v -1.600000023841858 10 -2.771281242370606
v -1.200000047683716 10 3.464101552963257
v -1.200000047683716 10 -3.464101552963257
v -0.800000011920929 10 2.771281242370606
v -0.800000011920929 10 -2.771281242370606
v -0.4000000059604645 10 3.464101552963257
v -0.4000000059604645 10 -3.464101552963257
v -1.776356839400251e-15 10 2.771281242370606
v 6.661338147750939e-16 10 -2.771281242370606
v 0.4000000059604645 10 3.464101552963257
v 0.4000000059604645 10 -3.464101552963257
v 0.800000011920929 10 2.771281242370606
v 0.800000011920929 10 -2.771281242370606
v 1.200000047683716 10 3.464101552963257
v 1.200000047683716 10 -3.464101552963257
v 1.600000023841858 0 2.771281242370606
v 1.600000023841858 2 2.771281242370606
v 1.600000023841858 10 2.771281242370606
v 1.600000023841858 0 -2.771281242370606
v 1.600000023841858 2 -2.771281242370606
v 1.600000023841858 10 -2.771281242370606
v 2 2 3.464101552963257
v 2 10 3.464101552963257
v 2 10 2.078460931777954
v 2 10 -2.078460931777954
v 2 2 -3.464101552963257
v 2 10 -3.464101552963257
v 2.400000095367432 10 2.771281242370606
v 2.400000095367432 10 1.385640621185303
v 2.400000095367432 10 -1.385640621185303
v 2.400000095367432 10 -2.771281242370606
v 2.799999952316284 10 2.078460931777954
v 2.799999952316284 10 0.6928203105926514
v 2.799999952316284 10 -0.6928203105926514
v 2.799999952316284 10 -2.078460931777954
v 3.200000047683716 10 1.385640621185303
v 3.200000047683716 0 0
v 3.200000047683716 2 0
v 3.200000047683716 10 0
v 3.200000047683716 10 -1.385640621185303
v 3.599999904632568 10 0.6928203105926514
v 3.599999904632568 10 -0.6928203105926514
v 4 2 0
v 4 10 0
vt 0 0
vt 0 1
vt 1 0
vt 1 1
vt 1 0.2000000029802322
vt 1 0.4000000059604645
vt 1 0.6000000238418579
vt 1 0.800000011920929
vt 0 0
vt 0 1
vt 1 0
vt 1 1
vt 1 0.2000000029802322
vt 1 0.4000000059604645
vt 1 0.6000000238418579
vt 1 0.800000011920929
vt 0 0
vt 0 1
vt 1 0
vt 1 1
vt 1 0.2000000029802322
vt 1 0.4000000059604645
vt 1 0.6000000238418579
vt 1 0.800000011920929
vt 0 0
vt 0 1
vt 1 0
vt 1 1
vt 1 0.2000000029802322
vt 1 0.4000000059604645
vt 1 0.6000000238418579
vt 1 0.800000011920929
vt 0 0
vt 0 1
vt 1 0
vt 1 1
vt 1 0.2000000029802322
vt 1 0.4000000059604645
vt 1 0.6000000238418579
vt 1 0.800000011920929
vt 0 0
vt 0 1
vt 1 0
vt 1 1
vt 0 0
vt 0 1
vt 1 0
vt 1 1
vt 0 0
vt 0 1
vt 1 0
vt 1 1
vt 0 0
vt 0 1
vt 1 0
vt 1 1
vt 0 0
vt 0 1
vt 1 0
vt 1 1
vt 0 0
vt 0 1
vt 1 0
vt 1 1
vt 1 0.2000000029802322
vt 1 0.4000000059604645
vt 1 0.6000000238418579
vt 1 0.800000011920929
vt 0 0
vt 0 1
vt 1 0
vt 1 1
vt 0.7450980544090271 0.9901960492134094
vt 0.2549019753932953 0.9901960492134094
vt 0.009803921915590763 0.5
vt 0.2549019753932953 0.009803921915590763
vt 0.7450980544090271 0.009803921915590763
vt 0.9901960492134094 0.5
vt 0.7075530290603638 0.9166666865348816
vt 0.6239076256752014 0.9166666865348816
vt 0.5402621626853943 0.9166666865348816
vt 0.4566167294979096 0.9166666865348816
vt 0.3729712963104248 0.9166666865348816
vt 0.2893258333206177 0.9166666865348816
vt 0.2475031167268753 0.8333333134651184
vt 0.2056804001331329 0.75
vt 0.1638576835393906 0.6666666865348816
vt 0.1220349594950676 0.5833333134651184
vt 0.08021223545074463 0.5
vt 0.1220349594950676 0.4166666567325592
vt 0.1638576835393906 0.3333333432674408
vt 0.2056804001331329 0.25
vt 0.2475031167268753 0.1666666716337204
vt 0.2893258333206177 0.0833333358168602
vt 0.3729712963104248 0.0833333358168602
vt 0.4566167294979096 0.0833333358168602
vt 0.5402621626853943 0.0833333358168602
vt 0.6239076256752014 0.0833333358168602
vt 0.7075530290603638 0.0833333358168602
vt 0.7493757605552673 0.1666666716337204
vt 0.7911984920501709 0.25
vt 0.8330212235450745 0.3333333432674408
vt 0.874843955039978 0.4166666567325592
vt 0.9166666865348816 0.5
vt 0.874843955039978 0.5833333134651184
vt 0.8330212235450745 0.6666666865348816
vt 0.7911984920501709 0.75
vt 0.7493757605552673 0.8333333134651184
vt 0.665730357170105 0.1666666716337204
vt 0.5820848941802979 0.1666666716337204
vt 0.4984394609928131 0.1666666716337204
vt 0.414793998003006 0.1666666716337204
vt 0.3311485648155212 0.1666666716337204
vt 0.3311485648155212 0.8333333134651184
vt 0.414793998003006 0.8333333134651184
vt 0.4984394609928131 0.8333333134651184
vt 0.5820848941802979 0.8333333134651184
vt 0.665730357170105 0.8333333134651184
vt 0.1638576835393906 0.5
vt 0.2056804001331329 0.5833333134651184
vt 0.2475031167268753 0.6666666865348816
vt 0.2893258333206177 0.75
vt 0.2893258333206177 0.25
vt 0.2475031167268753 0.3333333432674408
vt 0.2056804001331329 0.4166666567325592
vt 0.8330212235450745 0.5
vt 0.7911984920501709 0.4166666567325592
vt 0.7493757605552673 0.3333333432674408
vt 0.7075530290603638 0.25
vt 0.7075530290603638 0.75
vt 0.7493757605552673 0.6666666865348816
vt 0.7911984920501709 0.5833333134651184
vt 0 0
vt 0 1
vt 1 0
vt 1 1
vt 1 0.25
vt 1 0.5
vt 1 0.75
vt 0 0
vt 0 1
vt 1 0
vt 1 0.5
vt 1 1
vt 1 0.25
vt 1 0.75
vt 0 0
vt 0 1
vt 1 0
vt 1 1
vt 1 0.25
vt 1 0.5
vt 1 0.75
vt 0 0
vt 0 1
vt 1 0
vt 1 1
vt 1 0.25
vt 1 0.5
vt 1 0.75
vt 0 0
vt 0 1
vt 1 0
vt 1 1
vt 1 0.25
vt 1 0.5
vt 1 0.75
vt 0 0
vt 0 1
vt 1 0
vt 1 1
vt 1 0.25
vt 1 0.5
vt 1 0.75
vt 0.7450980544090271 0.9901960492134094
vt 0.2549019753932953 0.9901960492134094
vt 0.009803921915590763 0.5
vt 0.2549019753932953 0.009803921915590763
vt 0.7450980544090271 0.009803921915590763
vt 0.9901960492134094 0.5
vn 0 0 -1
vn 0 0 -1
vn 0 0 -1
vn 0 0 -1
vn 0 -2.775557561562891e-17 -1
vn 0 2.775557561562891e-17 -1
vn 0 0 -1
vn 0 0 -1
vn -0.8660253882408142 0 -0.5
vn -0.8660253882408142 0 -0.5
vn -0.8660253882408142 0 -0.5
vn -0.8660253882408142 0 -0.5
vn -0.8660253882408142 0 -0.5
vn -0.8660253882408142 0 -0.5
vn -0.8660253882408142 2.403703314837231e-17 -0.5
vn -0.8660253882408142 0 -0.5
vn -0.8660253882408142 0 0.5
vn -0.8660253882408142 0 0.5
vn -0.8660253882408142 0 0.5
vn -0.8660253882408142 0 0.5
vn -0.8660253882408142 -1.201851657418615e-17 0.5
vn -0.8660253882408142 0 0.5
vn -0.8660253882408142 0 0.5
vn -0.8660253882408142 0 0.5
vn -8.881784197001252e-16 0 1
vn -8.881784197001252e-16 0 1
vn -8.881784197001252e-16 0 1
vn -8.881784197001252e-16 0 1
vn -8.881784197001252e-16 -6.162975822039155e-33 1
vn -8.881784197001252e-16 0 1
vn -8.881784197001252e-16 0 1
vn -8.881784197001252e-16 0 1
vn 0.8660253882408142 0 0.5
vn 0.8660253882408142 0 0.5
vn 0.8660253882408142 0 0.5
vn 0.8660253882408142 0 0.5
vn 0.8660253882408142 0 0.5
vn 0.8660253882408142 0 0.5
vn 0.8660253882408142 -2.403703314837231e-17 0.5
vn 0.8660253882408142 -2.403703314837231e-17 0.5
vn 0 -0.3273268342018127 -0.9449111819267273
vn 0 -0.3273268342018127 -0.9449111819267273
vn 0 -0.3273268342018127 -0.9449111819267273
vn 0 -0.3273268342018127 -0.9449111819267273
vn -0.8183171153068543 -0.3273268342018127 -0.4724555909633637
vn -0.8183171153068543 -0.3273268342018127 -0.4724555909633637
vn -0.8183171153068543 -0.3273268342018127 -0.4724555909633637
vn -0.8183171153068543 -0.3273268342018127 -0.4724555909633637
vn -0.8183171153068543 -0.3273268342018127 0.4724555909633637
vn -0.8183171153068543 -0.3273268342018127 0.4724555909633637
vn -0.8183171153068543 -0.3273268342018127 0.4724555909633637
vn -0.8183171153068543 -0.3273268342018127 0.4724555909633637
vn 0 -0.3273268342018127 0.9449111819267273
vn 0 -0.3273268342018127 0.9449111819267273
vn -8.392497203206582e-16 -0.3273268342018127 0.9449111819267273
vn -8.392497203206582e-16 -0.3273268342018127 0.9449111819267273
vn 0.8183171153068543 -0.3273268342018127 0.4724555909633637
vn 0.8183171153068543 -0.3273268342018127 0.4724555909633637
vn 0.8183171153068543 -0.3273268342018127 0.4724555909633637
vn 0.8183171153068543 -0.3273268342018127 0.4724555909633637
vn 0.8660253882408142 0 -0.5
vn 0.8660253882408142 0 -0.5
vn 0.8660253882408142 0 -0.5
vn 0.8660253882408142 0 -0.5
vn 0.8660253882408142 0 -0.5
vn 0.8660253882408142 0 -0.5
vn 0.8660253882408142 0 -0.5
vn 0.8660253882408142 0 -0.5
vn 0.8183171153068543 -0.3273268342018127 -0.4724555909633637
vn 0.8183171153068543 -0.3273268342018127 -0.4724555909633637
vn 0.8183171153068543 -0.3273268342018127 -0.4724555909633637
vn 0.8183171153068543 -0.3273268342018127 -0.4724555909633637
vn 0 -1 0
vn 0 -1 0
vn 0 -1 0
vn 0 -1 0
vn 0 -1 0
vn 0 -1 0
vn -1.110223024625157e-15 1 -4.218847493575595e-15
vn -2.442490654175344e-15 1 -4.662936703425658e-15
vn -3.774758283725532e-15 1 -4.440892098500626e-15
vn -3.774758283725532e-15 1 -4.551914400963142e-15
vn -3.608224830031759e-15 1 -3.219646771412954e-15
vn -3.025357742103552e-15 1 -3.080868893334809e-15
vn -3.663735981263017e-15 1 -1.984523656517467e-15
vn -3.747002708109903e-15 1 -1.384309333829492e-15
vn -4.326400349086157e-15 1 -1.985391018255456e-15
vn -3.625572064791527e-15 1 -2.469812548921979e-15
vn -2.217843964036348e-15 1 -4.229418464757329e-15
vn -1.098079960293319e-15 1 -4.520906218830056e-15
vn 6.38378239159465e-16 1 -3.850869276234015e-15
vn 3.584372382237078e-15 1 -2.732189474663471e-15
vn 6.506947758389003e-15 1 -1.660347206944302e-15
vn 8.254844290761509e-15 1 -2.978303367817681e-16
vn 5.628364527915375e-15 1 2.739562049436373e-15
vn 3.413393699636114e-15 1 4.247470430929212e-15
vn 1.567322660545045e-15 1 4.912736883966318e-15
vn -3.382710778154774e-16 1 4.924879948298155e-15
vn -2.157345482811657e-15 1 4.387115670745345e-15
vn -1.330532906074211e-15 1 4.905797990062411e-15
vn -6.973588373426765e-16 1 4.107825191113079e-15
vn -3.191891195797325e-16 1 3.33066907387547e-15
vn 1.609823385706477e-15 1 2.831068712794149e-15
vn 3.608224830031759e-15 1 1.443289932012704e-15
vn 3.719247132494274e-15 1 1.776356839400251e-15
vn 3.552713678800501e-15 1 1.221245327087672e-15
vn 1.887379141862766e-15 1 -1.362017656670653e-30
vn 4.440892098500626e-16 1 -1.110223024625157e-15
vn -8.36136715420821e-16 1 5.249273238305818e-15
vn 6.349087922075114e-16 1 5.30825383648903e-15
vn 1.992329912159363e-15 1 4.846817391879199e-15
vn 3.028393508186511e-15 1 3.289903072190015e-15
vn 4.405763948112096e-15 1 1.076395916843609e-15
vn -4.496403249731884e-15 1 -2.3037127760972e-15
vn -4.274358644806853e-15 1 -2.609024107869118e-15
vn -3.386180225106727e-15 1 -2.664535259100376e-15
vn -2.886579864025407e-15 1 -2.775557561562891e-15
vn -1.110223024625157e-15 1 -2.331468351712829e-15
vn -2.517083763642347e-15 1 -2.782496455466799e-15
vn -3.622102617839573e-15 1 -1.859623566247137e-15
vn -3.913536161803677e-15 1 -1.665334536937735e-15
vn -4.052314039881821e-15 1 -1.817990202823694e-15
vn 2.559584488803779e-15 1 -1.249000902703301e-16
vn 1.021752127350339e-15 1 -1.10848830114918e-15
vn -9.939965517347105e-16 1 -2.164067536281067e-15
vn 2.164934898019055e-15 1 2.886579864025407e-15
vn 1.137978600240786e-15 1 3.719247132494274e-15
vn 2.914335439641036e-16 1 4.746203430272544e-15
vn -2.8796409701215e-16 1 4.621303340002214e-15
vn 1.110223024625157e-16 1 2.220446049250313e-16
vn 8.881784197001252e-16 1 1.665334536937735e-15
vn 2.275957200481571e-15 1 2.55351295663786e-15
vn 0 0 1
vn 0 0 1
vn 0 0 1
vn 0 0 1
vn 0 1.387778780781446e-17 1
vn 0 0 1
vn 0 0 1
vn 0.8660253882408142 0 0.5
vn 0.8660253882408142 0 0.5
vn 0.8660253882408142 0 0.5
vn 0.8660253882408142 0 0.5
vn 0.8660253882408142 0 0.5
vn 0.8660253882408142 1.201851657418615e-17 0.5
vn 0.8660253882408142 0 0.5
vn 0.8660253882408142 0 -0.5
vn 0.8660253882408142 0 -0.5
vn 0.8660253882408142 0 -0.5
vn 0.8660253882408142 0 -0.5
vn 0.8660253882408142 0 -0.5
vn 0.8660253882408142 2.403703314837231e-17 -0.5
vn 0.8660253882408142 0 -0.5
vn 0 0 -1
vn 0 0 -1
vn 0 0 -1
vn 0 0 -1
vn 0 -1.387778780781446e-17 -1
vn 0 0 -1
vn 0 0 -1
vn -0.8660253882408142 0 -0.5
vn -0.8660253882408142 0 -0.5
vn -0.8660253882408142 0 -0.5
vn -0.8660253882408142 0 -0.5
vn -0.8660253882408142 1.802777444768892e-17 -0.5
vn -0.8660253882408142 -2.403703314837231e-17 -0.5
vn -0.8660253882408142 0 -0.5
vn -0.8660253882408142 0 0.5
vn -0.8660253882408142 0 0.5
vn -0.8660253882408142 0 0.5
vn -0.8660253882408142 0 0.5
vn -0.8660253882408142 1.201851657418615e-17 0.5
vn -0.8660253882408142 0 0.5
vn -0.8660253882408142 4.807406629674461e-17 0.5
vn 0 1 0
vn 0 1 0
vn 0 1 0
vn 0 1 0
vn 0 1 0
vn 0 1 0
f 44/42/42 35/38/38 36/40/40
f 44/42/42 48/43/43 35/38/38
f 67/39/39 35/38/38 48/43/43 52/44/44
f 67/39/39 56/45/45 68/41/41
f 67/39/39 52/44/44 56/45/45
f 17/50/50 14/46/46 15/48/48
f 17/50/50 22/51/51 14/46/46
f 35/47/47 14/46/46 22/51/51 26/52/52
f 35/47/47 30/53/53 36/49/49
f 35/47/47 26/52/52 30/53/53
f 27/58/58 31/54/54 32/56/56
f 27/58/58 23/59/59 31/54/54
f 14/55/55 31/54/54 23/59/59 18/60/60
f 14/55/55 16/61/61 15/57/57
f 14/55/55 18/60/60 16/61/61
f 55/66/66 63/62/62 64/64/64
f 55/66/66 51/67/67 63/62/62
f 31/63/63 63/62/62 51/67/67 47/68/68
f 31/63/63 43/69/69 32/65/65
f 31/63/63 47/68/68 43/69/69
f 82/74/74 84/70/70 85/72/72
f 82/74/74 77/75/75 84/70/70
f 63/71/71 84/70/70 77/75/75 73/76/76
f 63/71/71 69/77/77 64/73/73
f 63/71/71 73/76/76 69/77/77
f 60/79/79 40/78/78 35/80/80 67/81/81
f 40/83/83 19/82/82 14/84/84 35/85/85
f 19/87/87 37/86/86 31/88/88 14/89/89
f 37/91/91 57/90/90 63/92/92 31/93/93
f 57/95/95 78/94/94 84/96/96 63/97/97
f 72/102/102 67/98/98 68/100/100
f 72/102/102 76/103/103 67/98/98
f 84/99/99 67/98/98 76/103/103 81/104/104
f 84/99/99 83/105/105 85/101/101
f 84/99/99 81/104/104 83/105/105
f 78/107/107 60/106/106 67/108/108 84/109/109
f 19/112/112 40/111/111 60/110/110 78/115/115
f 37/113/113 19/112/112 57/114/114
f 57/114/114 19/112/112 78/115/115
f 33/160/160 28/161/161 23/129/129
f 28/161/161 18/128/128 23/129/129
f 16/127/127 18/128/128 24/162/162
f 28/161/161 24/162/162 18/128/128
f 21/156/156 16/127/127 24/162/162
f 33/160/160 23/129/129 27/130/130
f 39/150/150 32/131/131 43/132/132
f 45/149/149 43/132/132 47/133/133
f 39/150/150 33/160/160 27/130/130
f 43/132/132 45/149/149 39/150/150
f 45/149/149 47/133/133 49/148/148
f 49/148/148 47/133/133 51/134/134
f 32/131/131 39/150/150 27/130/130
f 17/125/125 15/126/126 21/156/156
f 16/127/127 21/156/156 15/126/126
f 25/157/157 17/125/125 21/156/156
f 22/124/124 29/158/158 26/123/123
f 30/122/122 26/123/123 34/159/159
f 22/124/124 25/157/157 29/158/158
f 25/157/157 22/124/124 17/125/125
f 30/122/122 34/159/159 42/151/151
f 36/121/121 30/122/122 42/151/151
f 44/120/120 36/121/121 42/151/151
f 48/119/119 44/120/120 42/151/151 46/152/152
f 46/152/152 50/153/153 48/119/119
f 29/158/158 34/159/159 26/123/123
f 53/147/147 51/134/134 55/135/135
f 59/146/146 55/135/135 64/136/136
f 55/135/135 59/146/146 53/147/147
f 59/146/146 69/137/137 65/166/166
f 69/137/137 59/146/146 64/136/136
f 70/165/165 65/166/166 73/138/138
f 77/139/139 70/165/165 73/138/138
f 74/164/164 70/165/165 77/139/139
f 85/141/141 80/163/163 82/140/140
f 74/164/164 82/140/140 80/163/163
f 74/164/164 77/139/139 82/140/140
f 69/137/137 73/138/138 65/166/166
f 72/145/145 68/116/116 62/155/155
f 56/117/117 52/118/118 54/154/154
f 50/153/153 54/154/154 52/118/118
f 62/155/155 56/117/117 54/154/154
f 56/117/117 62/155/155 68/116/116
f 72/145/145 62/155/155 66/167/167
f 48/119/119 50/153/153 52/118/118
f 75/169/169 80/163/163 83/142/142
f 85/141/141 83/142/142 80/163/163
f 81/143/143 75/169/169 83/142/142
f 71/168/168 76/144/144 66/167/167
f 72/145/145 66/167/167 76/144/144
f 71/168/168 81/143/143 76/144/144
f 81/143/143 71/168/168 75/169/169
f 51/134/134 53/147/147 49/148/148
f 61/171/171 50/175/175 46/174/174 41/170/170
f 42/172/172 41/170/170 46/174/174
f 61/171/171 62/173/173 54/176/176
f 61/171/171 54/176/176 50/175/175
f 41/178/178 29/180/180 25/182/182 20/177/177
f 21/179/179 20/177/177 25/182/182
f 41/178/178 42/181/181 34/183/183
f 41/178/178 34/183/183 29/180/180
f 20/185/185 24/190/190 28/189/189 38/184/184
f 39/186/186 38/184/184 33/188/188
f 38/184/184 28/189/189 33/188/188
f 20/185/185 21/187/187 24/190/190
f 49/196/196 58/191/191 38/192/192
f 59/193/193 58/191/191 53/195/195
f 58/191/191 49/196/196 53/195/195
f 38/192/192 39/194/194 45/197/197
f 38/192/192 45/197/197 49/196/196
f 58/199/199 70/203/203 74/202/202 79/198/198
f 80/200/200 79/198/198 74/202/202
f 58/199/199 59/201/201 65/204/204
f 58/199/199 65/204/204 70/203/203
f 71/210/210 61/205/205 79/206/206
f 62/207/207 61/205/205 66/209/209
f 61/205/205 71/210/210 66/209/209
f 79/206/206 80/208/208 75/211/211
f 79/206/206 75/211/211 71/210/210
f 20/214/214 79/217/217 61/212/212 41/213/213
f 38/215/215 58/216/216 20/214/214
f 58/216/216 79/217/217 20/214/214
