# Rhino

mtllib Desk.mtl
g object_1
usemtl Wood
v -52.59807586669922 0 -5.5
v -52.59807586669922 78 -5.5
v -50 0 -1
v -50 78 -1
v -47.40192413330078 0 -5.5
v -47.40192413330078 78 -5.5
vt 0 0
vt 0 1
vt 0.2723288834095001 0
vt 0.2723288834095001 1
vt 0.2723288834095001 0
vt 0.2723288834095001 1
vt 0.5446577668190002 0
vt 0.5446577668190002 1
vt 0.5446577668190002 0
vt 0.5446577668190002 1
vt 0.816986620426178 0
vt 0.816986620426178 1
vt 1 0.03330866992473602
vt 0.8169874548912048 0
vt 0.8169874548912048 0.06661733984947205
vt 1 0.03330866992473602
vt 0.8169874548912048 0.06661733984947205
vt 0.8169874548912048 0
vn 0.8660253882408142 0 0.5
vn 0.8660253882408142 0 0.5
vn 0.8660253882408142 0 0.5
vn 0.8660253882408142 0 0.5
vn 0 0 -1
vn 0 0 -1
vn 0 0 -1
vn 0 0 -1
vn -0.8660253882408142 0 0.5
vn -0.8660253882408142 0 0.5
vn -0.8660253882408142 0 0.5
vn -0.8660253882408142 0 0.5
vn 0 -1 0
vn 0 -1 0
vn 0 -1 0
vn 0 1 0
vn 0 1 0
vn 0 1 0
f 3/1/1 5/3/3 6/4/4 4/2/2
f 5/5/5 1/7/7 2/8/8 6/6/6
f 1/9/9 3/11/11 4/12/12 2/10/10
f 5/14/14 3/13/13 1/15/15
f 6/17/17 2/18/18 4/16/16
g object_2
usemtl Wood
v 47.40192413330078 0 -5.5
v 47.40192413330078 78 -5.5
v 50 0 -1
v 50 78 -1
v 52.59807586669922 0 -5.5
v 52.59807586669922 78 -5.5
vt 0 0
vt 0 1
vt 0.2723288834095001 0
vt 0.2723288834095001 1
vt 0.2723288834095001 0
vt 0.2723288834095001 1
vt 0.5446577668190002 0
vt 0.5446577668190002 1
vt 0.5446577668190002 0
vt 0.5446577668190002 1
vt 0.816986620426178 0
vt 0.816986620426178 1
vt 1 0.03330866992473602
vt 0.8169874548912048 0
vt 0.8169874548912048 0.06661733984947205
vt 1 0.03330866992473602
vt 0.8169874548912048 0.06661733984947205
vt 0.8169874548912048 0
vn 0.8660253882408142 0 0.5
vn 0.8660253882408142 0 0.5
vn 0.8660253882408142 0 0.5
vn 0.8660253882408142 0 0.5
vn 0 0 -1
vn 0 0 -1
vn 0 0 -1
vn 0 0 -1
vn -0.8660253882408142 0 0.5
vn -0.8660253882408142 0 0.5
vn -0.8660253882408142 0 0.5
vn -0.8660253882408142 0 0.5
vn 0 -1 0
vn 0 -1 0
vn 0 -1 0
vn 0 1 0
vn 0 1 0
vn 0 1 0
f 9/19/19 11/21/21 12/22/22 10/20/20
f 11/23/23 7/25/25 8/26/26 12/24/24
f 7/27/27 9/29/29 10/30/30 8/28/28
f 11/32/32 9/31/31 7/33/33
f 12/35/35 8/36/36 10/34/34
g object_3
usemtl Wood
v 47.40192413330078 0 57.5
v 47.40192413330078 78 57.5
v 50 0 53
v 50 78 53
v 52.59807586669922 0 57.5
v 52.59807586669922 78 57.5
vt 0 0
vt 0 1
vt 0.2723288834095001 0
vt 0.2723288834095001 1
vt 0.2723288834095001 0
vt 0.2723288834095001 1
vt 0.5446577668190002 0
vt 0.5446577668190002 1
vt 0.5446577668190002 0
vt 0.5446577668190002 1
vt 0.816986620426178 0
vt 0.816986620426178 1
vt 0.8169874548912048 0.03330866992473602
vt 1 0.06661733984947205
vt 1 0
vt 0.8169874548912048 0.03330866992473602
vt 1 0
vt 1 0.06661733984947205
vn -0.8660253882408142 0 -0.5
vn -0.8660253882408142 0 -0.5
vn -0.8660253882408142 0 -0.5
vn -0.8660253882408142 0 -0.5
vn 0 0 1
vn 0 0 1
vn 0 0 1
vn 0 0 1
vn 0.8660253882408142 0 -0.5
vn 0.8660253882408142 0 -0.5
vn 0.8660253882408142 0 -0.5
vn 0.8660253882408142 0 -0.5
vn 0 -1 0
vn 0 -1 0
vn 0 -1 0
vn 0 1 0
vn 0 1 0
vn 0 1 0
f 15/37/37 13/39/39 14/40/40 16/38/38
f 13/41/41 17/43/43 18/44/44 14/42/42
f 17/45/45 15/47/47 16/48/48 18/46/46
f 15/49/49 17/51/51 13/50/50
f 16/52/52 14/53/53 18/54/54
g object_4
usemtl Wood
v -52.59807586669922 0 57.5
v -52.59807586669922 78 57.5
v -50 0 53
v -50 78 53
v -47.40192413330078 0 57.5
v -47.40192413330078 78 57.5
vt 0 0
vt 0 1
vt 0.2723288834095001 0
vt 0.2723288834095001 1
vt 0.2723288834095001 0
vt 0.2723288834095001 1
vt 0.5446577668190002 0
vt 0.5446577668190002 1
vt 0.5446577668190002 0
vt 0.5446577668190002 1
vt 0.816986620426178 0
vt 0.816986620426178 1
vt 0.8169874548912048 0.03330866992473602
vt 1 0.06661733984947205
vt 1 0
vt 0.8169874548912048 0.03330866992473602
vt 1 0
vt 1 0.06661733984947205
vn -0.8660253882408142 0 -0.5
vn -0.8660253882408142 0 -0.5
vn -0.8660253882408142 0 -0.5
vn -0.8660253882408142 0 -0.5
vn 0 0 1
vn 0 0 1
vn 0 0 1
vn 0 0 1
vn 0.8660253882408142 0 -0.5
vn 0.8660253882408142 0 -0.5
vn 0.8660253882408142 0 -0.5
vn 0.8660253882408142 0 -0.5
vn 0 -1 0
vn 0 -1 0
vn 0 -1 0
vn 0 1 0
vn 0 1 0
vn 0 1 0
f 21/55/55 19/57/57 20/58/58 22/56/56
f 19/59/59 23/61/61 24/62/62 20/60/60
f 23/63/63 21/65/65 22/66/66 24/64/64
f 21/67/67 23/69/69 19/68/68
f 22/70/70 20/71/71 24/72/72
g object_5
usemtl Wood
v -60 78 66
v -60 80 66
v -60 78 -14
v -60 80 -14
v 60 78 66
v 60 80 66
v 60 78 -14
v 60 80 -14
vt 0 0
vt 0 0.5061725974082947
vt 0.2000000029802322 0
vt 0.2000000029802322 0.5061725974082947
vt 0.2000000029802322 0
vt 0.2000000029802322 0.5061725974082947
vt 0.5 0
vt 0.5 0.5061725974082947
vt 0.5 0
vt 0.5 0.5061725974082947
vt 0.699999988079071 0
vt 0.699999988079071 0.5061725974082947
vt 0.699999988079071 0
vt 0.699999988079071 0.5061725974082947
vt 1 0
vt 1 0.5061725974082947
vt 0.300000011920929 1
vt 0.300000011920929 0.5061730742454529
vt 0 0.5061730742454529
vt 0 1
vt 1 0.5061730742454529
vt 1 1
vt 0.699999988079071 1
vt 0.699999988079071 0.5061730742454529
vn -1 0 0
vn -1 0 0
vn -1 0 0
vn -1 0 0
vn 0 0 1
vn 0 0 1
vn 0 0 1
vn 0 0 1
vn 1 0 0
vn 1 0 0
vn 1 0 0
vn 1 0 0
vn 0 0 -1
vn 0 0 -1
vn 0 0 -1
vn 0 0 -1
vn 0 -1 0
vn 0 -1 0
vn 0 -1 0
vn 0 -1 0
vn 0 1 0
vn 0 1 0
vn 0 1 0
vn 0 1 0
f 27/73/73 25/75/75 26/76/76 28/74/74
f 25/77/77 29/79/79 30/80/80 26/78/78
f 29/81/81 31/83/83 32/84/84 30/82/82
f 31/85/85 27/87/87 28/88/88 32/86/86
f 27/89/89 31/92/92 29/91/91
f 29/91/91 25/90/90 27/89/89
f 28/93/93 30/95/95 32/96/96
f 30/95/95 28/93/93 26/94/94
