# Rhino

mtllib Dishwasher.mtl
g Dishwasher__Body
o object_1
usemtl CoalPlastic
v -28 5 23
v -28 9 23
v -28 5 19
v -28 9 19
v 28 5 23
v 28 9 23
v 28 5 19
v 28 9 19
vt 0 0
vt 0 1
vt 0.2083331644535065 0
vt 0.2083331644535065 1
vt 0.2083331644535065 0
vt 0.2083331644535065 1
vt 0.4166663289070129 0
vt 0.4166663289070129 1
vt 0.4166663289070129 0
vt 0.4166663289070129 1
vt 0.624999463558197 0
vt 0.624999463558197 1
vt 0.624999463558197 0
vt 0.624999463558197 1
vt 0.8333326578140259 0
vt 0.8333326578140259 1
vt 0.8333334922790527 0.0714285746216774
vt 1 0.0714285746216774
vt 1 0
vt 0.8333334922790527 0
vt 0.8333334922790527 0.9285714030265808
vt 1 0.9285714030265808
vt 1 1
vt 0.8333334922790527 1
vn 0 -1 0
vn 0 -1 0
vn 0 -1 0
vn 0 -1 0
vn 0 0 -1
vn 0 0 -1
vn 0 0 -1
vn 0 0 -1
vn 0 1 0
vn 0 1 0
vn 0 1 0
vn 0 1 0
vn 0 0 1
vn 0 0 1
vn 0 0 1
vn 0 0 1
vn -1 0 0
vn -1 0 0
vn -1 0 0
vn -1 0 0
vn 1 0 0
vn 1 0 0
vn 1 0 0
vn 1 0 0
f 1/1/1 3/3/3 7/4/4 5/2/2
f 3/5/5 4/7/7 8/8/8 7/6/6
f 4/9/9 2/11/11 6/12/12 8/10/10
f 2/13/13 1/15/15 5/16/16 6/14/14
f 3/18/18 1/17/17 2/20/20
f 2/20/20 4/19/19 3/18/18
f 7/22/22 6/24/24 5/21/21
f 6/24/24 7/22/22 8/23/23
o object_2
usemtl CoalPlastic
v -28 9 22
v -28 79 22
v -28 9 20
v -28 79 20
v -27 10 22
v -27 78 22
v -27 10 20
v -27 78 20
v 27 10 22
v 27 78 22
v 27 10 20
v 27 78 20
v 28 9 22
v 28 79 22
v 28 9 20
v 28 79 20
vt 0 0
vt 0 0.5087716579437256
vt 0.1129032224416733 0
vt 0.1129032224416733 0.5087716579437256
vt 0.1129032224416733 0
vt 0.1129032224416733 0.5087716579437256
vt 0.2540322542190552 0
vt 0.2540322542190552 0.5087716579437256
vt 0.2540322542190552 0
vt 0.2540322542190552 0.5087716579437256
vt 0.3669354915618897 0
vt 0.3669354915618897 0.5087716579437256
vt 0.3669354915618897 0
vt 0.3669354915618897 0.5087716579437256
vt 0.5080645084381104 0
vt 0.5080645084381104 0.5087716579437256
vt 0.5080645084381104 0
vt 0.5080645084381104 0.5087716579437256
vt 0.6451612710952759 0
vt 0.6451612710952759 0.5087716579437256
vt 0.6451612710952759 0
vt 0.6451612710952759 0.5087716579437256
vt 0.7540322542190552 0
vt 0.7540322542190552 0.5087716579437256
vt 0.7540322542190552 0
vt 0.7540322542190552 0.5087716579437256
vt 0.8911290168762207 0
vt 0.8911290168762207 0.5087716579437256
vt 0.8911290168762207 0
vt 0.8911290168762207 0.5087716579437256
vt 1 0
vt 1 0.5087716579437256
vt 0.1411290317773819 1
vt 0.1411290317773819 0.5087721943855286
vt 0 0.5087721943855286
vt 0 1
vt 0.1391129046678543 0.9912281036376953
vt 0.002016128972172737 0.9912281036376953
vt 0.002016128972172737 0.5175440907478333
vt 0.1391129046678543 0.5175440907478333
vt 0.1411290317773819 0.5087721943855286
vt 0.1411290317773819 1
vt 0 1
vt 0 0.5087721943855286
vt 0.1391129046678543 0.5175440907478333
vt 0.002016128972172737 0.5175440907478333
vt 0.002016128972172737 0.9912281036376953
vt 0.1391129046678543 0.9912281036376953
vn 0 -1 0
vn 0 -1 0
vn 0 -1 0
vn 0 -1 0
vn 1 0 0
vn 1 0 0
vn 1 0 0
vn 1 0 0
vn 0 1 0
vn 0 1 0
vn 0 1 0
vn 0 1 0
vn -1 0 0
vn -1 0 0
vn -1 0 0
vn -1 0 0
vn 1 0 0
vn 1 0 0
vn 1 0 0
vn 1 0 0
vn 0 -1 0
vn 0 -1 0
vn 0 -1 0
vn 0 -1 0
vn -1 0 0
vn -1 0 0
vn -1 0 0
vn -1 0 0
vn -3.289549727102112e-17 1 0
vn -3.289549727102112e-17 1 0
vn -3.289549727102112e-17 1 0
vn -3.289549727102112e-17 1 0
vn 0 0 -1
vn 0 0 -1
vn 0 0 -1
vn 0 0 -1
vn 0 0 -1
vn 0 0 -1
vn 0 0 -1
vn 0 0 -1
vn 0 0 1
vn 0 0 1
vn 0 0 1
vn 0 0 1
vn 0 0 1
vn 0 0 1
vn 0 0 1
vn 0 0 1
f 11/25/25 23/27/27 21/28/28 9/26/26
f 23/29/29 24/31/31 22/32/32 21/30/30
f 24/33/33 12/35/35 10/36/36 22/34/34
f 12/37/37 11/39/39 9/40/40 10/38/38
f 15/41/41 16/43/43 14/44/44 13/42/42
f 16/45/45 20/47/47 18/48/48 14/46/46
f 20/49/49 19/51/51 17/52/52 18/50/50
f 19/53/53 15/55/55 13/56/56 17/54/54
f 16/62/62 15/61/61 11/57/57
f 23/58/58 11/57/57 15/61/61
f 20/63/63 16/62/62 12/60/60
f 11/57/57 12/60/60 16/62/62
f 20/63/63 23/58/58 19/64/64
f 15/61/61 19/64/64 23/58/58
f 12/60/60 24/59/59 20/63/63
f 23/58/58 20/63/63 24/59/59
f 14/70/70 9/65/65 13/69/69
f 21/66/66 13/69/69 9/65/65
f 18/71/71 10/68/68 14/70/70
f 9/65/65 14/70/70 10/68/68
f 18/71/71 17/72/72 21/66/66
f 13/69/69 21/66/66 17/72/72
f 10/68/68 18/71/71 22/67/67
f 21/66/66 22/67/67 18/71/71
o object_3
usemtl WhitePlastic
v -30 0 20
v -30 81 20
v -30 0 -30
v -30 81 -30
v -27 10 20
v -27 78 20
v -27 10 -27
v -27 78 -27
v 27 10 20
v 27 78 20
v 27 10 -27
v 27 78 -27
v 30 0 20
v 30 81 20
v 30 0 -30
v 30 81 -30
vt 0 0
vt 0 1
vt 1 0
vt 1 1
vt 0 0
vt 0 1
vt 1 0
vt 1 1
vt 0 0
vt 0 1
vt 1 0
vt 1 1
vt 0 0
vt 0 1
vt 1 0
vt 1 1
vt 0.949999988079071 0.8765432238578796
vt 0.949999988079071 0.03703703731298447
vt 0.05000000074505806 0.03703703731298447
vt 0.05000000074505806 0.8765432238578796
vt 0 0
vt 0 1
vt 1 0
vt 1 1
vt 0 0
vt 0 1
vt 1 0
vt 1 1
vt 0 0.5
vt 0 1
vt 1 0.5
vt 1 1
vt 0 0.5
vt 0 1
vt 1 0.5
vt 1 1
vt 0 0.5
vt 0 1
vt 1 0.5
vt 1 1
vt 0 0.5
vt 0 1
vt 1 0.5
vt 1 1
vt 0 0
vt 0 1
vt 1 0
vt 1 1
vn -1 0 0
vn -1 0 0
vn -1 0 0
vn -1 0 0
vn 0 0 -1
vn 0 0 -1
vn 0 0 -1
vn 0 0 -1
vn 1 0 0
vn 1 0 0
vn 1 0 0
vn 1 0 0
vn 0 0 1
vn 0 0 1
vn 0 0 1
vn 0 0 1
vn 0 0 1
vn 0 0 1
vn 0 0 1
vn 0 0 1
vn 0 1 0
vn 0 1 0
vn 0 1 0
vn 0 1 0
vn 0 -1 0
vn 0 -1 0
vn 0 -1 0
vn 0 -1 0
vn 1 5.551115123125783e-17 0
vn 1 5.551115123125783e-17 0
vn 1 5.551115123125783e-17 0
vn 1 5.551115123125783e-17 0
vn 0 -1 0
vn 0 -1 0
vn 0 -1 0
vn 0 -1 0
vn -1 0 0
vn -1 0 0
vn -1 0 0
vn -1 0 0
vn 2.775557561562891e-17 1 0
vn 2.775557561562891e-17 1 0
vn 2.775557561562891e-17 1 0
vn 2.775557561562891e-17 1 0
vn 0 0 1
vn 0 0 1
vn 0 0 1
vn 0 0 1
f 25/74/74 26/73/73 28/75/75 27/76/76
f 27/78/78 28/77/77 40/79/79 39/80/80
f 39/82/82 40/81/81 38/83/83 37/84/84
f 34/91/91 33/92/92 37/86/86 38/85/85
f 30/90/90 34/91/91 38/85/85 26/87/87
f 33/92/92 29/89/89 25/88/88 37/86/86
f 29/89/89 30/90/90 26/87/87 25/88/88
f 40/94/94 28/96/96 26/95/95 38/93/93
f 39/98/98 37/97/97 25/99/99 27/100/100
f 31/102/102 32/104/104 30/103/103 29/101/101
f 32/106/106 36/108/108 34/107/107 30/105/105
f 36/110/110 35/112/112 33/111/111 34/109/109
f 35/114/114 31/116/116 29/115/115 33/113/113
f 36/118/118 32/120/120 31/119/119 35/117/117
g Dishwasher__Door
o object_4
usemtl WhitePlastic
v -30 8 28
v -30 81 28
v -30 8 22
v -30 81 22
v -7 60.875 28
v -7 65.875 28
v -7 69 28
v -7 77 28
v -7 64 23
v -7 69 23
v 7 60.875 28
v 7 65.875 28
v 7 69 28
v 7 77 28
v 7 64 23
v 7 69 23
v 30 8 28
v 30 81 28
v 30 8 22
v 30 81 22
vt 0 0
vt 0 1
vt 1 0
vt 1 1
vt 0 0
vt 0 1
vt 1 0
vt 1 1
vt 0 0
vt 0 1
vt 1 0
vt 1 1
vt 0 0
vt 0 1
vt 1 0
vt 1 1
vt 0.6166666746139526 0.2071917802095413
vt 0.3833333253860474 0.2071917802095413
vt 0.3833333253860474 0.2756849229335785
vt 0.6166666746139526 0.2756849229335785
vt 0.3833333253860474 0.1643835604190826
vt 0.6166666746139526 0.1643835604190826
vt 0.6166666746139526 0.05479452013969421
vt 0.3833333253860474 0.05479452013969421
vt 0 0
vt 0 1
vt 1 0
vt 1 1
vt 0 0
vt 0 1
vt 1 0
vt 1 1
vt 0 0
vt 0 1
vt 1 0
vt 1 1
vt 0 0
vt 0 1
vt 0.625 0
vt 0.625 1
vt 0.375 0
vt 0.375 1
vt 1 0
vt 1 1
vt 0.1000000014901161 0.5
vt 0.1000000014901161 0.1000000014901161
vt 0.6000000238418579 0.3499999940395355
vt 0.6000000238418579 0.75
vt 0.1000000014901161 0.5
vt 0.1000000014901161 0.1000000014901161
vt 0.6000000238418579 0.3499999940395355
vt 0.6000000238418579 0.75
vn -1 0 0
vn -1 0 0
vn -1 0 0
vn -1 0 0
vn 0 0 -1
vn 0 0 -1
vn 0 0 -1
vn 0 0 -1
vn 1 0 0
vn 1 0 0
vn 1 0 0
vn 1 0 0
vn 0 0 1
vn 0 0 1
vn 0 0 1
vn 0 0 1
vn 2.775557561562891e-17 0 1
vn 2.775557561562891e-17 0 1
vn 0 0 1
vn 0 0 1
vn -1.387778780781446e-17 0 1
vn -1.387778780781446e-17 0 1
vn 1.040834085586084e-17 0 1
vn 1.040834085586084e-17 0 1
vn 0 1 0
vn 0 1 0
vn 0 1 0
vn 0 1 0
vn 0 -1 0
vn 0 -1 0
vn 0 -1 0
vn 0 -1 0
vn 0 0 1
vn 0 0 1
vn 0 0 1
vn 0 0 1
vn 0 -0.847998321056366 -0.5299989581108093
vn 0 -0.847998321056366 -0.5299989581108093
vn 0 -0.847998321056366 -0.5299989581108093
vn 0 -0.847998321056366 -0.5299989581108093
vn 0 0.847998321056366 0.5299989581108093
vn 0 0.847998321056366 0.5299989581108093
vn 0 0.847998321056366 0.5299989581108093
vn 0 0.847998321056366 0.5299989581108093
vn 1 0 0
vn 1 0 0
vn 1 0 0
vn 1 0 0
vn -1 0 0
vn -1 0 0
vn -1 0 0
vn -1 0 0
f 41/122/122 42/121/121 44/123/123 43/124/124
f 43/126/126 44/125/125 60/127/127 59/128/128
f 59/130/130 60/129/129 58/131/131 57/132/132
f 53/141/141 58/133/133 54/144/144
f 58/133/133 42/135/135 48/143/143 54/144/144
f 52/138/138 58/133/133 53/141/141
f 57/134/134 58/133/133 51/139/139
f 52/138/138 51/139/139 58/133/133
f 41/136/136 57/134/134 51/139/139 45/140/140
f 52/138/138 53/141/141 47/142/142 46/137/137
f 47/142/142 48/143/143 42/135/135
f 46/137/137 47/142/142 42/135/135
f 46/137/137 42/135/135 45/140/140
f 41/136/136 45/140/140 42/135/135
f 60/146/146 44/148/148 42/147/147 58/145/145
f 59/150/150 57/149/149 41/151/151 43/152/152
f 55/154/154 56/156/156 50/155/155 49/153/153
f 56/158/158 52/160/160 46/159/159 50/157/157
f 51/162/162 55/164/164 49/163/163 45/161/161
f 46/167/167 49/165/165 50/166/166
f 49/165/165 46/167/167 45/168/168
f 52/171/171 56/170/170 55/169/169
f 55/169/169 51/172/172 52/171/171
o object_5
usemtl BlueScreenEmissive
v -7 69 28
v -7 77 28
v 7 69 28
v 7 77 28
vt 0.3833333253860474 0.04938271641731262
vt 0.3833333253860474 0.1481481492519379
vt 0.6166666746139526 0.04938271641731262
vt 0.6166666746139526 0.1481481492519379
vn 1.387778780781446e-17 0 1
vn -1.387778780781446e-17 0 1
vn 1.387778780781446e-17 0 1
vn -1.387778780781446e-17 0 1
f 63/174/174 64/173/173 62/175/175 61/176/176
