# Rhino

mtllib FanDesk.mtl
g FanDesk__Body
o object_1
usemtl CoalPlastic
v -0.8660253882408142 26.5 1
v -0.8660253882408142 26.5 -4
v 0 25 1
v 0 25 -4
v 0.8660253882408142 26.5 1
v 0.8660253882408142 26.5 -4
vt 0 0
vt 0 0.8124993443489075
vt 0.3333333432674408 0
vt 0.3333333432674408 0.8124993443489075
vt 0.3333333432674408 0
vt 0.3333333432674408 0.8124993443489075
vt 0.6666666865348816 0
vt 0.6666666865348816 0.8124993443489075
vt 0.6666666865348816 0
vt 0.6666666865348816 0.8124993443489075
vt 1 0
vt 1 0.8124993443489075
vt 0.1666666716337204 1
vt 0.3333333432674408 0.8125001788139343
vt 0 0.8125001788139343
vt 0.1666666716337204 0.8125001788139343
vt 0.3333333432674408 1
vt 0 1
vn 0.8660253882408142 -0.5 0
vn 0.8660253882408142 -0.5 0
vn 0.8660253882408142 -0.5 0
vn 0.8660253882408142 -0.5 0
vn 0 1 0
vn 0 1 0
vn 0 1 0
vn 0 1 0
vn -0.8660253882408142 -0.5 0
vn -0.8660253882408142 -0.5 0
vn -0.8660253882408142 -0.5 0
vn -0.8660253882408142 -0.5 0
vn 0 0 -1
vn 0 0 -1
vn 0 0 -1
vn 0 0 1
vn 0 0 1
vn 0 0 1
f 4/1/1 6/3/3 5/4/4 3/2/2
f 6/5/5 2/7/7 1/8/8 5/6/6
f 2/9/9 4/11/11 3/12/12 1/10/10
f 6/14/14 4/13/13 2/15/15
f 5/17/17 1/18/18 3/16/16
o object_2
usemtl WhitePlastic
v 0 26 -3
v 0 46 -3
v 0 26 -3.349999904632568
v 0 46 -3.349999904632568
v 4 42 -3
v 4 42 -3.349999904632568
v 6 30 -3
v 6 30 -3.349999904632568
vt 0 0
vt 0 0.5141697525978088
vt 0.4441139996051788 0
vt 0.4441139996051788 0.5141697525978088
vt 0.4441139996051788 0
vt 0.4441139996051788 0.5141697525978088
vt 0.569728434085846 0
vt 0.569728434085846 0.5141697525978088
vt 0.569728434085846 0
vt 0.569728434085846 0.5141697525978088
vt 0.839872419834137 0
vt 0.839872419834137 0.5141697525978088
vt 0.839872419834137 0
vt 0.839872419834137 0.5141697525978088
vt 1 0
vt 1 0.5141697525978088
vt 0 1
vt 0.4441139996051788 1
vt 0.3552912175655365 0.6761135458946228
vt 0.08882280439138413 0.5141702890396118
vt 0.5558859705924988 0.5141702890396118
vt 1 0.5141702890396118
vt 0.9111772179603577 0.838056743144989
vt 0.6447088122367859 1
vn -1 0 0
vn -1 0 0
vn -1 0 0
vn -1 0 0
vn 0.7071067690849304 0.7071067690849304 0
vn 0.7071067690849304 0.7071067690849304 0
vn 0.7071067690849304 0.7071067690849304 0
vn 0.7071067690849304 0.7071067690849304 0
vn 0.986393928527832 0.1643989831209183 0
vn 0.986393928527832 0.1643989831209183 0
vn 0.986393928527832 0.1643989831209183 0
vn 0.986393928527832 0.1643989831209183 0
vn 0.5547001957893372 -0.8320503234863281 0
vn 0.5547001957893372 -0.8320503234863281 0
vn 0.5547001957893372 -0.8320503234863281 0
vn 0.5547001957893372 -0.8320503234863281 0
vn 0 0 1
vn 0 0 1
vn 0 0 1
vn 0 0 1
vn 0 0 -1
vn 0 0 -1
vn 0 0 -1
vn 0 0 -1
f 7/19/19 8/21/21 10/22/22 9/20/20
f 8/23/23 11/25/25 12/26/26 10/24/24
f 11/27/27 13/29/29 14/30/30 12/28/28
f 13/31/31 7/33/33 9/34/34 14/32/32
f 11/37/37 8/36/36 7/35/35
f 7/35/35 13/38/38 11/37/37
f 12/41/41 9/39/39 10/40/40
f 9/39/39 12/41/41 14/42/42
o object_3
usemtl WhitePlastic
v -17.32050895690918 16 -3
v -17.32050895690918 16 -3.349999904632568
v -15.85640621185303 21.46410179138184 -3
v -15.85640621185303 21.46410179138184 -3.349999904632568
v -6.464101791381836 29.19615173339844 -3
v -6.464101791381836 29.19615173339844 -3.349999904632568
v 0 26 -3
v 0 26 -3.349999904632568
vt 0 0
vt 0 0.5141697525978088
vt 0.4441139996051788 0
vt 0.4441139996051788 0.5141697525978088
vt 0.4441139996051788 0
vt 0.4441139996051788 0.5141697525978088
vt 0.569728434085846 0
vt 0.569728434085846 0.5141697525978088
vt 0.569728434085846 0
vt 0.569728434085846 0.5141697525978088
vt 0.839872419834137 0
vt 0.839872419834137 0.5141697525978088
vt 0.839872419834137 0
vt 0.839872419834137 0.5141697525978088
vt 1 0
vt 1 0.5141697525978088
vt 0 1
vt 0.4441139996051788 1
vt 0.3552912175655365 0.6761135458946228
vt 0.08882280439138413 0.5141702890396118
vt 0.5558859705924988 0.5141702890396118
vt 1 0.5141702890396118
vt 0.9111772179603577 0.838056743144989
vt 0.6447088122367859 1
vn 0.5 -0.8660253882408142 0
vn 0.5 -0.8660253882408142 0
vn 0.5 -0.8660253882408142 0
vn 0.5 -0.8660253882408142 0
vn -0.9659258127212524 0.258819043636322 0
vn -0.9659258127212524 0.258819043636322 0
vn -0.9659258127212524 0.258819043636322 0
vn -0.9659258127212524 0.258819043636322 0
vn -0.6355706453323364 0.7720426917076111 0
vn -0.6355706453323364 0.7720426917076111 0
vn -0.6355706453323364 0.7720426917076111 0
vn -0.6355706453323364 0.7720426917076111 0
vn 0.4432266056537628 0.8964096307754517 0
vn 0.4432266056537628 0.8964096307754517 0
vn 0.4432266056537628 0.8964096307754517 0
vn 0.4432266056537628 0.8964096307754517 0
vn 0 0 1
vn 0 0 1
vn 0 0 1
vn 0 0 1
vn 0 0 -1
vn 0 0 -1
vn 0 0 -1
vn 0 0 -1
f 21/43/43 15/45/45 16/46/46 22/44/44
f 15/47/47 17/49/49 18/50/50 16/48/48
f 17/51/51 19/53/53 20/54/54 18/52/52
f 19/55/55 21/57/57 22/58/58 20/56/56
f 17/61/61 15/60/60 21/59/59
f 21/59/59 19/62/62 17/61/61
f 18/65/65 22/63/63 16/64/64
f 22/63/63 18/65/65 20/66/66
o object_4
usemtl WhitePlastic
v 0 26 -3
v 0 26 -3.349999904632568
v 0.4641016125679016 18.80384826660156 -3
v 0.4641016125679016 18.80384826660156 -3.349999904632568
v 11.85640621185303 14.53589820861816 -3
v 11.85640621185303 14.53589820861816 -3.349999904632568
v 17.32050895690918 16 -3
v 17.32050895690918 16 -3.349999904632568
vt 0 0
vt 0 0.5141697525978088
vt 0.4441139996051788 0
vt 0.4441139996051788 0.5141697525978088
vt 0.4441139996051788 0
vt 0.4441139996051788 0.5141697525978088
vt 0.569728434085846 0
vt 0.569728434085846 0.5141697525978088
vt 0.569728434085846 0
vt 0.569728434085846 0.5141697525978088
vt 0.839872419834137 0
vt 0.839872419834137 0.5141697525978088
vt 0.839872419834137 0
vt 0.839872419834137 0.5141697525978088
vt 1 0
vt 1 0.5141697525978088
vt 0 1
vt 0.4441139996051788 1
vt 0.3552912175655365 0.6761135458946228
vt 0.08882280439138413 0.5141702890396118
vt 0.5558859705924988 0.5141702890396118
vt 1 0.5141702890396118
vt 0.9111772179603577 0.838056743144989
vt 0.6447088122367859 1
vn 0.5 0.8660253882408142 0
vn 0.5 0.8660253882408142 0
vn 0.5 0.8660253882408142 0
vn 0.5 0.8660253882408142 0
vn 0.258819043636322 -0.9659258127212524 0
vn 0.258819043636322 -0.9659258127212524 0
vn 0.258819043636322 -0.9659258127212524 0
vn 0.258819043636322 -0.9659258127212524 0
vn -0.3508232533931732 -0.9364417195320129 0
vn -0.3508232533931732 -0.9364417195320129 0
vn -0.3508232533931732 -0.9364417195320129 0
vn -0.3508232533931732 -0.9364417195320129 0
vn -0.9979267716407776 -0.06435931473970413 0
vn -0.9979267716407776 -0.06435931473970413 0
vn -0.9979267716407776 -0.06435931473970413 0
vn -0.9979267716407776 -0.06435931473970413 0
vn 0 0 1
vn 0 0 1
vn 0 0 1
vn 0 0 1
vn 0 0 -1
vn 0 0 -1
vn 0 0 -1
vn 0 0 -1
f 23/67/67 29/69/69 30/70/70 24/68/68
f 29/71/71 27/73/73 28/74/74 30/72/72
f 27/75/75 25/77/77 26/78/78 28/76/76
f 25/79/79 23/81/81 24/82/82 26/80/80
f 27/85/85 29/84/84 23/83/83
f 23/83/83 25/86/86 27/85/85
f 28/89/89 24/87/87 30/88/88
f 24/87/87 28/89/89 26/90/90
o object_5
usemtl RedPlastic
v -6.928203105926514 0 4
v -2.664693593978882 5 4
v -2.664693593978882 29 4
v -8.198570068723894e-16 5 -0.6153846383094788
v -8.198570068723894e-16 29 -0.6153846383094788
v 0 0 -8
v 2.664693593978882 5 4
v 2.664693593978882 29 4
v 6.928203105926514 0 4
vt 0.009803921915590763 0.009803921915590763
vt 0.9901960492134094 0.009803921915590763
vt 0.5 0.9901960492134094
vt 0.9901960492134094 0.9901960492134094
vt 0.009803921915590763 0.9901960492134094
vt 0.5 0.009803921915590763
vt 0 0
vt 0 1
vt 1 0
vt 1 1
vt 0 0
vt 0 1
vt 1 0
vt 1 1
vt 0 0
vt 0 1
vt 1 0
vt 1 1
vt 0 0
vt 0 1
vt 1 0
vt 1 1
vt 0 0
vt 0 1
vt 1 0
vt 1 1
vt 0 0
vt 0 1
vt 1 0
vt 1 1
vn 0 1 0
vn 0 1 0
vn 0 1 0
vn 0 -1 0
vn 0 -1 0
vn 0 -1 0
vn 0.6966596245765686 0.5940430164337158 -0.4022166430950165
vn 0.6966596245765686 0.5940430164337158 -0.4022166430950165
vn 0.6966596245765686 0.5940430164337158 -0.4022166430950165
vn 0.6966596245765686 0.5940430164337158 -0.4022166430950165
vn 0.8660253882408142 0 -0.5
vn 0.8660253882408142 0 -0.5
vn 0.8660253882408142 0 -0.5
vn 0.8660253882408142 0 -0.5
vn -0.6966596245765686 0.5940430164337158 -0.4022166430950165
vn -0.6966596245765686 0.5940430164337158 -0.4022166430950165
vn -0.6966596245765686 0.5940430164337158 -0.4022166430950165
vn -0.6966596245765686 0.5940430164337158 -0.4022166430950165
vn -3.885780586188048e-16 -6.470202780922842e-17 1
vn -3.885780586188048e-16 -3.430879490457207e-17 1
vn -2.886579758146289e-16 -1.499040661219136e-16 1
vn -2.886579758146289e-16 5.089324340811314e-17 1
vn -0.8660253882408142 0 -0.5
vn -0.8660253882408142 0 -0.5
vn -0.8660253882408142 0 -0.5
vn -0.8660253882408142 0 -0.5
vn -2.886579758146289e-16 0 1
vn -2.886579758146289e-16 0 1
vn -2.886579758146289e-16 0 1
vn -2.886579758146289e-16 0 1
f 35/93/93 33/91/91 38/92/92
f 39/94/94 31/95/95 36/96/96
f 36/98/98 34/100/100 37/99/99 39/97/97
f 34/102/102 35/104/104 38/103/103 37/101/101
f 31/106/106 32/108/108 34/107/107 36/105/105
f 39/110/110 37/112/112 32/111/111 31/109/109
f 32/114/114 33/116/116 35/115/115 34/113/113
f 37/118/118 38/120/120 33/119/119 32/117/117
