# Blender v2.77 (sub 0) OBJ File: 'Fire_Extinguisher.blend'
# www.blender.org
mtllib Fire_Extinguisher.mtl
o Cube_Cube.002
v -0.069344 0.019946 0.000014
v -0.066361 0.019879 -0.005153
v -0.060396 0.019747 -0.005153
v -0.057413 0.019681 0.000014
v -0.060396 0.019747 0.005182
v -0.066361 0.019879 0.005182
v -0.069829 0.002319 0.000014
v -0.066846 0.002253 -0.005153
v -0.060881 0.002121 -0.005153
v -0.057898 0.002055 0.000014
v -0.060881 0.002121 0.005182
v -0.066846 0.002253 0.005182
v -0.029718 0.232283 0.000014
v -0.002344 0.232283 0.000014
v -0.029718 0.229300 -0.005153
v -0.002344 0.229300 -0.005153
v -0.029718 0.223333 -0.005153
v -0.002344 0.223333 -0.005153
v -0.029718 0.220350 0.000014
v -0.002344 0.220350 0.000014
v -0.029718 0.223333 0.005182
v -0.002344 0.223333 0.005182
v -0.029718 0.229300 0.005182
v -0.002344 0.229300 0.005182
v -0.047244 0.225365 0.000014
v -0.045610 0.222869 -0.005153
v -0.042343 0.217876 -0.005153
v -0.040709 0.215380 0.000014
v -0.042343 0.217876 0.005182
v -0.045610 0.222869 0.005182
v -0.061012 0.212202 0.000014
v -0.058428 0.210711 -0.005153
v -0.053260 0.207729 -0.005153
v -0.050676 0.206238 0.000014
v -0.053260 0.207729 0.005182
v -0.058428 0.210711 0.005182
v -0.064543 0.201166 0.000014
v -0.061602 0.200664 -0.005153
v -0.055720 0.199661 -0.005153
v -0.052779 0.199159 0.000014
v -0.055720 0.199661 0.005182
v -0.061602 0.200664 0.005182
v -0.065494 0.179012 0.000014
v -0.062553 0.178510 -0.005153
v -0.056671 0.177507 -0.005153
v -0.053730 0.177005 0.000014
v -0.056671 0.177507 0.005182
v -0.062553 0.178510 0.005182
v -0.065577 0.178141 0.000014
v -0.062594 0.178075 -0.005153
v -0.056629 0.177942 -0.005153
v -0.053646 0.177876 0.000014
v -0.056629 0.177942 0.005182
v -0.062594 0.178075 0.005182
v -0.069344 0.019946 0.000014
v -0.066361 0.019879 -0.005153
v -0.060396 0.019747 -0.005153
v -0.057413 0.019681 0.000014
v -0.060396 0.019747 0.005182
v -0.066361 0.019879 0.005182
v -0.009160 0.231632 0.009771
v -0.008401 0.238108 0.009771
v -0.009160 0.231632 -0.009897
v -0.008401 0.238108 -0.009897
v 0.063970 0.254900 0.009771
v 0.061881 0.261076 0.009771
v 0.063970 0.254900 -0.009897
v 0.061881 0.261076 -0.009897
v -0.005785 0.230635 0.008535
v -0.005785 0.237155 0.008535
v -0.005785 0.230635 -0.009192
v -0.005785 0.237155 -0.009192
v 0.066382 0.230635 0.008535
v 0.066382 0.237155 0.008535
v 0.066382 0.230635 -0.009192
v 0.066382 0.237155 -0.009192
v 0.003079 0.234314 -0.013338
v 0.003079 0.234314 0.014036
v 0.008246 0.231330 -0.013338
v 0.008246 0.231330 0.014036
v 0.008246 0.225363 -0.013338
v 0.008246 0.225363 0.014036
v 0.003079 0.222380 -0.013338
v 0.003079 0.222380 0.014036
v -0.002089 0.225363 -0.013338
v -0.002089 0.225363 0.014036
v -0.002089 0.231330 -0.013338
v -0.002089 0.231330 0.014036
v 0.010195 0.208647 -0.004437
v 0.003079 0.208647 -0.008546
v 0.010195 0.208647 0.003780
v 0.003079 0.208647 0.007889
v -0.004038 0.208647 0.003780
v -0.004038 0.208647 -0.004437
v 0.010195 0.220711 -0.004437
v 0.003079 0.220711 -0.008546
v 0.010195 0.220711 0.003780
v 0.003079 0.220711 0.007889
v -0.004038 0.220711 0.003780
v -0.004038 0.220711 -0.004437
v 0.003079 0.000849 -0.037422
v 0.003079 0.193737 -0.037422
v 0.035203 0.000849 -0.018875
v 0.035203 0.193737 -0.018875
v 0.035203 0.000849 0.018218
v 0.035203 0.193737 0.018218
v 0.003079 0.000849 0.036765
v 0.003079 0.193737 0.036765
v -0.029046 0.000849 0.018218
v -0.029046 0.193737 0.018218
v -0.029046 0.000849 -0.018875
v -0.029046 0.193737 -0.018875
v 0.010195 0.208647 -0.004437
v 0.003079 0.208647 -0.008546
v 0.010195 0.208647 0.003780
v 0.003079 0.208647 0.007889
v -0.004038 0.208647 0.003780
v -0.004038 0.208647 -0.004437
v -0.005785 0.219132 0.008535
v -0.005785 0.236859 0.008535
v -0.005785 0.219132 -0.009192
v -0.005785 0.236859 -0.009192
v 0.011942 0.219132 0.008535
v 0.011942 0.236859 0.008535
v 0.011942 0.219132 -0.009192
v 0.011942 0.236859 -0.009192
vn 0.8657 -0.0238 -0.5000
vn -0.0222 -0.9998 0.0000
vn -0.8657 0.0238 -0.5000
vn -0.8657 0.0238 0.5000
vn 0.8657 -0.0238 0.5000
vn -0.0000 0.0000 -1.0000
vn -0.0000 0.0000 1.0000
vn -0.5000 -0.0000 -0.8660
vn 0.0000 1.0000 0.0000
vn -0.5000 -0.0000 0.8660
vn 1.0000 0.0000 0.0000
vn -1.0000 -0.0000 0.0000
vn 0.5000 0.0000 0.8660
vn 0.5000 0.0000 -0.8660
vn 0.0000 -1.0000 0.0000
vn 0.0000 0.8660 -0.5000
vn 0.0000 -0.8660 -0.5000
vn -0.0000 -0.8660 0.5000
vn -0.0000 0.8660 0.5000
vn -0.3249 0.8133 -0.4826
vn 0.3541 -0.8019 -0.4812
vn -0.3249 0.8133 0.4826
vn 0.3541 -0.8019 0.4812
vn -0.8287 0.2635 -0.4938
vn 0.5919 -0.6409 -0.4888
vn -0.6015 0.6316 -0.4892
vn -0.6015 0.6316 0.4892
vn 0.5919 -0.6409 0.4888
vn -0.8287 0.2635 0.4938
vn 0.8327 -0.2509 0.4936
vn 0.8327 -0.2509 -0.4936
vn 0.8669 -0.0372 -0.4970
vn -0.8669 0.0372 -0.4970
vn -0.8669 0.0372 0.4970
vn 0.8669 -0.0372 0.4970
vn 0.0222 0.9998 0.0000
vn 0.8658 -0.0206 -0.5000
vn -0.8658 0.0206 -0.5000
vn -0.8658 0.0206 0.5000
vn 0.8658 -0.0206 0.5000
vn -0.9932 0.1165 0.0000
vn 0.9473 0.3203 0.0000
vn 0.3032 -0.9529 0.0000
vn -0.3106 0.9505 0.0000
vn 0.5000 0.8660 0.0000
vn 0.5000 -0.8660 0.0000
vn -0.5000 -0.8660 0.0000
vn -0.5000 0.8660 -0.0000
vn 0.5121 0.8589 0.0000
vn -0.5121 0.8589 0.0000
vn 0.2561 0.8589 -0.4435
vn 0.2561 0.8589 0.4435
vn -0.2561 0.8589 -0.4435
vn -0.2561 0.8589 0.4435
usemtl Fire_etx_metall
s off
f 3//1 4//1 10//1 9//1
f 7//2 8//2 9//2 10//2 11//2 12//2
f 1//3 2//3 8//3 7//3
f 6//4 1//4 7//4 12//4
f 4//5 5//5 11//5 10//5
f 2//6 3//6 9//6 8//6
f 5//7 6//7 12//7 11//7
f 90//8 94//8 100//8 96//8
f 95//9 96//9 100//9 99//9 98//9 97//9
f 93//10 92//10 98//10 99//10
f 91//11 89//11 95//11 97//11
f 94//12 93//12 99//12 100//12
f 92//13 91//13 97//13 98//13
f 89//14 90//14 96//14 95//14
f 120//12 122//12 121//12 119//12
f 122//6 126//6 125//6 121//6
f 126//11 124//11 123//11 125//11
f 124//7 120//7 119//7 123//7
f 119//15 121//15 125//15 123//15
f 124//9 126//9 122//9 120//9
usemtl Fire_ext_plastic
f 13//16 14//16 16//16 15//16
f 15//6 16//6 18//6 17//6
f 17//17 18//17 20//17 19//17
f 19//18 20//18 22//18 21//18
f 16//11 14//11 24//11 22//11 20//11 18//11
f 21//7 22//7 24//7 23//7
f 23//19 24//19 14//19 13//19
f 15//6 17//6 27//6 26//6
f 26//6 27//6 33//6 32//6
f 21//7 23//7 30//7 29//7
f 13//20 15//20 26//20 25//20
f 17//21 19//21 28//21 27//21
f 23//22 13//22 25//22 30//22
f 19//23 21//23 29//23 28//23
f 31//24 32//24 38//24 37//24
f 29//7 30//7 36//7 35//7
f 27//25 28//25 34//25 33//25
f 25//26 26//26 32//26 31//26
f 30//27 25//27 31//27 36//27
f 28//28 29//28 35//28 34//28
f 41//7 42//7 48//7 47//7
f 36//29 31//29 37//29 42//29
f 34//30 35//30 41//30 40//30
f 32//6 33//6 39//6 38//6
f 35//7 36//7 42//7 41//7
f 33//31 34//31 40//31 39//31
f 39//32 40//32 46//32 45//32
f 37//33 38//33 44//33 43//33
f 42//34 37//34 43//34 48//34
f 40//35 41//35 47//35 46//35
f 38//6 39//6 45//6 44//6
f 49//36 54//36 53//36 52//36 51//36 50//36
f 53//7 54//7 60//7 59//7
f 51//37 52//37 58//37 57//37
f 49//38 50//38 56//38 55//38
f 54//39 49//39 55//39 60//39
f 52//40 53//40 59//40 58//40
f 50//6 51//6 57//6 56//6
f 62//41 64//41 63//41 61//41
f 64//6 68//6 67//6 63//6
f 68//42 66//42 65//42 67//42
f 66//7 62//7 61//7 65//7
f 61//43 63//43 67//43 65//43
f 66//44 68//44 64//44 62//44
f 70//12 72//12 71//12 69//12
f 72//6 76//6 75//6 71//6
f 76//11 74//11 73//11 75//11
f 74//7 70//7 69//7 73//7
f 69//15 71//15 75//15 73//15
f 74//9 76//9 72//9 70//9
usemtl Fire_ext_red
f 77//45 78//45 80//45 79//45
f 79//11 80//11 82//11 81//11
f 81//46 82//46 84//46 83//46
f 83//47 84//47 86//47 85//47
f 80//7 78//7 88//7 86//7 84//7 82//7
f 85//12 86//12 88//12 87//12
f 87//48 88//48 78//48 77//48
f 77//6 79//6 81//6 83//6 85//6 87//6
f 101//14 102//14 104//14 103//14
f 103//11 104//11 106//11 105//11
f 105//13 106//13 108//13 107//13
f 107//10 108//10 110//10 109//10
f 106//49 104//49 113//49 115//49
f 109//12 110//12 112//12 111//12
f 111//8 112//8 102//8 101//8
f 101//15 103//15 105//15 107//15 109//15 111//15
f 112//50 110//50 117//50 118//50
f 104//51 102//51 114//51 113//51
f 108//52 106//52 115//52 116//52
f 102//53 112//53 118//53 114//53
f 110//54 108//54 116//54 117//54
