# Rhino

mtllib GlassCup.mtl
g Glass__Body
o object_1
usemtl GlassClear
v -4 2 0
v -4 10 0
v -3.599999904632568 10 0.6928203105926514
v -3.599999904632568 10 -0.6928203105926514
v -3.200000047683716 10 1.385640621185303
v -3.200000047683716 0 0
v -3.200000047683716 2 0
v -3.200000047683716 10 0
v -3.200000047683716 10 -1.385640621185303
v -2.799999952316284 10 2.078460931777954
v -2.799999952316284 10 0.6928203105926514
v -2.799999952316284 10 -0.6928203105926514
v -2.799999952316284 10 -2.078460931777954
v -2.400000095367432 10 2.771281242370606
v -2.400000095367432 10 1.385640621185303
v -2.400000095367432 10 -1.385640621185303
v -2.400000095367432 10 -2.771281242370606
v -2 2 3.464101552963257
v -2 10 3.464101552963257
v -2 10 2.078460931777954
v -2 10 -2.078460931777954
v -2 2 -3.464101552963257
v -2 10 -3.464101552963257
v -1.600000023841858 0 2.771281242370606
v -1.600000023841858 2 2.771281242370606
v -1.600000023841858 10 2.771281242370606
v -1.600000023841858 0 -2.771281242370606
v -1.600000023841858 2 -2.771281242370606
v -1.600000023841858 10 -2.771281242370606
v -1.200000047683716 10 3.464101552963257
v -1.200000047683716 10 -3.464101552963257
v -0.800000011920929 10 2.771281242370606
v -0.800000011920929 10 -2.771281242370606
v -0.4000000059604645 10 3.464101552963257
v -0.4000000059604645 10 -3.464101552963257
v -1.776356839400251e-15 10 2.771281242370606
v 6.661338147750939e-16 10 -2.771281242370606
v 0.4000000059604645 10 3.464101552963257
v 0.4000000059604645 10 -3.464101552963257
v 0.800000011920929 10 2.771281242370606
v 0.800000011920929 10 -2.771281242370606
v 1.200000047683716 10 3.464101552963257
v 1.200000047683716 10 -3.464101552963257
v 1.600000023841858 0 2.771281242370606
v 1.600000023841858 2 2.771281242370606
v 1.600000023841858 10 2.771281242370606
v 1.600000023841858 0 -2.771281242370606
v 1.600000023841858 2 -2.771281242370606
v 1.600000023841858 10 -2.771281242370606
v 2 2 3.464101552963257
v 2 10 3.464101552963257
v 2 10 2.078460931777954
v 2 10 -2.078460931777954
v 2 2 -3.464101552963257
v 2 10 -3.464101552963257
v 2.400000095367432 10 2.771281242370606
v 2.400000095367432 10 1.385640621185303
v 2.400000095367432 10 -1.385640621185303
v 2.400000095367432 10 -2.771281242370606
v 2.799999952316284 10 2.078460931777954
v 2.799999952316284 10 0.6928203105926514
v 2.799999952316284 10 -0.6928203105926514
v 2.799999952316284 10 -2.078460931777954
v 3.200000047683716 10 1.385640621185303
v 3.200000047683716 0 0
v 3.200000047683716 2 0
v 3.200000047683716 10 0
v 3.200000047683716 10 -1.385640621185303
v 3.599999904632568 10 0.6928203105926514
v 3.599999904632568 10 -0.6928203105926514
v 4 2 0
v 4 10 0
vt 0 0
vt 0 1
vt 1 0
vt 1 1
vt 1 0.2000000029802322
vt 1 0.4000000059604645
vt 1 0.6000000238418579
vt 1 0.800000011920929
vt 0 0
vt 0 1
vt 1 0
vt 1 1
vt 1 0.2000000029802322
vt 1 0.4000000059604645
vt 1 0.6000000238418579
vt 1 0.800000011920929
vt 0 0
vt 0 1
vt 1 0
vt 1 1
vt 1 0.2000000029802322
vt 1 0.4000000059604645
vt 1 0.6000000238418579
vt 1 0.800000011920929
vt 0 0
vt 0 1
vt 1 0
vt 1 1
vt 1 0.2000000029802322
vt 1 0.4000000059604645
vt 1 0.6000000238418579
vt 1 0.800000011920929
vt 0 0
vt 0 1
vt 1 0
vt 1 1
vt 1 0.2000000029802322
vt 1 0.4000000059604645
vt 1 0.6000000238418579
vt 1 0.800000011920929
vt 0 0
vt 0 1
vt 1 0
vt 1 1
vt 0 0
vt 0 1
vt 1 0
vt 1 1
vt 0 0
vt 0 1
vt 1 0
vt 1 1
vt 0 0
vt 0 1
vt 1 0
vt 1 1
vt 0 0
vt 0 1
vt 1 0
vt 1 1
vt 0 0
vt 0 1
vt 1 0
vt 1 1
vt 1 0.2000000029802322
vt 1 0.4000000059604645
vt 1 0.6000000238418579
vt 1 0.800000011920929
vt 0 0
vt 0 1
vt 1 0
vt 1 1
vt 0.7450980544090271 0.9901960492134094
vt 0.2549019753932953 0.9901960492134094
vt 0.009803921915590763 0.5
vt 0.2549019753932953 0.009803921915590763
vt 0.7450980544090271 0.009803921915590763
vt 0.9901960492134094 0.5
vt 0.7075530290603638 0.9166666865348816
vt 0.6239076256752014 0.9166666865348816
vt 0.5402621626853943 0.9166666865348816
vt 0.4566167294979096 0.9166666865348816
vt 0.3729712963104248 0.9166666865348816
vt 0.2893258333206177 0.9166666865348816
vt 0.2475031167268753 0.8333333134651184
vt 0.2056804001331329 0.75
vt 0.1638576835393906 0.6666666865348816
vt 0.1220349594950676 0.5833333134651184
vt 0.08021223545074463 0.5
vt 0.1220349594950676 0.4166666567325592
vt 0.1638576835393906 0.3333333432674408
vt 0.2056804001331329 0.25
vt 0.2475031167268753 0.1666666716337204
vt 0.2893258333206177 0.0833333358168602
vt 0.3729712963104248 0.0833333358168602
vt 0.4566167294979096 0.0833333358168602
vt 0.5402621626853943 0.0833333358168602
vt 0.6239076256752014 0.0833333358168602
vt 0.7075530290603638 0.0833333358168602
vt 0.7493757605552673 0.1666666716337204
vt 0.7911984920501709 0.25
vt 0.8330212235450745 0.3333333432674408
vt 0.874843955039978 0.4166666567325592
vt 0.9166666865348816 0.5
vt 0.874843955039978 0.5833333134651184
vt 0.8330212235450745 0.6666666865348816
vt 0.7911984920501709 0.75
vt 0.7493757605552673 0.8333333134651184
vt 0.665730357170105 0.1666666716337204
vt 0.5820848941802979 0.1666666716337204
vt 0.4984394609928131 0.1666666716337204
vt 0.414793998003006 0.1666666716337204
vt 0.3311485648155212 0.1666666716337204
vt 0.3311485648155212 0.8333333134651184
vt 0.414793998003006 0.8333333134651184
vt 0.4984394609928131 0.8333333134651184
vt 0.5820848941802979 0.8333333134651184
vt 0.665730357170105 0.8333333134651184
vt 0.1638576835393906 0.5
vt 0.2056804001331329 0.5833333134651184
vt 0.2475031167268753 0.6666666865348816
vt 0.2893258333206177 0.75
vt 0.2893258333206177 0.25
vt 0.2475031167268753 0.3333333432674408
vt 0.2056804001331329 0.4166666567325592
vt 0.8330212235450745 0.5
vt 0.7911984920501709 0.4166666567325592
vt 0.7493757605552673 0.3333333432674408
vt 0.7075530290603638 0.25
vt 0.7075530290603638 0.75
vt 0.7493757605552673 0.6666666865348816
vt 0.7911984920501709 0.5833333134651184
vt 0 0
vt 0 1
vt 1 0
vt 1 1
vt 1 0.25
vt 1 0.5
vt 1 0.75
vt 0 0
vt 0 1
vt 1 0
vt 1 0.5
vt 1 1
vt 1 0.25
vt 1 0.75
vt 0 0
vt 0 1
vt 1 0
vt 1 1
vt 1 0.25
vt 1 0.5
vt 1 0.75
vt 0 0
vt 0 1
vt 1 0
vt 1 1
vt 1 0.25
vt 1 0.5
vt 1 0.75
vt 0 0
vt 0 1
vt 1 0
vt 1 1
vt 1 0.25
vt 1 0.5
vt 1 0.75
vt 0 0
vt 0 1
vt 1 0
vt 1 1
vt 1 0.25
vt 1 0.5
vt 1 0.75
vt 0.7450980544090271 0.9901960492134094
vt 0.2549019753932953 0.9901960492134094
vt 0.009803921915590763 0.5
vt 0.2549019753932953 0.009803921915590763
vt 0.7450980544090271 0.009803921915590763
vt 0.9901960492134094 0.5
vn 0 0 -1
vn 0 0 -1
vn 0 0 -1
vn 0 0 -1
vn 0 -2.775557561562891e-17 -1
vn 0 2.775557561562891e-17 -1
vn 0 0 -1
vn 0 0 -1
vn -0.8660253882408142 0 -0.5
vn -0.8660253882408142 0 -0.5
vn -0.8660253882408142 0 -0.5
vn -0.8660253882408142 0 -0.5
vn -0.8660253882408142 0 -0.5
vn -0.8660253882408142 0 -0.5
vn -0.8660253882408142 2.403703314837231e-17 -0.5
vn -0.8660253882408142 0 -0.5
vn -0.8660253882408142 0 0.5
vn -0.8660253882408142 0 0.5
vn -0.8660253882408142 0 0.5
vn -0.8660253882408142 0 0.5
vn -0.8660253882408142 -1.201851657418615e-17 0.5
vn -0.8660253882408142 0 0.5
vn -0.8660253882408142 0 0.5
vn -0.8660253882408142 0 0.5
vn -8.881784197001252e-16 0 1
vn -8.881784197001252e-16 0 1
vn -8.881784197001252e-16 0 1
vn -8.881784197001252e-16 0 1
vn -8.881784197001252e-16 -6.162975822039155e-33 1
vn -8.881784197001252e-16 0 1
vn -8.881784197001252e-16 0 1
vn -8.881784197001252e-16 0 1
vn 0.8660253882408142 0 0.5
vn 0.8660253882408142 0 0.5
vn 0.8660253882408142 0 0.5
vn 0.8660253882408142 0 0.5
vn 0.8660253882408142 0 0.5
vn 0.8660253882408142 0 0.5
vn 0.8660253882408142 -2.403703314837231e-17 0.5
vn 0.8660253882408142 -2.403703314837231e-17 0.5
vn 0 -0.3273268342018127 -0.9449111819267273
vn 0 -0.3273268342018127 -0.9449111819267273
vn 0 -0.3273268342018127 -0.9449111819267273
vn 0 -0.3273268342018127 -0.9449111819267273
vn -0.8183171153068543 -0.3273268342018127 -0.4724555909633637
vn -0.8183171153068543 -0.3273268342018127 -0.4724555909633637
vn -0.8183171153068543 -0.3273268342018127 -0.4724555909633637
vn -0.8183171153068543 -0.3273268342018127 -0.4724555909633637
vn -0.8183171153068543 -0.3273268342018127 0.4724555909633637
vn -0.8183171153068543 -0.3273268342018127 0.4724555909633637
vn -0.8183171153068543 -0.3273268342018127 0.4724555909633637
vn -0.8183171153068543 -0.3273268342018127 0.4724555909633637
vn 0 -0.3273268342018127 0.9449111819267273
vn 0 -0.3273268342018127 0.9449111819267273
vn -8.392497203206582e-16 -0.3273268342018127 0.9449111819267273
vn -8.392497203206582e-16 -0.3273268342018127 0.9449111819267273
vn 0.8183171153068543 -0.3273268342018127 0.4724555909633637
vn 0.8183171153068543 -0.3273268342018127 0.4724555909633637
vn 0.8183171153068543 -0.3273268342018127 0.4724555909633637
vn 0.8183171153068543 -0.3273268342018127 0.4724555909633637
vn 0.8660253882408142 0 -0.5
vn 0.8660253882408142 0 -0.5
vn 0.8660253882408142 0 -0.5
vn 0.8660253882408142 0 -0.5
vn 0.8660253882408142 0 -0.5
vn 0.8660253882408142 0 -0.5
vn 0.8660253882408142 0 -0.5
vn 0.8660253882408142 0 -0.5
vn 0.8183171153068543 -0.3273268342018127 -0.4724555909633637
vn 0.8183171153068543 -0.3273268342018127 -0.4724555909633637
vn 0.8183171153068543 -0.3273268342018127 -0.4724555909633637
vn 0.8183171153068543 -0.3273268342018127 -0.4724555909633637
vn 0 -1 0
vn 0 -1 0
vn 0 -1 0
vn 0 -1 0
vn 0 -1 0
vn 0 -1 0
vn -1.110223024625157e-15 1 -4.218847493575595e-15
vn -2.442490654175344e-15 1 -4.662936703425658e-15
vn -3.774758283725532e-15 1 -4.440892098500626e-15
vn -3.774758283725532e-15 1 -4.551914400963142e-15
vn -3.608224830031759e-15 1 -3.219646771412954e-15
vn -3.025357742103552e-15 1 -3.080868893334809e-15
vn -3.663735981263017e-15 1 -1.984523656517467e-15
vn -3.747002708109903e-15 1 -1.384309333829492e-15
vn -4.326400349086157e-15 1 -1.985391018255456e-15
vn -3.625572064791527e-15 1 -2.469812548921979e-15
vn -2.217843964036348e-15 1 -4.229418464757329e-15
vn -1.098079960293319e-15 1 -4.520906218830056e-15
vn 6.38378239159465e-16 1 -3.850869276234015e-15
vn 3.584372382237078e-15 1 -2.732189474663471e-15
vn 6.506947758389003e-15 1 -1.660347206944302e-15
vn 8.254844290761509e-15 1 -2.978303367817681e-16
vn 5.628364527915375e-15 1 2.739562049436373e-15
vn 3.413393699636114e-15 1 4.247470430929212e-15
vn 1.567322660545045e-15 1 4.912736883966318e-15
vn -3.382710778154774e-16 1 4.924879948298155e-15
vn -2.157345482811657e-15 1 4.387115670745345e-15
vn -1.330532906074211e-15 1 4.905797990062411e-15
vn -6.973588373426765e-16 1 4.107825191113079e-15
vn -3.191891195797325e-16 1 3.33066907387547e-15
vn 1.609823385706477e-15 1 2.831068712794149e-15
vn 3.608224830031759e-15 1 1.443289932012704e-15
vn 3.719247132494274e-15 1 1.776356839400251e-15
vn 3.552713678800501e-15 1 1.221245327087672e-15
vn 1.887379141862766e-15 1 -1.362017656670653e-30
vn 4.440892098500626e-16 1 -1.110223024625157e-15
vn -8.36136715420821e-16 1 5.249273238305818e-15
vn 6.349087922075114e-16 1 5.30825383648903e-15
vn 1.992329912159363e-15 1 4.846817391879199e-15
vn 3.028393508186511e-15 1 3.289903072190015e-15
vn 4.405763948112096e-15 1 1.076395916843609e-15
vn -4.496403249731884e-15 1 -2.3037127760972e-15
vn -4.274358644806853e-15 1 -2.609024107869118e-15
vn -3.386180225106727e-15 1 -2.664535259100376e-15
vn -2.886579864025407e-15 1 -2.775557561562891e-15
vn -1.110223024625157e-15 1 -2.331468351712829e-15
vn -2.517083763642347e-15 1 -2.782496455466799e-15
vn -3.622102617839573e-15 1 -1.859623566247137e-15
vn -3.913536161803677e-15 1 -1.665334536937735e-15
vn -4.052314039881821e-15 1 -1.817990202823694e-15
vn 2.559584488803779e-15 1 -1.249000902703301e-16
vn 1.021752127350339e-15 1 -1.10848830114918e-15
vn -9.939965517347105e-16 1 -2.164067536281067e-15
vn 2.164934898019055e-15 1 2.886579864025407e-15
vn 1.137978600240786e-15 1 3.719247132494274e-15
vn 2.914335439641036e-16 1 4.746203430272544e-15
vn -2.8796409701215e-16 1 4.621303340002214e-15
vn 1.110223024625157e-16 1 2.220446049250313e-16
vn 8.881784197001252e-16 1 1.665334536937735e-15
vn 2.275957200481571e-15 1 2.55351295663786e-15
vn 0 0 1
vn 0 0 1
vn 0 0 1
vn 0 0 1
vn 0 1.387778780781446e-17 1
vn 0 0 1
vn 0 0 1
vn 0.8660253882408142 0 0.5
vn 0.8660253882408142 0 0.5
vn 0.8660253882408142 0 0.5
vn 0.8660253882408142 0 0.5
vn 0.8660253882408142 0 0.5
vn 0.8660253882408142 1.201851657418615e-17 0.5
vn 0.8660253882408142 0 0.5
vn 0.8660253882408142 0 -0.5
vn 0.8660253882408142 0 -0.5
vn 0.8660253882408142 0 -0.5
vn 0.8660253882408142 0 -0.5
vn 0.8660253882408142 0 -0.5
vn 0.8660253882408142 2.403703314837231e-17 -0.5
vn 0.8660253882408142 0 -0.5
vn 0 0 -1
vn 0 0 -1
vn 0 0 -1
vn 0 0 -1
vn 0 -1.387778780781446e-17 -1
vn 0 0 -1
vn 0 0 -1
vn -0.8660253882408142 0 -0.5
vn -0.8660253882408142 0 -0.5
vn -0.8660253882408142 0 -0.5
vn -0.8660253882408142 0 -0.5
vn -0.8660253882408142 1.802777444768892e-17 -0.5
vn -0.8660253882408142 -2.403703314837231e-17 -0.5
vn -0.8660253882408142 0 -0.5
vn -0.8660253882408142 0 0.5
vn -0.8660253882408142 0 0.5
vn -0.8660253882408142 0 0.5
vn -0.8660253882408142 0 0.5
vn -0.8660253882408142 1.201851657418615e-17 0.5
vn -0.8660253882408142 0 0.5
vn -0.8660253882408142 4.807406629674461e-17 0.5
vn 0 1 0
vn 0 1 0
vn 0 1 0
vn 0 1 0
vn 0 1 0
vn 0 1 0
f 31/5/5 22/1/1 23/3/3
f 31/5/5 35/6/6 22/1/1
f 54/2/2 22/1/1 35/6/6 39/7/7
f 54/2/2 43/8/8 55/4/4
f 54/2/2 39/7/7 43/8/8
f 4/13/13 1/9/9 2/11/11
f 4/13/13 9/14/14 1/9/9
f 22/10/10 1/9/9 9/14/14 13/15/15
f 22/10/10 17/16/16 23/12/12
f 22/10/10 13/15/15 17/16/16
f 14/21/21 18/17/17 19/19/19
f 14/21/21 10/22/22 18/17/17
f 1/18/18 18/17/17 10/22/22 5/23/23
f 1/18/18 3/24/24 2/20/20
f 1/18/18 5/23/23 3/24/24
f 42/29/29 50/25/25 51/27/27
f 42/29/29 38/30/30 50/25/25
f 18/26/26 50/25/25 38/30/30 34/31/31
f 18/26/26 30/32/32 19/28/28
f 18/26/26 34/31/31 30/32/32
f 69/37/37 71/33/33 72/35/35
f 69/37/37 64/38/38 71/33/33
f 50/34/34 71/33/33 64/38/38 60/39/39
f 50/34/34 56/40/40 51/36/36
f 50/34/34 60/39/39 56/40/40
f 47/42/42 27/41/41 22/43/43 54/44/44
f 27/46/46 6/45/45 1/47/47 22/48/48
f 6/50/50 24/49/49 18/51/51 1/52/52
f 24/54/54 44/53/53 50/55/55 18/56/56
f 44/58/58 65/57/57 71/59/59 50/60/60
f 59/65/65 54/61/61 55/63/63
f 59/65/65 63/66/66 54/61/61
f 71/62/62 54/61/61 63/66/66 68/67/67
f 71/62/62 70/68/68 72/64/64
f 71/62/62 68/67/67 70/68/68
f 65/70/70 47/69/69 54/71/71 71/72/72
f 6/75/75 27/74/74 47/73/73 65/78/78
f 24/76/76 6/75/75 44/77/77
f 44/77/77 6/75/75 65/78/78
f 20/123/123 15/124/124 10/92/92
f 15/124/124 5/91/91 10/92/92
f 3/90/90 5/91/91 11/125/125
f 15/124/124 11/125/125 5/91/91
f 8/119/119 3/90/90 11/125/125
f 20/123/123 10/92/92 14/93/93
f 26/113/113 19/94/94 30/95/95
f 32/112/112 30/95/95 34/96/96
f 26/113/113 20/123/123 14/93/93
f 30/95/95 32/112/112 26/113/113
f 32/112/112 34/96/96 36/111/111
f 36/111/111 34/96/96 38/97/97
f 19/94/94 26/113/113 14/93/93
f 4/88/88 2/89/89 8/119/119
f 3/90/90 8/119/119 2/89/89
f 12/120/120 4/88/88 8/119/119
f 9/87/87 16/121/121 13/86/86
f 17/85/85 13/86/86 21/122/122
f 9/87/87 12/120/120 16/121/121
f 12/120/120 9/87/87 4/88/88
f 17/85/85 21/122/122 29/114/114
f 23/84/84 17/85/85 29/114/114
f 31/83/83 23/84/84 29/114/114
f 35/82/82 31/83/83 29/114/114 33/115/115
f 33/115/115 37/116/116 35/82/82
f 16/121/121 21/122/122 13/86/86
f 40/110/110 38/97/97 42/98/98
f 46/109/109 42/98/98 51/99/99
f 42/98/98 46/109/109 40/110/110
f 46/109/109 56/100/100 52/129/129
f 56/100/100 46/109/109 51/99/99
f 57/128/128 52/129/129 60/101/101
f 64/102/102 57/128/128 60/101/101
f 61/127/127 57/128/128 64/102/102
f 72/104/104 67/126/126 69/103/103
f 61/127/127 69/103/103 67/126/126
f 61/127/127 64/102/102 69/103/103
f 56/100/100 60/101/101 52/129/129
f 59/108/108 55/79/79 49/118/118
f 43/80/80 39/81/81 41/117/117
f 37/116/116 41/117/117 39/81/81
f 49/118/118 43/80/80 41/117/117
f 43/80/80 49/118/118 55/79/79
f 59/108/108 49/118/118 53/130/130
f 35/82/82 37/116/116 39/81/81
f 62/132/132 67/126/126 70/105/105
f 72/104/104 70/105/105 67/126/126
f 68/106/106 62/132/132 70/105/105
f 58/131/131 63/107/107 53/130/130
f 59/108/108 53/130/130 63/107/107
f 58/131/131 68/106/106 63/107/107
f 68/106/106 58/131/131 62/132/132
f 38/97/97 40/110/110 36/111/111
f 48/134/134 37/138/138 33/137/137 28/133/133
f 29/135/135 28/133/133 33/137/137
f 48/134/134 49/136/136 41/139/139
f 48/134/134 41/139/139 37/138/138
f 28/141/141 16/143/143 12/145/145 7/140/140
f 8/142/142 7/140/140 12/145/145
f 28/141/141 29/144/144 21/146/146
f 28/141/141 21/146/146 16/143/143
f 7/148/148 11/153/153 15/152/152 25/147/147
f 26/149/149 25/147/147 20/151/151
f 25/147/147 15/152/152 20/151/151
f 7/148/148 8/150/150 11/153/153
f 36/159/159 45/154/154 25/155/155
f 46/156/156 45/154/154 40/158/158
f 45/154/154 36/159/159 40/158/158
f 25/155/155 26/157/157 32/160/160
f 25/155/155 32/160/160 36/159/159
f 45/162/162 57/166/166 61/165/165 66/161/161
f 67/163/163 66/161/161 61/165/165
f 45/162/162 46/164/164 52/167/167
f 45/162/162 52/167/167 57/166/166
f 58/173/173 48/168/168 66/169/169
f 49/170/170 48/168/168 53/172/172
f 48/168/168 58/173/173 53/172/172
f 66/169/169 67/171/171 62/174/174
f 66/169/169 62/174/174 58/173/173
f 7/177/177 66/180/180 48/175/175 28/176/176
f 25/178/178 45/179/179 7/177/177
f 45/179/179 66/180/180 7/177/177
