# Rhino

mtllib HandDryer.mtl
g Handdryer__Body
o object_1
usemtl CoalPlastic
v -2.598076105117798 7 9.181980133056641
v -2.598076105117798 12.18198013305664 9.181980133056641
v -2.598076105117798 12.18198013305664 3.19605827331543
v -1.29689884185791 10.10272979736328 2.741222143173218
v -1.099615657496471e-16 8.020930290222168 2.285828351974487
v 0 7 6
v 0 9 6
v 1.29689884185791 10.10272979736328 2.741222143173218
v 2.598076105117798 7 9.181980133056641
v 2.598076105117798 12.18198013305664 9.181980133056641
v 2.598076105117798 12.18198013305664 3.19605827331543
vt 0.9901960492134094 0.9901960492134094
vt 0.009803921915590763 0.9901960492134094
vt 0.5 0.009803921915590763
vt 0.5 0.9901960492134094
vt 0.2553055882453919 0.4996996521949768
vt 0.009803921915590763 0.009803921915590763
vt 0.9901960492134094 0.009803921915590763
vt 0.7446944117546082 0.4996996521949768
vt 0.2571656703948975 1
vt 1 0
vt 1 1
vt 0.2642872333526611 0.5008233785629273
vt 0.2684018015861511 0
vt 0 0
vt 0 1
vt 1 0
vt 1 1
vt 0.2571656703948975 0
vt 1 0
vt 1 1
vt 0.2684018015861511 1
vt 0.2642872333526611 0.4991765916347504
vt 0.2684018015861511 0
vt 1 0
vt 1 1
vt 0.2684018015861511 1
vt 0 0
vt 0 1
vt 1 0
vt 1 1
vt 0 0
vt 0 1
vt 1 0
vt 1 1
vn 0 -1 0
vn 0 -1 0
vn 0 -1 0
vn 0 0.2136968821287155 -0.976900041103363
vn 0 0.2136968821287155 -0.976900041103363
vn 0 0.2136968821287155 -0.976900041103363
vn 0 0.2136968821287155 -0.976900041103363
vn 0 0.2136968821287155 -0.976900041103363
vn -0.8265373706817627 -0.5442888736724854 0.143476665019989
vn -0.7745966911315918 -0.6324555277824402 4.29987540646377e-17
vn -0.6572684645652771 -0.7287619709968567 0.1921044886112213
vn -0.8415244817733765 -0.5375277996063232 0.05385541170835495
vn -0.8473845720291138 -0.5309796333312988 4.703929312894283e-17
vn -0.7745966911315918 0 -0.6324555277824402
vn -0.7745966911315918 0 -0.6324555277824402
vn -0.7745966911315918 0 -0.6324555277824402
vn -0.7745966911315918 0 -0.6324555277824402
vn 0.8265373706817627 -0.5442888736724854 0.143476665019989
vn 0.6572684645652771 -0.7287619709968567 0.1921044886112213
vn 0.7745966911315918 -0.6324555277824402 -4.29987540646377e-17
vn 0.8473845720291138 -0.5309796333312988 -4.703929312894283e-17
vn 0.8415244817733765 -0.5375277996063232 0.05385541170835495
vn 0 1 0
vn 0 1 0
vn 0 1 0
vn 0 1 0
vn 0.7745966911315918 0 -0.6324555277824402
vn 0.7745966911315918 0 -0.6324555277824402
vn 0.7745966911315918 0 -0.6324555277824402
vn 0.7745966911315918 0 -0.6324555277824402
vn 0 0 1
vn 0 0 1
vn 0 0 1
vn 0 0 1
f 9/1/1 1/2/2 6/3/3
f 8/8/8 4/5/5 3/6/6
f 4/5/5 8/8/8 5/4/4
f 3/6/6 11/7/7 8/8/8
f 7/11/11 4/12/12 5/9/9
f 4/12/12 7/11/11 2/10/10
f 3/13/13 4/12/12 2/10/10
f 7/15/15 6/17/17 1/16/16 2/14/14
f 7/19/19 5/18/18 8/22/22
f 11/21/21 10/20/20 8/22/22
f 7/19/19 8/22/22 10/20/20
f 3/26/26 2/25/25 10/24/24 11/23/23
f 10/28/28 9/30/30 6/29/29 7/27/27
f 2/32/32 1/34/34 9/33/33 10/31/31
o object_2
usemtl GreyPlastic
v -10 22 5.34375
v -10 3 1.1875
v -10 3 -8
v -10 22 -8
v -7 25 6
v -7 0 0.53125
v -7 0 -8
v -7 25 -8
v 7 25 6
v 7 0 0.53125
v 7 0 -8
v 7 25 -8
v 10 22 5.34375
v 10 3 1.1875
v 10 3 -8
v 10 22 -8
vt 0.6875 0.75
vt 0.09375 0.75
vt 0 0.675000011920929
vt 0 0.324999988079071
vt 0.09375 0.25
vt 0.6875 0.25
vt 0.78125 0.324999988079071
vt 0.78125 0.675000011920929
vt 0 0
vt 0 1
vt 1 0
vt 1 1
vt 0.1000000014901161 0.8040000200271606
vt 0.1000000014901161 0.1959999948740006
vt 0.2199999988079071 0.1000000014901161
vt 0.7799999713897705 0.1000000014901161
vt 0.8999999761581421 0.1959999948740006
vt 0.8999999761581421 0.8040000200271606
vt 0.7799999713897705 0.8999999761581421
vt 0.2199999988079071 0.8999999761581421
vt 0 1
vt 1 0.046875
vt 1 1
vt 0 0.34375
vt 0 1
vt 1 0
vt 1 1
vt 0 0.046875
vt 0 0
vt 0 1
vt 1 1
vt 1 0.046875
vt 0 0.046875
vt 0 1
vt 1 1
vt 1 0.34375
vt 0 0.34375
vt 0 1
vt 1 1
vt 1 0.390625
vt 0 0.390625
vt 0 1
vt 1 0.390625
vt 1 1
vt 0 1
vt 1 0.34375
vt 1 1
vt 0 0.390625
vn 0 -0.2136968821287155 0.976900041103363
vn 0 -0.2136968821287155 0.976900041103363
vn 0 -0.2136968821287155 0.976900041103363
vn 0 -0.2136968821287155 0.976900041103363
vn 0 -0.2136968821287155 0.976900041103363
vn 0 -0.2136968821287155 0.976900041103363
vn 0 -0.2136968821287155 0.976900041103363
vn 0 -0.2136968821287155 0.976900041103363
vn 0 1 0
vn 0 1 0
vn 0 1 0
vn 0 1 0
vn 0 0 -1
vn 0 0 -1
vn 0 0 -1
vn 0 0 -1
vn 0 0 -1
vn 0 0 -1
vn 0 0 -1
vn 0 0 -1
vn -1 0 0
vn -1 4.85722573273506e-17 0
vn -1 0 0
vn -1 2.775557561562891e-17 0
vn -0.7071067690849304 0.7071067690849304 0
vn -0.7071067690849304 0.7071067690849304 0
vn -0.7071067690849304 0.7071067690849304 0
vn -0.7071067690849304 0.7071067690849304 0
vn 0.7071067690849304 0.7071067690849304 0
vn 0.7071067690849304 0.7071067690849304 0
vn 0.7071067690849304 0.7071067690849304 0
vn 0.7071067690849304 0.7071067690849304 0
vn 1 -4.510281037539698e-17 0
vn 1 0 0
vn 1 0 0
vn 1 0 0
vn 0.7071067690849304 -0.7071067690849304 0
vn 0.7071067690849304 -0.7071067690849304 0
vn 0.7071067690849304 -0.7071067690849304 0
vn 0.7071067690849304 -0.7071067690849304 0
vn 0 -1 0
vn 0 -1 0
vn 0 -1 0
vn 0 -1 0
vn -0.7071067690849304 -0.7071067690849304 0
vn -0.7071067690849304 -0.7071067690849304 0
vn -0.7071067690849304 -0.7071067690849304 0
vn -0.7071067690849304 -0.7071067690849304 0
f 16/37/37 17/42/42 21/41/41 20/38/38
f 13/35/35 17/42/42 16/37/37 12/36/36
f 25/40/40 24/39/39 20/38/38
f 25/40/40 20/38/38 21/41/41
f 19/44/44 16/43/43 20/45/45 23/46/46
f 18/54/54 15/48/48 19/49/49
f 15/48/48 18/54/54 14/47/47
f 19/49/49 23/50/50 22/53/53 18/54/54
f 26/52/52 23/50/50 27/51/51
f 23/50/50 26/52/52 22/53/53
f 14/55/55 13/58/58 12/56/56 15/57/57
f 15/59/59 12/62/62 16/60/60 19/61/61
f 23/64/64 20/63/63 24/66/66 27/65/65
f 27/68/68 24/67/67 25/70/70 26/69/69
f 26/72/72 25/71/71 21/74/74 22/73/73
f 22/76/76 21/75/75 17/77/77 18/78/78
f 18/79/79 17/82/82 13/80/80 14/81/81
o object_3
usemtl RedPlastic
v -3 20 7
v -3 20 4.90625
v -1.5 17.40192413330078 7
v -1.5 22.59807586669922 7
v -1.5 22.59807586669922 5.474579334259033
v -1.5 17.40192413330078 4.337920665740967
v 1.5 17.40192413330078 7
v 1.5 22.59807586669922 7
v 1.5 22.59807586669922 5.474579334259033
v 1.5 17.40192413330078 4.337920665740967
v 3 20 7
v 3 20 4.90625
vt 0.9901960492134094 0.5
vt 0.7450980544090271 0.9901960492134094
vt 0.7450980544090271 0.009803921915590763
vt 0.009803921915590763 0.5
vt 0.2549019753932953 0.009803921915590763
vt 0.2549019753932953 0.9901960492134094
vt 0 0.6510416865348816
vt 0 1
vt 1 1
vt 1 0.7457631826400757
vt 0 0.7457631826400757
vt 0 1
vt 1 0.7457631826400757
vt 1 1
vt 0 1
vt 1 0.6510416865348816
vt 1 1
vt 0 0.7457631826400757
vt 0 1
vt 1 0.5563201308250427
vt 1 1
vt 0 0.6510416865348816
vt 0 0.5563201308250427
vt 0 1
vt 1 0.5563201308250427
vt 1 1
vt 0 0.5563201308250427
vt 0 1
vt 1 1
vt 1 0.6510416865348816
vt 0.8999999761581421 0.5
vt 0.699999988079071 0.8999999761581421
vt 0.300000011920929 0.8999999761581421
vt 0.1000000014901161 0.5
vt 0.300000011920929 0.1000000014901161
vt 0.699999988079071 0.1000000014901161
vn 0 0.2136968821287155 -0.976900041103363
vn 0 0.2136968821287155 -0.976900041103363
vn 0 0.2136968821287155 -0.976900041103363
vn 0 0.2136968821287155 -0.976900041103363
vn 0 0.2136968821287155 -0.976900041103363
vn 0 0.2136968821287155 -0.976900041103363
vn 0.8660253882408142 0.5 0
vn 0.8660253882408142 0.5 0
vn 0.8660253882408142 0.5 0
vn 0.8660253882408142 0.5 0
vn 0 1 0
vn 0 1 0
vn 0 1 0
vn 0 1 0
vn -0.8660253882408142 0.5 0
vn -0.8660253882408142 0.5 0
vn -0.8660253882408142 0.5 0
vn -0.8660253882408142 0.5 0
vn -0.8660253882408142 -0.5 0
vn -0.8660253882408142 -0.5 0
vn -0.8660253882408142 -0.5 0
vn -0.8660253882408142 -0.5 0
vn 0 -1 0
vn 0 -1 0
vn 0 -1 0
vn 0 -1 0
vn 0.8660253882408142 -0.5 0
vn 0.8660253882408142 -0.5 0
vn 0.8660253882408142 -0.5 0
vn 0.8660253882408142 -0.5 0
vn 0 0 1
vn 0 0 1
vn 0 0 1
vn 0 0 1
vn 0 0 1
vn 0 0 1
f 29/86/86 32/88/88 36/84/84 39/83/83
f 33/87/87 29/86/86 37/85/85
f 37/85/85 29/86/86 39/83/83
f 38/90/90 39/89/89 36/92/92 35/91/91
f 35/94/94 36/93/93 32/95/95 31/96/96
f 31/97/97 32/100/100 29/98/98 28/99/99
f 28/101/101 29/104/104 33/102/102 30/103/103
f 30/106/106 33/105/105 37/107/107 34/108/108
f 34/110/110 37/109/109 39/112/112 38/111/111
f 28/116/116 38/113/113 35/114/114 31/115/115
f 30/117/117 34/118/118 28/116/116
f 34/118/118 38/113/113 28/116/116
