# Rhino

mtllib Kettle.mtl
g Kettle__Body
o object_1
usemtl WhitePlastic
v -8.485280990600586 7 -1.039147219471627e-15
v -7 2 -8.572527703398379e-16
v -7 21 -8.572527703398379e-16
v -4.242640495300293 7 7.348469257354736
v -4.242640495300293 7 -7.348469257354736
v -3.5 2 6.062177658081055
v -3.5 21 6.062177658081055
v -3.5 2 -6.062177658081055
v -3.5 21 -6.062177658081055
v -1.468911528587341 21.00000381469727 6.062178134918213
v -0.7344599366188049 19.39878273010254 6.209294319152832
v -0.7344574928283691 21.00000190734863 7.531089305877686
v -1.53965117988264e-06 17.79756546020508 6.356410026550293
v -1.02643411992176e-06 21 8.999999046325684
v -2.844973323590239e-07 19.39876937866211 7.678201198577881
v -1.985714845886832e-07 20.9999885559082 6.062171459197998
v 0.7344550490379334 20.99999237060547 7.531088829040527
v 0.7344577312469482 19.39878463745117 6.209294319152832
v 1.468911170959473 21.0000057220459 6.062177658081055
v 3.5 2 6.062177658081055
v 3.5 21 6.062177658081055
v 3.5 2 -6.062177658081055
v 3.5 21 -6.062177658081055
v 4.242640495300293 7 7.348469257354736
v 4.242640495300293 7 -7.348469257354736
v 5.25 21 3.031088829040527
v 5.25 21 -3.031088829040527
v 7 2 0
v 7 21 0
v 8.485280990600586 7 0
vt 0 0
vt 0 1
vt 1 0
vt 1 1
vt 0 0
vt 0 1
vt 1 0
vt 1 1
vt 0 0
vt 0 1
vt 1 0
vt 1 1
vt 0 0
vt 0 1
vt 1 0
vt 1 1
vt 0.7712547183036804 0.5000002384185791
vt 0.8856274485588074 0.6024367809295654
vt 1 0.7098444700241089
vt 1 0.2901559472084045
vt 0.8856275081634522 0.3975635766983032
vt 0 0
vt 0 1
vt 1 0
vt 1 0.5
vt 1 1
vt 0 0
vt 0 1
vt 1 0
vt 1 1
vt 0 0
vt 0 1
vt 1 0
vt 1 1
vt 0 0
vt 0 1
vt 1 0
vt 1 1
vt 0 0
vt 0 1
vt 1 0
vt 1 1
vt 0 0
vt 0 1
vt 1 0
vt 1 1
vt 0 0
vt 0 1
vt 1 0
vt 1 0.5
vt 1 1
vt 0 0
vt 0 1
vt 1 0
vt 1 1
vt 0.7450980544090271 0.9901960492134094
vt 0.2549019753932953 0.9901960492134094
vt 0.009803921915590763 0.5
vt 0.2549019753932953 0.009803921915590763
vt 0.7450980544090271 0.009803921915590763
vt 0.9901960492134094 0.5
vt 0.08333195000886917 0.9174169301986694
vt 0.9189947247505188 0.4589854180812836
vt 0.5011638998985291 0.6881993412971497
vt 0.08333195000886917 0.5003761053085327
vt 0.08333197981119156 0.08333516120910645
vt 0.5011643171310425 0.2711587846279144
vt 0.08182206749916077 0.08333173394203186
vt 0.4992445111274719 0.9220265746116638
vt 0.2905332744121552 0.5026799440383911
vt 0.4992444515228272 0.08333173394203186
vt 0.9166669845581055 0.08333173394203186
vt 0.7079556584358215 0.5026800632476807
vt 0.08333195000886917 0.9174169301986694
vt 0.9189947247505188 0.4589854180812836
vt 0.5011641979217529 0.6881992220878601
vt 0.08333195000886917 0.5003761053085327
vt 0.08333197981119156 0.08333516120910645
vt 0.5011645555496216 0.2711588740348816
vn 1.824091672310342e-16 0.09149260073900223 -0.9958057403564453
vn 1.824091672310342e-16 0.09149260073900223 -0.9958057403564453
vn 1.105566460997626e-16 0.09149260073900223 -0.9958057403564453
vn 1.105566460997626e-16 0.09149260073900223 -0.9958057403564453
vn -0.8623930811882019 0.09149260073900223 -0.4979028701782227
vn -0.8623930811882019 0.09149260073900223 -0.4979028701782227
vn -0.8623930811882019 0.09149260073900223 -0.4979028701782227
vn -0.8623930811882019 0.09149260073900223 -0.4979028701782227
vn -0.8623930811882019 0.09149260073900223 0.4979028701782227
vn -0.8623930811882019 0.09149260073900223 0.4979028701782227
vn -0.8623930811882019 0.09149260073900223 0.4979028701782227
vn -0.8623930811882019 0.09149260073900223 0.4979028701782227
vn -7.296366689241369e-16 0.09149260073900223 0.9958057403564453
vn -7.296366689241369e-16 0.09149260073900223 0.9958057403564453
vn -6.633398765985756e-16 0.09149260073900223 0.9958057403564453
vn -6.633398765985756e-16 0.09149260073900223 0.9958057403564453
vn -7.380734876557041e-16 0.09149260073900223 0.9958057403564453
vn -6.476233920205089e-16 0.09149260073900223 0.9958057403564453
vn -5.52783230498813e-16 0.09149260073900223 0.9958057403564453
vn -5.52783230498813e-16 0.09149260073900223 0.9958057403564453
vn -6.476234449600681e-16 0.09149260073900223 0.9958057403564453
vn 0.8623930811882019 0.09149260073900223 0.4979028701782227
vn 0.8623930811882019 0.09149260073900223 0.4979028701782227
vn 0.8623930811882019 0.09149260073900223 0.4979028701782227
vn 0.8623930811882019 0.09149260073900223 0.4979028701782227
vn 0.8623930811882019 0.09149260073900223 0.4979028701782227
vn 2.15042646771223e-16 -0.249145895242691 -0.9684659838676453
vn 2.15042646771223e-16 -0.249145895242691 -0.9684659838676453
vn 1.774011246350626e-16 -0.249145895242691 -0.9684659838676453
vn 1.774011246350626e-16 -0.249145895242691 -0.9684659838676453
vn -0.8387161493301392 -0.249145895242691 -0.4842329919338226
vn -0.8387161493301392 -0.249145895242691 -0.4842329919338226
vn -0.8387161493301392 -0.249145895242691 -0.4842329919338226
vn -0.8387161493301392 -0.249145895242691 -0.4842329919338226
vn -0.8387161493301392 -0.249145895242691 0.4842329919338226
vn -0.8387161493301392 -0.249145895242691 0.4842329919338226
vn -0.8387161493301392 -0.249145895242691 0.4842329919338226
vn -0.8387161493301392 -0.249145895242691 0.4842329919338226
vn -5.376066235455025e-16 -0.249145895242691 0.9684659838676453
vn -5.376066235455025e-16 -0.249145895242691 0.9684659838676453
vn -5.322034003749673e-16 -0.249145895242691 0.9684659838676453
vn -5.322034003749673e-16 -0.249145895242691 0.9684659838676453
vn 0.8387161493301392 -0.249145895242691 0.4842329919338226
vn 0.8387161493301392 -0.249145895242691 0.4842329919338226
vn 0.8387161493301392 -0.249145895242691 0.4842329919338226
vn 0.8387161493301392 -0.249145895242691 0.4842329919338226
vn 0.8623930811882019 0.09149260073900223 -0.4979028701782227
vn 0.8623930811882019 0.09149260073900223 -0.4979028701782227
vn 0.8623930811882019 0.09149260073900223 -0.4979028701782227
vn 0.8623930811882019 0.09149260073900223 -0.4979028701782227
vn 0.8623930811882019 0.09149260073900223 -0.4979028701782227
vn 0.8387161493301392 -0.249145895242691 -0.4842329919338226
vn 0.8387161493301392 -0.249145895242691 -0.4842329919338226
vn 0.8387161493301392 -0.249145895242691 -0.4842329919338226
vn 0.8387161493301392 -0.249145895242691 -0.4842329919338226
vn 0 -1 0
vn 0 -1 0
vn 0 -1 0
vn 0 -1 0
vn 0 -1 0
vn 0 -1 0
vn -0.8390730023384094 -0.3463291525840759 0.4195386171340942
vn -0.8390746712684631 -0.3463257849216461 0.4195380210876465
vn -0.8390750288963318 -0.3463251292705536 0.4195378124713898
vn -0.8390752673149109 -0.3463252782821655 0.4195372760295868
vn -0.8390730619430542 -0.3463258743286133 0.419541209936142
vn -0.8390750288963318 -0.3463258445262909 0.419537216424942
vn 2.030900941463187e-05 1 2.208765727118589e-05
vn 7.221382247735164e-08 1 3.907311111106537e-06
vn -3.637815552792745e-06 1 -1.147747212826289e-07
vn 2.900967643881813e-08 1 -1.849664954534092e-06
vn -2.036634759861045e-05 1 2.136779585271142e-05
vn 3.564760163499159e-06 1 3.197600406679158e-09
vn 0.8390730023384094 -0.3463291525840759 0.4195386171340942
vn 0.8390746712684631 -0.3463257849216461 0.4195380210876465
vn 0.8390750288963318 -0.3463251292705536 0.4195378124713898
vn 0.8390752673149109 -0.3463252782821655 0.4195372760295868
vn 0.8390730619430542 -0.3463258743286133 0.419541209936142
vn 0.8390750288963318 -0.3463258445262909 0.419537216424942
f 25/2/2 5/1/1 9/3/3 23/4/4
f 5/6/6 1/5/5 3/7/7 9/8/8
f 1/10/10 4/9/9 7/11/11 3/12/12
f 4/14/14 24/13/13 13/17/17
f 18/21/21 13/17/17 24/13/13
f 7/16/16 4/14/14 11/18/18
f 13/17/17 11/18/18 4/14/14
f 18/21/21 21/15/15 19/20/20
f 11/18/18 10/19/19 7/16/16
f 24/13/13 21/15/15 18/21/21
f 26/25/25 24/23/23 30/22/22
f 30/22/22 29/24/24 26/25/25
f 24/23/23 26/25/25 21/26/26
f 22/28/28 8/27/27 5/29/29 25/30/30
f 8/32/32 2/31/31 1/33/33 5/34/34
f 2/36/36 6/35/35 4/37/37 1/38/38
f 6/40/40 20/39/39 24/41/41 4/42/42
f 20/44/44 28/43/43 30/45/45 24/46/46
f 27/50/50 30/48/48 25/47/47
f 25/47/47 23/49/49 27/50/50
f 30/48/48 27/50/50 29/51/51
f 28/53/53 22/52/52 25/54/54 30/55/55
f 22/56/56 2/58/58 8/57/57
f 6/59/59 2/58/58 28/61/61
f 2/58/58 22/56/56 28/61/61
f 20/60/60 6/59/59 28/61/61
f 11/64/64 13/62/62 15/65/65
f 14/66/66 12/67/67 15/65/65
f 10/63/63 11/64/64 12/67/67
f 15/65/65 12/67/67 11/64/64
f 12/70/70 16/71/71 10/68/68
f 17/73/73 16/71/71 12/70/70
f 14/69/69 17/73/73 12/70/70
f 19/72/72 16/71/71 17/73/73
f 18/76/76 15/77/77 13/74/74
f 14/78/78 15/77/77 17/79/79
f 19/75/75 17/79/79 18/76/76
f 15/77/77 18/76/76 17/79/79
o object_2
usemtl CoalPlastic
v -7 21 -8.572527703398379e-16
v -5.25 21 3.031088829040527
v -3.733333349227905 24 -5.262820047989493e-16
v -3.5 21 6.062177658081055
v -3.5 21 -6.062177658081055
v -1.866666674613953 24 3.233161449432373
v -1.866666674613953 24 -3.233161449432373
v 1.866666674613953 24 3.233161449432373
v 1.866666674613953 24 -3.233161449432373
v 3.5 21 6.062177658081055
v 3.5 21 -6.062177658081055
v 3.733333349227905 24 -6.908054625437781e-17
v 5.25 21 3.031088829040527
v 7 21 0
vt 0 0
vt 0 1
vt 1 0
vt 1 1
vt 0 0
vt 0 1
vt 1 0
vt 1 1
vt 0 0
vt 0 0.5
vt 0 1
vt 1 0
vt 1 1
vt 0 0
vt 0 1
vt 1 0
vt 1 1
vt 0 0
vt 0 0.5
vt 0 1
vt 1 0
vt 1 1
vt 0 0
vt 0 1
vt 1 0
vt 1 1
vt 0.2549019753932953 0.009803921915590763
vt 0.7450980544090271 0.009803921915590763
vt 0.009803921915590763 0.5
vt 0.2549019753932953 0.9901960492134094
vt 0.7450980544090271 0.9901960492134094
vt 0.9901960492134094 0.5
vn 1.615453428418419e-16 0.6860699653625488 -0.7275355458259583
vn 1.615453428418419e-16 0.6860699653625488 -0.7275355458259583
vn 7.572438152506493e-17 0.6860699653625488 -0.7275355458259583
vn 7.572438152506493e-17 0.6860699653625488 -0.7275355458259583
vn -0.6300642490386963 0.6860699653625488 -0.3637677729129791
vn -0.6300642490386963 0.6860699653625488 -0.3637677729129791
vn -0.6300642490386963 0.6860699653625488 -0.3637677729129791
vn -0.6300642490386963 0.6860699653625488 -0.3637677729129791
vn -0.6300642490386963 0.6860699653625488 0.3637677729129791
vn -0.6300642490386963 0.6860699653625488 0.3637677729129791
vn -0.6300642490386963 0.6860699653625488 0.3637677729129791
vn -0.6300642490386963 0.6860699653625488 0.3637677729129791
vn -0.6300642490386963 0.6860699653625488 0.3637677729129791
vn -4.038633504871599e-16 0.6860699653625488 0.7275355458259583
vn -4.038633504871599e-16 0.6860699653625488 0.7275355458259583
vn -4.543463023852794e-16 0.6860699653625488 0.7275355458259583
vn -4.543463023852794e-16 0.6860699653625488 0.7275355458259583
vn 0.6300642490386963 0.6860699653625488 0.3637677729129791
vn 0.6300642490386963 0.6860699653625488 0.3637677729129791
vn 0.6300642490386963 0.6860699653625488 0.3637677729129791
vn 0.6300642490386963 0.6860699653625488 0.3637677729129791
vn 0.6300642490386963 0.6860699653625488 0.3637677729129791
vn 0.6300642490386963 0.6860699653625488 -0.3637677729129791
vn 0.6300642490386963 0.6860699653625488 -0.3637677729129791
vn 0.6300642490386963 0.6860699653625488 -0.3637677729129791
vn 0.6300642490386963 0.6860699653625488 -0.3637677729129791
vn 0 1 0
vn 0 1 0
vn 0 1 0
vn 0 1 0
vn 0 1 0
vn 0 1 0
f 41/81/81 35/80/80 37/82/82 39/83/83
f 35/85/85 31/84/84 33/86/86 37/87/87
f 36/91/91 32/89/89 34/88/88
f 31/90/90 32/89/89 33/92/92
f 36/91/91 33/92/92 32/89/89
f 34/94/94 40/93/93 38/95/95 36/96/96
f 42/100/100 43/98/98 44/97/97
f 40/99/99 43/98/98 38/101/101
f 42/100/100 38/101/101 43/98/98
f 44/103/103 41/102/102 39/104/104 42/105/105
f 42/111/111 33/108/108 36/109/109
f 37/106/106 33/108/108 42/111/111
f 38/110/110 42/111/111 36/109/109
f 39/107/107 37/106/106 42/111/111
o object_3
usemtl CoalPlastic
v -7 0 -8.572527703398379e-16
v -7 2 -8.572527703398379e-16
v -3.5 0 6.062177658081055
v -3.5 2 6.062177658081055
v -3.5 0 -6.062177658081055
v -3.5 2 -6.062177658081055
v 3.5 0 6.062177658081055
v 3.5 2 6.062177658081055
v 3.5 0 -6.062177658081055
v 3.5 2 -6.062177658081055
v 7 0 0
v 7 2 0
vt 0 0
vt 0 0.5380968451499939
vt 0.1666666716337204 0
vt 0.1666666716337204 0.5380968451499939
vt 0.1666666716337204 0
vt 0.1666666716337204 0.5380968451499939
vt 0.3333333432674408 0
vt 0.3333333432674408 0.5380968451499939
vt 0.3333333432674408 0
vt 0.3333333432674408 0.5380968451499939
vt 0.5 0
vt 0.5 0.5380968451499939
vt 0.5 0
vt 0.5 0.5380968451499939
vt 0.6666666865348816 0
vt 0.6666666865348816 0.5380968451499939
vt 0.6666666865348816 0
vt 0.6666666865348816 0.5380968451499939
vt 0.8333333134651184 0
vt 0.8333333134651184 0.5380968451499939
vt 0.8333333134651184 0
vt 0.8333333134651184 0.5380968451499939
vt 1 0
vt 1 0.5380968451499939
vt 0.3333333432674408 0.7690486907958984
vt 0.25 0.5380973815917969
vt 0.0833333358168602 0.5380973815917969
vt 0 0.7690486907958984
vt 0.0833333358168602 1
vt 0.25 1
vt 0.3333333432674408 0.7690486907958984
vt 0.25 1
vt 0.0833333358168602 1
vt 0 0.7690486907958984
vt 0.0833333358168602 0.5380973815917969
vt 0.25 0.5380973815917969
vn 0.8660253882408142 0 -0.5
vn 0.8660253882408142 0 -0.5
vn 0.8660253882408142 0 -0.5
vn 0.8660253882408142 0 -0.5
vn 1.268826370578278e-16 0 -1
vn 1.268826370578278e-16 0 -1
vn 1.268826370578278e-16 0 -1
vn 1.268826370578278e-16 0 -1
vn -0.8660253882408142 0 -0.5
vn -0.8660253882408142 0 -0.5
vn -0.8660253882408142 0 -0.5
vn -0.8660253882408142 0 -0.5
vn -0.8660253882408142 0 0.5
vn -0.8660253882408142 0 0.5
vn -0.8660253882408142 0 0.5
vn -0.8660253882408142 0 0.5
vn -6.344131720542492e-16 0 1
vn -6.344131720542492e-16 0 1
vn -6.344131720542492e-16 0 1
vn -6.344131720542492e-16 0 1
vn 0.8660253882408142 0 0.5
vn 0.8660253882408142 0 0.5
vn 0.8660253882408142 0 0.5
vn 0.8660253882408142 0 0.5
vn 0 -1 0
vn 0 -1 0
vn 0 -1 0
vn 0 -1 0
vn 0 -1 0
vn 0 -1 0
vn 0 1 0
vn 0 1 0
vn 0 1 0
vn 0 1 0
vn 0 1 0
vn 0 1 0
f 55/112/112 53/114/114 54/115/115 56/113/113
f 53/116/116 49/118/118 50/119/119 54/117/117
f 49/120/120 45/122/122 46/123/123 50/121/121
f 45/124/124 47/126/126 48/127/127 46/125/125
f 47/128/128 51/130/130 52/131/131 48/129/129
f 51/132/132 55/134/134 56/135/135 52/133/133
f 51/141/141 45/139/139 49/138/138
f 47/140/140 45/139/139 51/141/141
f 49/138/138 53/137/137 55/136/136
f 51/141/141 49/138/138 55/136/136
f 52/147/147 50/144/144 46/145/145
f 48/146/146 52/147/147 46/145/145
f 50/144/144 56/142/142 54/143/143
f 52/147/147 56/142/142 50/144/144
o object_4
usemtl CoalPlastic
v -1.729273319244385 17.36614990234375 -6.396048545837402
v -1.092937707901001 17.36761856079102 -9.420032501220703
v -1.092937707901001 8 -10.6936559677124
v -1.092172622680664 21 -6.062177658081055
v -0.6902764439582825 18.22623062133789 -11.56059455871582
v -0.6902764439582825 8 -13
v 0.6902764439582825 18.22623062133789 -11.56059455871582
v 0.6902764439582825 8 -13
v 1.092172622680664 21 -6.062177658081055
v 1.092937707901001 17.36761856079102 -9.420032501220703
v 1.092937707901001 8 -10.6936559677124
v 1.729273319244385 17.36614990234375 -6.396048545837402
vt 0.8095975518226624 0.9901960492134094
vt 0.19040247797966 0.9901960492134094
vt 0.009803921915590763 0.009803921915590763
vt 0.9901960492134094 0.009803921915590763
vt 0.9901960492134094 0.9901960492134094
vt 0.009803921915590763 0.9901960492134094
vt 0.19040247797966 0.009803921915590763
vt 0.8095975518226624 0.009803921915590763
vt 0 0
vt 0 1
vt 1 0
vt 1 1
vt 0 0
vt 0 1
vt 1 0
vt 1 1
vt 0 0
vt 0 1
vt 1 0
vt 1 1
vt 0 0
vt 0 1
vt 1 0
vt 1 1
vt 0 0
vt 0 1
vt 1 0
vt 1 1
vt 0 0
vt 0 1
vt 1 0
vt 1 1
vt 0 0
vt 0 1
vt 1 0
vt 1 1
vt 0 0
vt 0 1
vt 1 0
vt 1 1
vn 0 -0.09149260073900223 0.9958057403564453
vn 0 -0.09149260073900223 0.9958057403564453
vn 0 -0.09149260073900223 0.9958057403564453
vn 0 -0.09149260073900223 0.9958057403564453
vn 0 -1 0
vn 0 -1 0
vn 0 -1 0
vn 0 -1 0
vn -0.9848107099533081 0.02420114725828171 -0.1719366908073425
vn -0.9848300218582153 0.02337701059877873 -0.1719400584697723
vn -0.9842154979705811 0.02466702274978161 -0.1752464920282364
vn -0.9841793775558472 0.02386914193630219 -0.1755597293376923
vn -0.982972264289856 0.1248462274670601 -0.1348292380571365
vn -0.9771125912666321 -0.05443603917956352 -0.2056397795677185
vn -0.9689437747001648 0.184958815574646 -0.1641286611557007
vn -0.9613033533096314 0.187116801738739 -0.2021957784891129
vn 0 -0.1347207576036453 0.9908835887908936
vn 0 -0.1347207576036453 0.9908835887908936
vn 0 -0.1347207576036453 0.9908835887908936
vn 0 -0.1347207576036453 0.9908835887908936
vn 0.9848300218582153 0.02337701059877873 -0.1719400584697723
vn 0.9848107099533081 0.02420114725828171 -0.1719366908073425
vn 0.9841793775558472 0.02386914193630219 -0.1755597293376923
vn 0.9842154979705811 0.02466702274978161 -0.1752464920282364
vn 0 0.1393821984529495 -0.9902386665344238
vn 0 0.1393821984529495 -0.9902386665344238
vn 0 0.1393821984529495 -0.9902386665344238
vn 0 0.1393821984529495 -0.9902386665344238
vn 0 -0.9999998807907105 -0.000485527009004727
vn 0 -0.9999998807907105 -0.000485527009004727
vn 0 -0.9999998807907105 -0.000485527009004727
vn 0 -0.9999998807907105 -0.000485527009004727
vn 0.9771125912666321 -0.05443603917956352 -0.2056397795677185
vn 0.982972264289856 0.1248462274670601 -0.1348292380571365
vn 0.9613033533096314 0.187116801738739 -0.2021957784891129
vn 0.9689437747001648 0.184958815574646 -0.1641286611557007
vn 0 0.8928262591362 -0.450401246547699
vn 0 0.8928262591362 -0.450401246547699
vn 0 0.8928262591362 -0.450401246547699
vn 0 0.8928262591362 -0.450401246547699
f 57/150/150 68/151/151 65/148/148 60/149/149
f 62/154/154 64/155/155 67/152/152 59/153/153
f 59/157/157 58/159/159 61/158/158 62/156/156
f 58/161/161 57/163/163 60/162/162 61/160/160
f 67/165/165 66/167/167 58/166/166 59/164/164
f 64/169/169 63/171/171 66/170/170 67/168/168
f 62/173/173 61/175/175 63/174/174 64/172/172
f 66/177/177 68/179/179 57/178/178 58/176/176
f 63/181/181 65/183/183 68/182/182 66/180/180
f 61/185/185 60/187/187 65/186/186 63/184/184
