# Blender v2.77 (sub 0) OBJ File: 'kitchen_sinkblend.blend'
# www.blender.org
mtllib kitchen_sinkblend.mtl
o Cube_Cube.026
v -0.501294 0.841769 1.231624
v -0.501294 1.001769 1.231624
v -0.501294 0.841769 1.161624
v -0.501294 1.001769 1.161624
v -0.441294 0.841769 1.231624
v -0.441294 1.001769 1.231624
v -0.441294 0.841769 1.161624
v -0.441294 1.001769 1.161624
v -0.479228 0.996544 1.204453
v -0.479228 1.269751 1.204453
v -0.470376 0.996544 1.186519
v -0.470376 1.269751 1.186519
v -0.461294 0.996544 1.213306
v -0.461294 1.269751 1.213306
v -0.452442 0.996544 1.195372
v -0.452442 1.269751 1.195372
v -0.479229 1.289752 1.204453
v -0.308462 1.289752 1.288746
v -0.470377 1.289752 1.186519
v -0.299610 1.289752 1.270812
v -0.479229 1.269752 1.204453
v -0.308462 1.269752 1.288746
v -0.470377 1.269752 1.186519
v -0.299610 1.269752 1.270812
v -0.326571 1.161510 1.279807
v -0.326571 1.269751 1.279807
v -0.317719 1.161510 1.261873
v -0.317719 1.269751 1.261873
v -0.308637 1.161510 1.288660
v -0.308637 1.269751 1.288660
v -0.299785 1.161510 1.270726
v -0.299785 1.269751 1.270726
v -0.461294 0.996544 1.213306
v -0.436295 0.849863 1.518245
v -0.589998 0.899863 2.430001
v -0.589998 0.899863 0.000001
v -0.589998 0.849864 0.000001
v -0.589998 0.849864 2.430001
v 0.030002 0.899863 2.430001
v 0.030002 0.849864 2.430001
v -0.436296 0.899863 1.218246
v -0.436296 0.899863 1.177030
v -0.436296 0.899863 0.777028
v -0.026297 0.899863 0.777028
v 0.030002 0.899863 0.000001
v -0.436296 0.899863 1.518244
v -0.026297 0.899863 1.218246
v -0.026297 0.899863 1.518244
v -0.026297 0.899863 1.177030
v 0.030002 0.849864 0.000001
v -0.436296 0.849864 1.218246
v -0.436296 0.849864 1.177030
v -0.026297 0.849864 1.177030
v -0.026297 0.849864 0.777028
v -0.436296 0.849864 1.518244
v -0.026297 0.849864 1.518244
v -0.026297 0.849864 1.218246
v -0.436296 0.849864 0.777028
v -0.436295 0.658361 1.518245
v -0.436295 0.849863 1.518245
v -0.436295 0.658361 1.218245
v -0.436295 0.849863 1.218245
v -0.026295 0.658361 1.518245
v -0.026295 0.849863 1.518245
v -0.026295 0.658361 1.218245
v -0.026295 0.849863 1.218245
v -0.436295 0.658361 1.177028
v -0.436295 0.849863 1.177028
v -0.436295 0.658361 0.777028
v -0.436295 0.849863 0.777028
v -0.026295 0.658361 1.177028
v -0.026295 0.849863 1.177028
v -0.026295 0.658361 0.777028
v -0.026295 0.849863 0.777028
v 0.005168 0.121415 2.378307
v 0.005168 0.781415 2.378307
v 0.005168 0.121415 1.978307
v 0.005168 0.781415 1.978307
v 0.025168 0.121415 2.378307
v 0.025168 0.781415 2.378307
v 0.025168 0.121415 1.978307
v 0.025168 0.781415 1.978307
v -0.589998 -0.000001 2.430001
v -0.589998 0.849865 2.430001
v -0.589998 -0.000001 0.000002
v -0.589998 0.849865 0.000002
v 0.000002 -0.000001 2.430001
v 0.000002 0.849865 2.430001
v 0.000002 -0.000001 0.000002
v 0.000002 0.849865 0.000002
v 0.005168 0.121415 1.935247
v 0.005168 0.781415 1.935247
v 0.005168 0.121415 1.535247
v 0.005168 0.781415 1.535247
v 0.025168 0.121415 1.935247
v 0.025168 0.781415 1.935247
v 0.025168 0.121415 1.535247
v 0.025168 0.781415 1.535247
v 0.005168 0.121415 1.501818
v 0.005168 0.781415 1.501818
v 0.005168 0.121415 1.210035
v 0.005168 0.781415 1.210035
v 0.025168 0.121415 1.501818
v 0.025168 0.781415 1.501818
v 0.025168 0.121415 1.210035
v 0.025168 0.781415 1.210035
v 0.005168 0.121415 1.189141
v 0.005168 0.781415 1.189141
v 0.005168 0.121415 0.897358
v 0.005168 0.781415 0.897358
v 0.025168 0.121415 1.189141
v 0.025168 0.781415 1.189141
v 0.025168 0.121415 0.897358
v 0.025168 0.781415 0.897358
v 0.005168 0.121415 0.854943
v 0.005168 0.781415 0.854943
v 0.005168 0.121415 0.454943
v 0.005168 0.781415 0.454943
v 0.025168 0.121415 0.854943
v 0.025168 0.781415 0.854943
v 0.025168 0.121415 0.454943
v 0.025168 0.781415 0.454943
v 0.005170 0.121414 0.441988
v 0.005170 0.781414 0.441988
v 0.005170 0.121414 0.041988
v 0.005170 0.781414 0.041988
v 0.025170 0.121414 0.441988
v 0.025170 0.781414 0.441988
v 0.025170 0.121414 0.041988
v 0.025170 0.781414 0.041988
v 0.042540 0.428426 1.913696
v 0.023266 0.428426 1.913696
v 0.042540 0.454980 1.888510
v 0.023266 0.454980 1.888510
v 0.042540 0.401872 1.888510
v 0.023266 0.401872 1.888510
v 0.042540 0.428426 2.350860
v 0.023266 0.428426 2.350860
v 0.042540 0.454980 2.325674
v 0.023266 0.454980 2.325674
v 0.042540 0.401872 2.325673
v 0.023266 0.401872 2.325674
v 0.042540 0.428426 1.250140
v 0.023266 0.428426 1.250140
v 0.042540 0.454980 1.224954
v 0.023266 0.454980 1.224954
v 0.042540 0.401872 1.224954
v 0.023266 0.401872 1.224954
v 0.041180 0.429485 1.175112
v 0.021906 0.429485 1.175113
v 0.041180 0.456039 1.149926
v 0.021907 0.456039 1.149926
v 0.041180 0.402931 1.149926
v 0.021906 0.402931 1.149926
v 0.041180 0.429485 0.823319
v 0.021906 0.429485 0.823319
v 0.041180 0.456039 0.798133
v 0.021906 0.456039 0.798133
v 0.041180 0.402931 0.798133
v 0.021906 0.402931 0.798133
v 0.041180 0.429486 0.411765
v 0.021906 0.429486 0.411765
v 0.041180 0.456040 0.386579
v 0.021907 0.456040 0.386579
v 0.041180 0.402932 0.386579
v 0.021906 0.402932 0.386579
v -0.441326 0.977552 1.138498
v -0.439299 0.968600 1.155446
v -0.466372 0.999794 1.153242
v -0.464346 0.990842 1.170190
v -0.466372 0.952835 1.128438
v -0.464346 0.943883 1.145385
v -0.441327 0.967427 1.231764
v -0.439301 0.975576 1.249112
v -0.466374 0.992587 1.222871
v -0.464347 1.000737 1.240219
v -0.466374 0.944519 1.245451
v -0.464347 0.952668 1.262799
vn -1.0000 0.0000 0.0000
vn 0.0000 0.0000 -1.0000
vn 1.0000 0.0000 0.0000
vn 0.0000 0.0000 1.0000
vn 0.0000 -1.0000 0.0000
vn 0.0000 1.0000 0.0000
vn -0.8967 0.0000 -0.4426
vn 0.4426 0.0000 -0.8967
vn 0.8967 0.0000 0.4426
vn -0.4426 0.0000 0.8967
vn -0.0000 -0.6882 -0.7255
vn 0.0000 0.6882 -0.7255
vn -0.7215 -0.5904 0.3616
vn 0.9945 -0.0447 -0.0952
vn -0.1051 -0.4228 -0.9001
vn -0.7215 0.6553 -0.2235
vn 0.1051 0.4228 0.9001
vn -0.7215 -0.6441 -0.2540
vn 0.9945 0.0491 -0.0930
vn -0.1052 0.4645 -0.8793
vn -0.7215 0.5729 0.3889
vn 0.1051 -0.4645 0.8793
usemtl Steel
s off
f 2//1 4//1 3//1 1//1
f 4//2 8//2 7//2 3//2
f 8//3 6//3 5//3 7//3
f 6//4 2//4 1//4 5//4
f 1//5 3//5 7//5 5//5
f 6//6 8//6 4//6 2//6
f 10//7 12//7 11//7 9//7
f 12//8 16//8 15//8 11//8
f 16//9 14//9 13//9 15//9
f 14//10 10//10 9//10 13//10
f 9//5 11//5 15//5 13//5
f 18//6 20//6 19//6 17//6
f 20//8 24//8 23//8 19//8
f 24//5 22//5 21//5 23//5
f 22//10 18//10 17//10 21//10
f 17//7 19//7 23//7 21//7
f 22//9 24//9 20//9 18//9
f 26//7 28//7 27//7 25//7
f 28//8 32//8 31//8 27//8
f 32//9 30//9 29//9 31//9
f 30//10 26//10 25//10 29//10
f 25//5 27//5 31//5 29//5
f 60//3 59//3 61//3 62//3
f 62//4 61//4 65//4 66//4
f 66//1 65//1 63//1 64//1
f 64//2 63//2 59//2 60//2
f 59//6 63//6 65//6 61//6
f 68//3 67//3 69//3 70//3
f 70//4 69//4 73//4 74//4
f 74//1 73//1 71//1 72//1
f 72//2 71//2 67//2 68//2
f 67//6 71//6 73//6 69//6
usemtl kitchen_board
f 35//1 36//1 37//1 38//1
f 39//4 35//4 38//4 40//4
f 41//6 42//6 43//6 44//6 45//6 36//6 35//6 46//6
f 41//6 47//6 48//6 46//6 35//6 39//6 45//6 44//6 49//6 42//6
f 36//2 45//2 50//2 37//2
f 51//5 52//5 53//5 54//5 50//5 40//5 38//5 55//5 56//5 57//5
f 51//5 55//5 38//5 37//5 50//5 54//5 58//5 52//5
f 45//3 39//3 40//3 50//3
f 41//3 46//3 55//3 51//3
f 47//4 41//4 51//4 57//4
f 46//2 48//2 56//2 55//2
f 48//1 47//1 57//1 56//1
f 43//3 42//3 52//3 58//3
f 44//4 43//4 58//4 54//4
f 42//2 49//2 53//2 52//2
f 49//1 44//1 54//1 53//1
usemtl kitchen_door
f 78//2 82//2 81//2 77//2
f 82//3 80//3 79//3 81//3
f 80//4 76//4 75//4 79//4
f 75//5 77//5 81//5 79//5
f 80//6 82//6 78//6 76//6
f 94//2 98//2 97//2 93//2
f 98//3 96//3 95//3 97//3
f 96//4 92//4 91//4 95//4
f 91//5 93//5 97//5 95//5
f 96//6 98//6 94//6 92//6
f 102//2 106//2 105//2 101//2
f 106//3 104//3 103//3 105//3
f 104//4 100//4 99//4 103//4
f 99//5 101//5 105//5 103//5
f 104//6 106//6 102//6 100//6
f 110//2 114//2 113//2 109//2
f 114//3 112//3 111//3 113//3
f 112//4 108//4 107//4 111//4
f 107//5 109//5 113//5 111//5
f 112//6 114//6 110//6 108//6
f 118//2 122//2 121//2 117//2
f 122//3 120//3 119//3 121//3
f 120//4 116//4 115//4 119//4
f 115//5 117//5 121//5 119//5
f 120//6 122//6 118//6 116//6
f 126//2 130//2 129//2 125//2
f 130//3 128//3 127//3 129//3
f 128//4 124//4 123//4 127//4
f 123//5 125//5 129//5 127//5
f 128//6 130//6 126//6 124//6
usemtl white
f 84//1 86//1 85//1 83//1
f 86//2 90//2 89//2 85//2
f 90//3 88//3 87//3 89//3
f 88//4 84//4 83//4 87//4
f 83//5 85//5 89//5 87//5
usemtl knob
f 131//11 132//11 134//11 133//11
f 133//4 134//4 136//4 135//4
f 134//3 132//3 136//3
f 135//12 136//12 132//12 131//12
f 131//1 133//1 135//1
f 137//11 138//11 140//11 139//11
f 139//4 140//4 142//4 141//4
f 140//3 138//3 142//3
f 141//12 142//12 138//12 137//12
f 137//1 139//1 141//1
f 143//11 144//11 146//11 145//11
f 145//4 146//4 148//4 147//4
f 146//3 144//3 148//3
f 147//12 148//12 144//12 143//12
f 143//1 145//1 147//1
f 149//11 150//11 152//11 151//11
f 151//4 152//4 154//4 153//4
f 152//3 150//3 154//3
f 153//12 154//12 150//12 149//12
f 149//1 151//1 153//1
f 155//11 156//11 158//11 157//11
f 157//4 158//4 160//4 159//4
f 158//3 156//3 160//3
f 159//12 160//12 156//12 155//12
f 155//1 157//1 159//1
f 161//11 162//11 164//11 163//11
f 163//4 164//4 166//4 165//4
f 164//3 162//3 166//3
f 165//12 166//12 162//12 161//12
f 161//1 163//1 165//1
f 173//13 174//13 176//13 175//13
f 175//14 176//14 178//14 177//14
f 176//15 174//15 178//15
f 177//16 178//16 174//16 173//16
f 173//17 175//17 177//17
usemtl knob.006
f 167//18 168//18 170//18 169//18
f 169//19 170//19 172//19 171//19
f 170//20 168//20 172//20
f 171//21 172//21 168//21 167//21
f 167//22 169//22 171//22
