# Rhino

mtllib LampDesk.mtl
g object_1
usemtl Handles
v -9.526279449462891 0 20.5
v -1.968239545822144 4 24.8636360168457
v 8.612639478011198e-16 4 28.27272796630859
v 1.694726897844814e-15 0 37
v 1.968239545822144 4 24.8636360168457
v 9.526279449462891 0 20.5
vt 0.0009357106173411012 0.5798316597938538
vt 0.0009357106173411012 0.470127135515213
vt 0.09450649470090866 0.5249794125556946
vt 0.09690704196691513 0.4690300822257996
vt 0.09690704196691513 0.99853515625
vt 0.3629893362522125 0.4690300822257996
vt 0.3629893362522125 0.99853515625
vt 0.6320012807846069 0
vt 0.6320012807846069 0.5309699177742004
vt 0.8980835676193237 0
vt 0.8980835676193237 0.5309699177742004
vt 0.3644541800022125 0.4690300822257996
vt 0.3644541800022125 0.99853515625
vt 0.6305364370346069 0.4690300822257996
vt 0.6305364370346069 0.99853515625
vt 0.536279559135437 0.462981253862381
vt 0.005309699103236198 0.462981253862381
vt 0.2707946598529816 0.004583973437547684
vn 0 1 0
vn 0 1 0
vn 0 1 0
vn 0 0.7371541261672974 -0.6757246255874634
vn 0 0.7371541261672974 -0.6757246255874634
vn 0 0.7371541261672974 -0.6757246255874634
vn 0 0.7371541261672974 -0.6757246255874634
vn 0.5851947069168091 0.7371541261672974 0.3378623127937317
vn 0.5851947069168091 0.7371541261672974 0.3378623127937317
vn 0.5851947069168091 0.7371541261672974 0.3378623127937317
vn 0.5851947069168091 0.7371541261672974 0.3378623127937317
vn -0.5851947069168091 0.7371541261672974 0.3378623127937317
vn -0.5851947069168091 0.7371541261672974 0.3378623127937317
vn -0.5851947069168091 0.7371541261672974 0.3378623127937317
vn -0.5851947069168091 0.7371541261672974 0.3378623127937317
vn 0 -1 0
vn 0 -1 0
vn 0 -1 0
f 5/1/1 2/2/2 3/3/3
f 2/5/5 5/4/4 6/6/6 1/7/7
f 5/9/9 3/8/8 4/10/10 6/11/11
f 3/13/13 2/12/12 1/14/14 4/15/15
f 6/16/16 4/18/18 1/17/17
g object_2
usemtl WhiteGlossy
v -1.968239545822144 32.1363639831543 36
v -1.968239545822144 21.80352973937988 25.19647026062012
v -1.968239545822144 4 24.8636360168457
v 8.612639478011198e-16 28.72727203369141 36
v 8.612639478011198e-16 4 28.27272796630859
v 8.612639478011198e-16 19.3929386138916 27.6070613861084
v 1.968239545822144 32.1363639831543 36
v 1.968239545822144 21.80352973937988 25.19647026062012
v 1.968239545822144 4 24.8636360168457
vt 0.1675515472888947 0.4985495209693909
vt 0.1675515472888947 0.3338726758956909
vt 0.3114095628261566 0.4162110984325409
vt 0.5432570576667786 0.4985495209693909
vt 0.5432570576667786 0.3338726758956909
vt 0.6871150732040405 0.4162110984325409
vt 0.1661129593849182 0.8338870406150818
vt 0.1661129593849182 0.99853515625
vt 0.916059136390686 0.8338870406150818
vt 0.916059136390686 0.99853515625
vt 0.1661129593849182 0.5016611218452454
vt 0.1661129593849182 0.6663092374801636
vt 0.916059136390686 0.5016611218452454
vt 0.916059136390686 0.6663092374801636
vt 0.1661129593849182 0
vt 0.1661129593849182 0.1646481156349182
vt 0.7969518899917603 0
vt 0.7969518899917603 0.1646481156349182
vt 0.1661129593849182 0.6677740812301636
vt 0.1661129593849182 0.8324221968650818
vt 0.7969518899917603 0.6677740812301636
vt 0.7969518899917603 0.8324221968650818
vt 0.1646481156349182 0
vt 0 0
vt 0.1646481156349182 0.7514110207557678
vt 0 0.7514110207557678
vt 0.1661129593849182 0.1661129593849182
vt 0.1661129593849182 0.3307610750198364
vt 0.7969518899917603 0.1661129593849182
vt 0.7969518899917603 0.3307610750198364
vn 0 -1 0
vn 0 -1 0
vn 0 -1 0
vn 0 0 1
vn 0 0 1
vn 0 0 1
vn 0 0.0186915211379528 -0.9998252987861633
vn 0 0.0186915211379528 -0.9998252987861633
vn 0 0.0186915211379528 -0.9998252987861633
vn 0 0.0186915211379528 -0.9998252987861633
vn 0.76036137342453 0.02806136012077332 0.6488938331604004
vn 0.780239462852478 -0.0116911893710494 0.6253716349601746
vn 0.8658230304718018 0.02161740697920322 0.4998831450939178
vn 0.8659875988960266 -0.009346985258162022 0.4999781548976898
vn 0 0.722674548625946 -0.6911884546279907
vn 0 0.722674548625946 -0.6911884546279907
vn 0 0.722674548625946 -0.6911884546279907
vn 0 0.722674548625946 -0.6911884546279907
vn 0.7568730115890503 -0.4369808435440063 0.485994815826416
vn 0.7812849283218384 -0.4510750472545624 0.431422233581543
vn 0.865720272064209 -0.3346602320671082 0.3721974194049835
vn 0.8659717440605164 -0.3614044487476349 0.3456584811210632
vn -0.780239462852478 -0.0116911893710494 0.6253716349601746
vn -0.76036137342453 0.02806136012077332 0.6488938331604004
vn -0.8659875988960266 -0.009346985258162022 0.4999781548976898
vn -0.8658230304718018 0.02161740697920322 0.4998831450939178
vn -0.7812849283218384 -0.4510750472545624 0.431422233581543
vn -0.7568730115890503 -0.4369808435440063 0.485994815826416
vn -0.8659717440605164 -0.3614044487476349 0.3456584811210632
vn -0.865720272064209 -0.3346602320671082 0.3721974194049835
f 15/19/19 11/21/21 9/20/20
f 13/22/22 7/23/23 10/24/24
f 8/26/26 14/25/25 15/27/27 9/28/28
f 14/30/30 12/29/29 11/31/31 15/32/32
f 7/34/34 13/33/33 14/35/35 8/36/36
f 13/38/38 10/37/37 12/39/39 14/40/40
f 12/42/42 8/41/41 9/43/43 11/44/44
f 10/46/46 7/45/45 8/47/47 12/48/48
g object_3
usemtl Light
v -6.560798645019531 23.67843437194824 48.67843627929688
v 2.870879684831575e-15 15.6431303024292 40.64313125610352
v 6.560798645019531 23.67843437194824 48.67843627929688
vt 0.5 0.9901960492134094
vt 0.009803921915590763 0.009803921915590763
vt 0.9901960492134094 0.009803921915590763
vn 0 -0.7071067690849304 0.7071067690849304
vn 0 -0.7071067690849304 0.7071067690849304
vn 0 -0.7071067690849304 0.7071067690849304
f 17/49/49 18/51/51 16/50/50
g object_4
usemtl Handles
v -6.560798645019531 23.67843437194824 48.67843627929688
v -3.280399322509766 19.66078186035156 44.66078186035156
v -1.968239545822144 32.1363639831543 36
v -0.9841197729110718 30.43181800842285 36
v 8.612639478011198e-16 28.72727203369141 36
v 2.870879684831575e-15 15.6431303024292 40.64313125610352
v 0.9841197729110718 30.43181800842285 36
v 1.968239545822144 32.1363639831543 36
v 3.280399322509766 19.66078186035156 44.66078186035156
v 6.560798645019531 23.67843437194824 48.67843627929688
vt 0.4503928422927856 0
vt 0.2251964211463928 0
vt 0 0
vt 0.4503928422927856 0.5481423139572144
vt 0.2251964211463928 0.5481423139572144
vt 0 0.5481423139572144
vt 0.4518576860427856 0.4518576860427856
vt 0.4518576860427856 0.6770541071891785
vt 0.4518576860427856 0.9022505283355713
vt 0.99853515625 0.4518576860427856
vt 0.99853515625 0.6770541071891785
vt 0.99853515625 0.9022505283355713
vt 0.4518576860427856 0
vt 0.4518576860427856 0.4503928422927856
vt 0.99853515625 0
vt 0.99853515625 0.4503928422927856
vn -0.8542963266372681 -0.2327828407287598 -0.4647471904754639
vn -0.8493661284446716 -0.2087251842021942 -0.4847793281078339
vn -0.8424777984619141 -0.1801697164773941 -0.5077105164527893
vn -0.7270225286483765 -0.4197466671466827 -0.5433700084686279
vn -0.6593893766403198 -0.3806986212730408 -0.6482856273651123
vn -0.5012362003326416 -0.2893888652324677 -0.8154853582382202
vn 0.8424777984619141 -0.1801697164773941 -0.5077105164527893
vn 0.8493661284446716 -0.2087251842021942 -0.4847793281078339
vn 0.8542963266372681 -0.2327828407287598 -0.4647471904754639
vn 0.5012362003326416 -0.2893888652324677 -0.8154853582382202
vn 0.6593893766403198 -0.3806986212730408 -0.6482856273651123
vn 0.7270225286483765 -0.4197466671466827 -0.5433700084686279
vn 0 0.8318794965744019 0.554956316947937
vn 0 0.8318794965744019 0.554956316947937
vn 0 0.8318794965744019 0.554956316947937
vn 0 0.8318794965744019 0.554956316947937
f 20/53/53 19/52/52 21/55/55 22/56/56
f 24/54/54 20/53/53 22/56/56 23/57/57
f 27/59/59 24/58/58 23/61/61 25/62/62
f 28/60/60 27/59/59 25/62/62 26/63/63
f 19/65/65 28/64/64 26/66/66 21/67/67
