# Rhino

mtllib LampDesk.mtl
g Lamp_Desk__Body
o object_1
usemtl WhiteGlossy
v -1.968239545822144 32.1363639831543 36
v -1.968239545822144 21.80352973937988 25.19647026062012
v -1.968239545822144 4 24.8636360168457
v 8.612639478011198e-16 28.72727203369141 36
v 8.612639478011198e-16 4 28.27272796630859
v 8.612639478011198e-16 19.3929386138916 27.6070613861084
v 1.968239545822144 32.1363639831543 36
v 1.968239545822144 21.80352973937988 25.19647026062012
v 1.968239545822144 4 24.8636360168457
vt 0.9901960492134094 0.9901960492134094
vt 0.009803921915590763 0.9901960492134094
vt 0.5 0.009803921915590763
vt 0.9901960492134094 0.9901960492134094
vt 0.009803921915590763 0.9901960492134094
vt 0.5 0.009803921915590763
vt 0 0
vt 0 1
vt 1 0
vt 1 1
vt 0 0
vt 0 1
vt 1 0
vt 1 1
vt 0 0
vt 0 1
vt 1 0
vt 1 1
vt 0 0
vt 0 1
vt 1 0
vt 1 1
vt 0 0
vt 0 1
vt 1 0
vt 1 1
vt 0 0
vt 0 1
vt 1 0
vt 1 1
vn 0 -1 0
vn 0 -1 0
vn 0 -1 0
vn 0 0 1
vn 0 0 1
vn 0 0 1
vn 0 0.01869152113795281 -0.9998252987861633
vn 0 0.01869152113795281 -0.9998252987861633
vn 0 0.01869152113795281 -0.9998252987861633
vn 0 0.01869152113795281 -0.9998252987861633
vn 0.76036137342453 0.02806136012077332 0.6488938331604004
vn 0.780239462852478 -0.0116911893710494 0.6253716349601746
vn 0.8658230304718018 0.02161740697920322 0.4998831450939179
vn 0.8659875988960266 -0.009346985258162022 0.4999781548976898
vn 0 0.722674548625946 -0.6911884546279907
vn 0 0.722674548625946 -0.6911884546279907
vn 0 0.722674548625946 -0.6911884546279907
vn 0 0.722674548625946 -0.6911884546279907
vn 0.7568730115890503 -0.4369808435440064 0.485994815826416
vn 0.7812849283218384 -0.4510750472545624 0.431422233581543
vn 0.865720272064209 -0.3346602320671082 0.3721974194049835
vn 0.8659717440605164 -0.3614044487476349 0.3456584811210632
vn -0.780239462852478 -0.0116911893710494 0.6253716349601746
vn -0.76036137342453 0.02806136012077332 0.6488938331604004
vn -0.8659875988960266 -0.009346985258162022 0.4999781548976898
vn -0.8658230304718018 0.02161740697920322 0.4998831450939179
vn -0.7812849283218384 -0.4510750472545624 0.431422233581543
vn -0.7568730115890503 -0.4369808435440064 0.485994815826416
vn -0.8659717440605164 -0.3614044487476349 0.3456584811210632
vn -0.865720272064209 -0.3346602320671082 0.3721974194049835
f 9/1/1 5/3/3 3/2/2
f 7/4/4 1/5/5 4/6/6
f 2/8/8 8/7/7 9/9/9 3/10/10
f 8/12/12 6/11/11 5/13/13 9/14/14
f 1/16/16 7/15/15 8/17/17 2/18/18
f 7/20/20 4/19/19 6/21/21 8/22/22
f 6/24/24 2/23/23 3/25/25 5/26/26
f 4/28/28 1/27/27 2/29/29 6/30/30
o object_2
usemtl Light
v -6.560798645019531 23.67843437194824 48.67843627929688
v 2.870879684831575e-15 15.6431303024292 40.64313125610352
v 6.560798645019531 23.67843437194824 48.67843627929688
vt 0.5 0.9901960492134094
vt 0.009803921915590763 0.009803921915590763
vt 0.9901960492134094 0.009803921915590763
vn 0 -0.7071067690849304 0.7071067690849304
vn 0 -0.7071067690849304 0.7071067690849304
vn 0 -0.7071067690849304 0.7071067690849304
f 11/31/31 12/33/33 10/32/32
o object_3
usemtl Handles
v -6.560798645019531 23.67843437194824 48.67843627929688
v -3.280399322509766 19.66078186035156 44.66078186035156
v -1.968239545822144 32.1363639831543 36
v -0.9841197729110718 30.43181800842285 36
v 8.612639478011198e-16 28.72727203369141 36
v 2.870879684831575e-15 15.6431303024292 40.64313125610352
v 0.9841197729110718 30.43181800842285 36
v 1.968239545822144 32.1363639831543 36
v 3.280399322509766 19.66078186035156 44.66078186035156
v 6.560798645019531 23.67843437194824 48.67843627929688
vt 0 0
vt 0 0.5
vt 0 1
vt 1 0
vt 1 0.5
vt 1 1
vt 0 0
vt 0 0.5
vt 0 1
vt 1 0
vt 1 0.5
vt 1 1
vt 0 0
vt 0 1
vt 1 0
vt 1 1
vn -0.8542963266372681 -0.2327828407287598 -0.4647471904754639
vn -0.8493661284446716 -0.2087251842021942 -0.4847793281078339
vn -0.8424777984619141 -0.1801697164773941 -0.5077105164527893
vn -0.7270225286483765 -0.4197466671466827 -0.5433700084686279
vn -0.6593893766403198 -0.3806986212730408 -0.6482856273651123
vn -0.5012362003326416 -0.2893888652324677 -0.8154853582382202
vn 0.8424777984619141 -0.1801697164773941 -0.5077105164527893
vn 0.8493661284446716 -0.2087251842021942 -0.4847793281078339
vn 0.8542963266372681 -0.2327828407287598 -0.4647471904754639
vn 0.5012362003326416 -0.2893888652324677 -0.8154853582382202
vn 0.6593893766403198 -0.3806986212730408 -0.6482856273651123
vn 0.7270225286483765 -0.4197466671466827 -0.5433700084686279
vn 0 0.8318794965744019 0.554956316947937
vn 0 0.8318794965744019 0.554956316947937
vn 0 0.8318794965744019 0.554956316947937
vn 0 0.8318794965744019 0.554956316947937
f 14/35/35 13/34/34 15/37/37 16/38/38
f 18/36/36 14/35/35 16/38/38 17/39/39
f 21/41/41 18/40/40 17/43/43 19/44/44
f 22/42/42 21/41/41 19/44/44 20/45/45
f 13/47/47 22/46/46 20/48/48 15/49/49
o object_4
usemtl Handles
v -9.526279449462891 0 20.5
v -1.968239545822144 4 24.8636360168457
v 8.612639478011198e-16 4 28.27272796630859
v 1.694726897844814e-15 0 37
v 1.968239545822144 4 24.8636360168457
v 9.526279449462891 0 20.5
vt 0.9901960492134094 0.9901960492134094
vt 0.009803921915590763 0.9901960492134094
vt 0.5 0.009803921915590763
vt 0 0
vt 0 1
vt 1 0
vt 1 1
vt 0 0
vt 0 1
vt 1 0
vt 1 1
vt 0 0
vt 0 1
vt 1 0
vt 1 1
vt 0.9901960492134094 0.9901960492134094
vt 0.009803921915590763 0.9901960492134094
vt 0.5 0.009803921915590763
vn 0 1 0
vn 0 1 0
vn 0 1 0
vn 0 0.7371541261672974 -0.6757246255874634
vn 0 0.7371541261672974 -0.6757246255874634
vn 0 0.7371541261672974 -0.6757246255874634
vn 0 0.7371541261672974 -0.6757246255874634
vn 0.5851947069168091 0.7371541261672974 0.3378623127937317
vn 0.5851947069168091 0.7371541261672974 0.3378623127937317
vn 0.5851947069168091 0.7371541261672974 0.3378623127937317
vn 0.5851947069168091 0.7371541261672974 0.3378623127937317
vn -0.5851947069168091 0.7371541261672974 0.3378623127937317
vn -0.5851947069168091 0.7371541261672974 0.3378623127937317
vn -0.5851947069168091 0.7371541261672974 0.3378623127937317
vn -0.5851947069168091 0.7371541261672974 0.3378623127937317
vn 0 -1 0
vn 0 -1 0
vn 0 -1 0
f 27/50/50 24/51/51 25/52/52
f 24/54/54 27/53/53 28/55/55 23/56/56
f 27/58/58 25/57/57 26/59/59 28/60/60
f 25/62/62 24/61/61 23/63/63 26/64/64
f 28/65/65 26/67/67 23/66/66
