# Rhino

mtllib MonitorCRT.mtl
g MonitorCRT__Body
o object_1
usemtl WhitePlastic
v -16.45448303222656 0 -8.5
v -16.45448303222656 2 -8.5
v -3.984052419662476 15 -18.69980621337891
v -8.881784197001252e-16 15 -25.60038757324219
v 1.776356839400251e-15 2 -37
v 3.552713678800501e-15 0 -37
v 3.984052419662476 15 -18.69980621337891
v 16.45448303222656 0 -8.5
v 16.45448303222656 2 -8.5
vt 0.9901960492134094 0.9901960492134094
vt 0.009803921915590763 0.9901960492134094
vt 0.5 0.009803921915590763
vt 0.009803921915590763 0.009803921915590763
vt 0.9901960492134094 0.009803921915590763
vt 0.5 0.9901960492134094
vt 0 0
vt 0 1
vt 1 0
vt 1 1
vt 0 0
vt 0 1
vt 1 0
vt 1 1
vt 0 0
vt 0 1
vt 1 0
vt 1 1
vt 0 0
vt 0 1
vt 1 0
vt 1 1
vt 0 0
vt 0 1
vt 1 0
vt 1 1
vt 0 0
vt 0 1
vt 1 0
vt 1 1
vn 0 -1 0
vn 0 -1 0
vn 0 -1 0
vn 0 1 0
vn 0 1 0
vn 0 1 0
vn 0.8660253882408142 0 -0.5
vn 0.8660253882408142 0 -0.5
vn 0.8660253882408142 0 -0.5
vn 0.8660253882408142 0 -0.5
vn 0.7931395769119263 0.4015463888645172 -0.4579193294048309
vn 0.7931395769119263 0.4015463888645172 -0.4579193294048309
vn 0.7931395769119263 0.4015463888645172 -0.4579193294048309
vn 0.7931395769119263 0.4015463888645172 -0.4579193294048309
vn -0.8660253882408142 0 -0.5
vn -0.8660253882408142 0 -0.5
vn -0.8660253882408142 0 -0.5
vn -0.8660253882408142 0 -0.5
vn -3.33066907387547e-16 0 1
vn -3.33066907387547e-16 0 1
vn -3.33066907387547e-16 0 1
vn -3.33066907387547e-16 0 1
vn -0.7931395769119263 0.4015463888645172 -0.4579193294048309
vn -0.7931395769119263 0.4015463888645172 -0.4579193294048309
vn -0.7931395769119263 0.4015463888645172 -0.4579193294048309
vn -0.7931395769119263 0.4015463888645172 -0.4579193294048309
vn -2.620383507906068e-16 0.617279589176178 0.7867438793182373
vn -2.620383507906068e-16 0.617279589176178 0.7867438793182373
vn 0 0.617279589176178 0.7867438793182373
vn 0 0.617279589176178 0.7867438793182373
f 8/1/1 1/2/2 6/3/3
f 4/6/6 3/4/4 7/5/5
f 6/8/8 5/10/10 9/9/9 8/7/7
f 5/12/12 4/14/14 7/13/13 9/11/11
f 1/16/16 2/18/18 5/17/17 6/15/15
f 8/20/20 9/22/22 2/21/21 1/19/19
f 2/24/24 3/26/26 4/25/25 5/23/23
f 9/28/28 7/30/30 3/29/29 2/27/27
o object_2
usemtl WhitePlastic
v -24 8 -2
v -24 46 -2
v -24 8 -7
v -24 46 -7
v -20.12973022460938 11.06396389007568 -13
v -20.12973022460938 42.93603515625 -13
v -20 12 -2.000000953674316
v -20 42 -2.000000953674316
v -20 12 -2.000001430511475
v -20 42 -2.000001430511475
v -20 42 -4.500000953674316
v -20 12 -4.500001430511475
v -15.89189147949219 14.41891860961914 -38
v -15.89189147949219 39.58108139038086 -38
v 15.89189147949219 14.41891860961914 -38
v 15.89189147949219 39.58108139038086 -38
v 20 12 -2.000000715255737
v 20 42 -2.000000715255737
v 20 12 -2.000001192092896
v 20 42 -2.000001192092896
v 20 12 -4.500000953674316
v 20 42 -4.500000953674316
v 20.12973022460938 11.06396389007568 -13
v 20.12973022460938 42.93603515625 -13
v 24 8 -2
v 24 46 -2
v 24 8 -7
v 24 46 -7
vt 0 0
vt 0 1
vt 1 0
vt 1 1
vt 0.0833333358168602 0.1052631586790085
vt 0.0833333358168602 0.8947368264198303
vt 0.9166666865348816 0.1052631586790085
vt 0.9166666865348816 0.8947368264198303
vt 0 0
vt 0 1
vt 1 0
vt 1 1
vt 0 0
vt 0 1
vt 1 0
vt 1 1
vt 0 0
vt 0 1
vt 1 0
vt 1 1
vt 0 0
vt 0 1
vt 1 0
vt 1 1
vt 0 0
vt 0 1
vt 1 0
vt 1 1
vt 0 0
vt 0 1
vt 1 0
vt 1 1
vt 0 0
vt 0 1
vt 1 0
vt 1 1
vt 0 0
vt 0 1
vt 1 0
vt 1 1
vt 0 0
vt 0 1
vt 1 0
vt 1 1
vt 0 0
vt 0 1
vt 1 0
vt 1 1
vt 0 0
vt 0 1
vt 1 0
vt 1 1
vt 0 0
vt 0 1
vt 1 0
vt 1 1
vt 0 0
vt 0 1
vt 1 0
vt 1 1
vt 0 0
vt 0 1
vt 1 0
vt 1 1
vt 0 0
vt 0 1
vt 1 0
vt 1 1
vt 0 0
vt 0 1
vt 1 0
vt 1 1
vt 0 0
vt 0 1
vt 1 0
vt 1 1
vn 0 0 1
vn 0 0 1
vn 0 0 1
vn 0 0 1
vn 0 0 1
vn 0 0 1
vn 0 0 1
vn 0 0 1
vn 0 0 -1
vn 0 0 -1
vn 0 0 -1
vn 0 0 -1
vn -0.9859349727630615 0 -0.1671293079853058
vn -0.9859349727630615 0 -0.1671293079853058
vn -0.9859349727630615 0 -0.1671293079853058
vn -0.9859349727630615 0 -0.1671293079853058
vn -0.8403411507606506 0 -0.5420578718185425
vn -0.8403411507606506 0 -0.5420578718185425
vn -0.8403411507606506 0 -0.5420578718185425
vn -0.8403411507606506 0 -0.5420578718185425
vn -1 0 0
vn -1 0 0
vn -1 0 0
vn -1 0 0
vn 0 0.9911152720451355 -0.1330058872699738
vn 0 0.9911152720451355 -0.1330058872699738
vn 0 0.9911152720451355 -0.1330058872699738
vn 0 0.9911152720451355 -0.1330058872699738
vn 0.9859349727630615 0 -0.1671293079853058
vn 0.9859349727630615 0 -0.1671293079853058
vn 0.9859349727630615 0 -0.1671293079853058
vn 0.9859349727630615 0 -0.1671293079853058
vn 0 -0.9911152720451355 -0.1330058872699738
vn 0 -0.9911152720451355 -0.1330058872699738
vn 0 -0.9911152720451355 -0.1330058872699738
vn 0 -0.9911152720451355 -0.1330058872699738
vn 0 0.8905972242355347 -0.4547929465770721
vn 0 0.8905972242355347 -0.4547929465770721
vn 0 0.8905972242355347 -0.4547929465770721
vn 0 0.8905972242355347 -0.4547929465770721
vn 0.8403411507606506 0 -0.5420578718185425
vn 0.8403411507606506 0 -0.5420578718185425
vn 0.8403411507606506 0 -0.5420578718185425
vn 0.8403411507606506 0 -0.5420578718185425
vn 0 -0.8905972242355347 -0.4547929465770721
vn 0 -0.8905972242355347 -0.4547929465770721
vn 0 -0.8905972242355347 -0.4547929465770721
vn 0 -0.8905972242355347 -0.4547929465770721
vn 0 1 0
vn 0 1 0
vn 0 1 0
vn 0 1 0
vn 1 0 0
vn 1 0 0
vn 1 0 0
vn 1 0 0
vn 0 -1 0
vn 0 -1 0
vn 0 -1 0
vn 0 -1 0
vn -3.375077994860476e-14 -1 0
vn -3.375077994860476e-14 -1 0
vn 4.263256414560601e-14 -1 0
vn 4.263256414560601e-14 -1 0
vn -1 3.286260152890463e-14 0
vn -1 3.286260152890463e-14 0
vn -1 -3.33066907387547e-14 0
vn -1 -3.33066907387547e-14 0
vn 1 -4.196643033083092e-14 0
vn 1 -4.196643033083092e-14 0
vn 1 5.018208071305708e-14 0
vn 1 5.018208071305708e-14 0
vn 5.007105841059456e-14 1 0
vn 5.007105841059456e-14 1 0
vn -3.308464613382967e-14 1 0
vn -3.308464613382967e-14 1 0
f 10/32/32 18/36/36 19/35/35 11/31/31
f 11/31/31 19/35/35 29/37/37 35/33/33
f 18/36/36 10/32/32 34/34/34 28/38/38
f 35/33/33 29/37/37 28/38/38 34/34/34
f 23/40/40 25/42/42 24/41/41 22/39/39
f 23/44/44 22/43/43 14/45/45 15/46/46
f 15/48/48 14/47/47 12/49/49 13/50/50
f 13/52/52 12/51/51 10/53/53 11/54/54
f 25/56/56 23/55/55 15/57/57 33/58/58
f 24/60/60 25/59/59 33/61/61 32/62/62
f 22/64/64 24/63/63 32/65/65 14/66/66
f 33/68/68 15/67/67 13/69/69 37/70/70
f 32/72/72 33/71/71 37/73/73 36/74/74
f 14/76/76 32/75/75 36/77/77 12/78/78
f 37/80/80 13/79/79 11/81/81 35/82/82
f 36/84/84 37/83/83 35/85/85 34/86/86
f 12/88/88 36/87/87 34/89/89 10/90/90
f 31/92/92 27/91/91 17/93/93 20/94/94
f 30/96/96 26/95/95 27/97/97 31/98/98
f 20/100/100 17/99/99 16/101/101 21/102/102
f 21/104/104 16/103/103 26/105/105 30/106/106
o object_3
usemtl BlueScreenEmissive
v -20 42 -4.500000953674316
v -20 12 -4.500001430511475
v 1.953992523340276e-14 42 -4.499999523162842
v 4.707345624410664e-14 12 -4.499999523162842
v 20 12 -4.500000953674316
v 20 42 -4.500000953674316
vt 0.08333288878202438 0.9166690111160278
vt 0.08333291113376617 0.08333491533994675
vt 0.5 0.08333307504653931
vt 0.9166668653488159 0.08333471417427063
vt 0.9166668653488159 0.9166685938835144
vt 0.5 0.9166662693023682
vn -1.659392836472762e-07 -2.158464269541582e-07 1
vn -1.514249845513405e-07 2.012849620314228e-07 1
vn -2.732848614073191e-09 1.078277804822392e-07 1
vn 1.377555491899329e-07 1.79181128601158e-07 1
vn 1.332484771410236e-07 -1.816189296732773e-07 1
vn -1.120004089472104e-09 -1.107408635903084e-07 1
f 38/108/108 39/107/107 41/112/112
f 40/109/109 38/108/108 41/112/112
f 42/111/111 43/110/110 41/112/112
f 40/109/109 41/112/112 43/110/110
