# Rhino

mtllib MonitorTFT_21.mtl
g Todo__MinotorTFT__Body
o object_1
usemtl CoalPlastic
v -14 0 -7
v -14 2 -7
v -12.5 0 -2.5
v -12.5 2 -2.5
v -11 0 2
v -11 2 2
v -5.196152210235596 2 -5.5
v -5.196152210235596 7 -5.5
v -5.196152210235596 12 -5.5
v -5.196152210235596 2 -7
v -5.196152210235596 7 -7
v -5.196152210235596 12 -7
v 0 0 2
v 0 2 2
v 0 2 -5.5
v 0 12 -5.5
v 0 0 -7
v 0 2 -7
v 0 12 -7
v 5.196152210235596 2 -5.5
v 5.196152210235596 7 -5.5
v 5.196152210235596 12 -5.5
v 5.196152210235596 2 -7
v 5.196152210235596 7 -7
v 5.196152210235596 12 -7
v 11 0 2
v 11 2 2
v 12.5 0 -2.5
v 12.5 2 -2.5
v 14 0 -7
v 14 2 -7
vt 0 0
vt 0 1
vt 1 0
vt 1 1
vt 0.5 0
vt 0.5 1
vt 0 0
vt 0 1
vt 1 0
vt 1 1
vt 0.5 0
vt 0.5 1
vt 0 0
vt 0 1
vt 1 0
vt 1 1
vt 0.5 0
vt 0.3144231140613556 1
vt 0.685576856136322 1
vt 0.5 1
vt 0 0
vt 0 1
vt 1 0
vt 1 1
vt 0.5 0
vt 0.5 1
vt 0.1000000014901161 0.8999999761581421
vt 0.8999999761581421 0.8999999761581421
vt 0.1857142895460129 0.1000000014901161
vt 0.5 0.1000000014901161
vt 0.8142856955528259 0.1000000014901161
vt 0.8571428656578064 0.5
vt 0.5 0.8999999761581421
vt 0.1428571492433548 0.5
vt 0.1000000014901161 0.8999999761581421
vt 0.8999999761581421 0.8999999761581421
vt 0.1857142895460129 0.1000000014901161
vt 0.5 0.1000000014901161
vt 0.8142856955528259 0.1000000014901161
vt 0.8571428656578064 0.5
vt 0.6484615206718445 0.8999999761581421
vt 0.1428571492433548 0.5
vt 0.6484615206718445 0.7666666507720947
vt 0.5 0.7666666507720947
vt 0.3515385091304779 0.7666666507720947
vt 0.3515385091304779 0.8999999761581421
vt 0 0
vt 0 1
vt 1 0
vt 1 1
vt 1 0.5
vt 0.5 1
vt 0 0.5
vt 0.5 0
vt 0 0
vt 0 1
vt 1 0
vt 1 1
vt 0 0.5
vt 1 0.5
vt 0 0
vt 0 1
vt 1 0
vt 1 1
vt 0 0.5
vt 1 0.5
vt 0.5 1
vt 0.5 0
vt 0 0
vt 0 1
vt 1 0
vt 1 1
vt 1 0.5
vt 0 0.5
vt 0 0
vt 0 1
vt 1 0
vt 1 1
vt 0.5 0
vt 0.5 1
vn 0 0 1
vn 0 0 1
vn 0 0 1
vn 0 0 1
vn 0 0 1
vn 0 0 1
vn 0.9486833214759827 0 0.3162277638912201
vn 0.9486833214759827 0 0.3162277638912201
vn 0.9486833214759827 0 0.3162277638912201
vn 0.9486833214759827 0 0.3162277638912201
vn 0.9486833214759827 0 0.3162277638912201
vn 0.9486833214759827 0 0.3162277638912201
vn 0 0 -1
vn 0 0 -1
vn 0 0 -1
vn 0 0 -1
vn 0 0 -1
vn 0 0 -1
vn 0 0 -1
vn 0 0 -1
vn -0.9486833214759827 0 0.3162277638912201
vn -0.9486833214759827 0 0.3162277638912201
vn -0.9486833214759827 0 0.3162277638912201
vn -0.9486833214759827 0 0.3162277638912201
vn -0.9486833214759827 0 0.3162277638912201
vn -0.9486833214759827 0 0.3162277638912201
vn 0 -1 0
vn 0 -1 0
vn 0 -1 0
vn 0 -1 0
vn 0 -1 0
vn 0 -1 0
vn 0 -1 0
vn 0 -1 0
vn 0 1 0
vn 0 1 0
vn 0 1 0
vn 0 1 0
vn 0 1 0
vn 0 1 0
vn 0 1 0
vn 0 1 0
vn 0 1 0
vn 0 1 0
vn 0 1 0
vn 0 1 0
vn 0 0 1
vn 0 0 1
vn 0 0 1
vn 0 0 1
vn 0 0 1
vn 0 0 1
vn 0 0 1
vn 0 0 1
vn 1 0 0
vn 1 0 0
vn 1 0 0
vn 1 0 0
vn 1 0 0
vn 1 0 0
vn 0 0 -1
vn 0 0 -1
vn 0 0 -1
vn 0 0 -1
vn 0 0 -1
vn 0 0 -1
vn 0 0 -1
vn 0 0 -1
vn -1 0 0
vn -1 0 0
vn -1 0 0
vn -1 0 0
vn -1 0 0
vn -1 0 0
vn 0 1 0
vn 0 1 0
vn 0 1 0
vn 0 1 0
vn 0 1 0
vn 0 1 0
f 6/2/2 5/1/1 13/5/5 14/6/6
f 26/3/3 27/4/4 14/6/6 13/5/5
f 27/8/8 26/7/7 28/11/11 29/12/12
f 30/9/9 31/10/10 29/12/12 28/11/11
f 30/13/13 17/17/17 23/18/18 31/14/14
f 23/18/18 17/17/17 18/20/20
f 18/20/20 17/17/17 10/19/19
f 17/17/17 1/15/15 2/16/16 10/19/19
f 2/22/22 1/21/21 3/25/25 4/26/26
f 5/23/23 6/24/24 4/26/26 3/25/25
f 3/34/34 13/30/30 5/29/29
f 3/34/34 1/27/27 17/33/33
f 28/32/32 13/30/30 3/34/34
f 3/34/34 17/33/33 28/32/32
f 28/32/32 17/33/33 30/28/28
f 26/31/31 13/30/30 28/32/32
f 14/38/38 4/42/42 6/37/37
f 15/44/44 7/45/45 4/42/42
f 10/46/46 2/35/35 7/45/45
f 4/42/42 7/45/45 2/35/35
f 14/38/38 15/44/44 4/42/42
f 15/44/44 14/38/38 29/40/40
f 27/39/39 29/40/40 14/38/38
f 20/43/43 15/44/44 29/40/40
f 23/41/41 20/43/43 31/36/36
f 29/40/40 31/36/36 20/43/43
f 8/53/53 7/47/47 15/54/54
f 8/53/53 16/52/52 9/48/48
f 21/51/51 8/53/53 15/54/54
f 8/53/53 21/51/51 16/52/52
f 21/51/51 22/50/50 16/52/52
f 20/49/49 21/51/51 15/54/54
f 21/59/59 20/55/55 23/57/57 24/60/60
f 22/56/56 21/59/59 24/60/60 25/58/58
f 24/65/65 23/61/61 18/68/68
f 24/65/65 19/67/67 25/62/62
f 11/66/66 24/65/65 18/68/68
f 24/65/65 11/66/66 19/67/67
f 11/66/66 12/64/64 19/67/67
f 10/63/63 11/66/66 18/68/68
f 11/74/74 10/69/69 7/71/71 8/73/73
f 12/70/70 11/74/74 8/73/73 9/72/72
f 12/76/76 9/75/75 16/79/79 19/80/80
f 22/77/77 25/78/78 19/80/80 16/79/79
o object_2
usemtl CoalPlastic
v -18.5 5.5 0
v -18.5 9.357142448425293 0
v -18.5 13.2142858505249 0
v -18.5 17.0714282989502 0
v -18.5 20.92857170104981 0
v -18.5 24.78571510314941 0
v -18.5 28.64285659790039 0
v -18.5 32.5 0
v -18.5 5.5 -4
v -18.5 19 -4
v -18.5 32.5 -4
v -17.5 6.5 0
v -17.5 10.0714282989502 0
v -17.5 13.64285755157471 0
v -17.5 17.21428489685059 0
v -17.5 20.78571510314941 0
v -17.5 24.35714340209961 0
v -17.5 27.92857170104981 0
v -17.5 31.5 0
v -17.5 6.5 -1
v -17.5 31.5 -1
v -14.80000019073486 5.5 0
v -14.80000019073486 32.5 0
v -13.61111068725586 6.5 0
v -13.61111068725586 31.5 0
v -11.10000038146973 5.5 0
v -11.10000038146973 32.5 0
v -9.722222328186035 6.5 0
v -9.722222328186035 31.5 0
v -7.400000095367432 5.5 0
v -7.400000095367432 32.5 0
v -5.833333492279053 6.5 0
v -5.833333492279053 31.5 0
v -3.700000047683716 5.5 0
v -3.700000047683716 32.5 0
v -1.944444417953491 6.5 0
v -1.944444417953491 31.5 0
v 0 5.5 0
v 0 32.5 0
v 0 5.5 -4
v 0 32.5 -4
v 1.944444417953491 6.5 0
v 1.944444417953491 31.5 0
v 3.700000047683716 5.5 0
v 3.700000047683716 32.5 0
v 5.833333492279053 6.5 0
v 5.833333492279053 31.5 0
v 7.400000095367432 5.5 0
v 7.400000095367432 32.5 0
v 9.722222328186035 6.5 0
v 9.722222328186035 31.5 0
v 11.10000038146973 5.5 0
v 11.10000038146973 32.5 0
v 13.61111068725586 6.5 0
v 13.61111068725586 31.5 0
v 14.80000019073486 5.5 0
v 14.80000019073486 32.5 0
v 17.5 6.5 0
v 17.5 10.0714282989502 0
v 17.5 13.64285755157471 0
v 17.5 17.21428489685059 0
v 17.5 20.78571510314941 0
v 17.5 24.35714340209961 0
v 17.5 27.92857170104981 0
v 17.5 31.5 0
v 17.5 6.5 -1
v 17.5 31.5 -1
v 18.5 5.5 0
v 18.5 9.357142448425293 0
v 18.5 13.2142858505249 0
v 18.5 17.0714282989502 0
v 18.5 20.92857170104981 0
v 18.5 24.78571510314941 0
v 18.5 28.64285659790039 0
v 18.5 32.5 0
v 18.5 5.5 -4
v 18.5 19 -4
v 18.5 32.5 -4
vt 0 0
vt 0 1
vt 1 0
vt 1 1
vt 0.1111111119389534 0
vt 0.2222222238779068 0
vt 0.3333333432674408 0
vt 0.4444444477558136 0
vt 0.5555555820465088 0
vt 0.6666666865348816 0
vt 0.7777777910232544 0
vt 0.8888888955116272 0
vt 0 0
vt 0 1
vt 1 0
vt 1 1
vt 0.1428571492433548 0
vt 0.2857142984867096 0
vt 0.4285714328289032 0
vt 0.5714285969734192 0
vt 0.7142857313156128 0
vt 0.8571428656578064 0
vt 0 0
vt 0 1
vt 1 0
vt 1 1
vt 0.1111111119389534 0
vt 0.2222222238779068 0
vt 0.3333333432674408 0
vt 0.4444444477558136 0
vt 0.5555555820465088 0
vt 0.6666666865348816 0
vt 0.7777777910232544 0
vt 0.8888888955116272 0
vt 0 0
vt 0 1
vt 1 0
vt 1 1
vt 0.1428571492433548 0
vt 0.2857142984867096 0
vt 0.4285714328289032 0
vt 0.5714285969734192 0
vt 0.7142857313156128 0
vt 0.8571428656578064 0
vt 0 0
vt 0 1
vt 1 0
vt 1 1
vt 1 0.5
vt 0.5 1
vt 0 0.5
vt 0.5 0
vt 0 0
vt 0 0.7142857313156128
vt 0 1
vt 1 0
vt 1 1
vt 0.9729729890823364 0.03703703731298447
vt 0.8678678870201111 0.03703703731298447
vt 0.7627627849578857 0.03703703731298447
vt 0.6576576828956604 0.03703703731298447
vt 0.5525525808334351 0.03703703731298447
vt 0.4474474489688873 0.03703703731298447
vt 0.342342346906662 0.03703703731298447
vt 0.2372372299432755 0.03703703731298447
vt 0.1321321278810501 0.03703703731298447
vt 0.02702702768146992 0.03703703731298447
vt 0.02702702768146992 0.1693121641874313
vt 0.02702702768146992 0.30158731341362
vt 0.02702702768146992 0.4338624477386475
vt 0.02702702768146992 0.5661375522613525
vt 0.02702702768146992 0.6984127163887024
vt 0.02702702768146992 0.8306878209114075
vt 0.02702702768146992 0.9629629850387573
vt 0.1321321278810501 0.9629629850387573
vt 0.2372372299432755 0.9629629850387573
vt 0.342342346906662 0.9629629850387573
vt 0.4474474489688873 0.9629629850387573
vt 0.5525525808334351 0.9629629850387573
vt 0.6576576828956604 0.9629629850387573
vt 0.7627627849578857 0.9629629850387573
vt 0.8678678870201111 0.9629629850387573
vt 0.9729729890823364 0.9629629850387573
vt 0.9729729890823364 0.8306878209114075
vt 0.9729729890823364 0.6984127163887024
vt 0.9729729890823364 0.5661375522613525
vt 0.9729729890823364 0.4338624477386475
vt 0.9729729890823364 0.30158731341362
vt 0.9729729890823364 0.1693121641874313
vt 1 0.1428571492433548
vt 1 0.2857142984867096
vt 1 0.4285714328289032
vt 1 0.5714285969734192
vt 1 0.7142857313156128
vt 1 0.8571428656578064
vt 0.8999999761581421 1
vt 0.800000011920929 1
vt 0.699999988079071 1
vt 0.6000000238418579 1
vt 0.5 1
vt 0.4000000059604645 1
vt 0.300000011920929 1
vt 0.2000000029802322 1
vt 0.1000000014901161 1
vt 0 0.8571428656578064
vt 0 0.5714285969734192
vt 0 0.4285714328289032
vt 0 0.2857142984867096
vt 0 0.1428571492433548
vt 0.1000000014901161 0
vt 0.2000000029802322 0
vt 0.300000011920929 0
vt 0.4000000059604645 0
vt 0.5 0
vt 0.6000000238418579 0
vt 0.699999988079071 0
vt 0.800000011920929 0
vt 0.8999999761581421 0
vt 0 0
vt 0 1
vt 1 0
vt 1 1
vt 0.5 1
vt 0.1000000014901161 0
vt 0.2000000029802322 0
vt 0.300000011920929 0
vt 0.4000000059604645 0
vt 0.5 0
vt 0.6000000238418579 0
vt 0.699999988079071 0
vt 0.800000011920929 0
vt 0.8999999761581421 0
vt 0 0
vt 0 1
vt 1 0
vt 1 1
vt 0.5 1
vt 0.1428571492433548 0
vt 0.2857142984867096 0
vt 0.4285714328289032 0
vt 0.5714285969734192 0
vt 0.7142857313156128 0
vt 0.8571428656578064 0
vt 0 0
vt 0 1
vt 1 0
vt 1 1
vt 0.5 1
vt 0.1000000014901161 0
vt 0.2000000029802322 0
vt 0.300000011920929 0
vt 0.4000000059604645 0
vt 0.5 0
vt 0.6000000238418579 0
vt 0.699999988079071 0
vt 0.800000011920929 0
vt 0.8999999761581421 0
vt 0 0
vt 0 1
vt 1 0
vt 1 1
vt 0.5 1
vt 0.1428571492433548 0
vt 0.2857142984867096 0
vt 0.4285714328289032 0
vt 0.5714285969734192 0
vt 0.7142857313156128 0
vt 0.8571428656578064 0
vn -2.775557561562891e-17 1 0
vn -2.775557561562891e-17 1 0
vn -2.775557561562891e-17 1 0
vn -2.775557561562891e-17 1 0
vn -2.775557561562891e-17 1 0
vn -2.775557561562891e-17 1 0
vn -2.775557561562891e-17 1 0
vn -2.775557561562891e-17 1 0
vn -2.775557561562891e-17 1 0
vn -2.775557561562891e-17 1 0
vn -2.775557561562891e-17 1 0
vn -2.775557561562891e-17 1 0
vn -1 0 0
vn -1 0 0
vn -1 0 0
vn -1 0 0
vn -1 0 0
vn -1 0 0
vn -1 0 0
vn -1 0 0
vn -1 0 0
vn -1 0 0
vn 0 -1 0
vn 0 -1 0
vn 0 -1 0
vn 0 -1 0
vn 0 -1 0
vn 0 -1 0
vn 0 -1 0
vn 0 -1 0
vn 0 -1 0
vn 0 -1 0
vn 0 -1 0
vn 0 -1 0
vn 1 -2.220446049250313e-16 0
vn 1 -2.220446049250313e-16 0
vn 1 -2.220446049250313e-16 0
vn 1 -2.220446049250313e-16 0
vn 1 -2.220446049250313e-16 0
vn 1 -2.220446049250313e-16 0
vn 1 -2.220446049250313e-16 0
vn 1 -2.220446049250313e-16 0
vn 1 -2.220446049250313e-16 0
vn 1 -2.220446049250313e-16 0
vn 0 0 -1
vn 0 0 -1
vn 0 0 -1
vn 0 0 -1
vn 0 0 -1
vn 0 0 -1
vn 0 0 -1
vn 0 0 -1
vn 0 0 1
vn 0 0 1
vn 0 0 1
vn 0 0 1
vn 0 0 1
vn 0 0 1
vn 0 0 1
vn 0 0 1
vn 0 0 1
vn 0 0 1
vn 0 0 1
vn 0 0 1
vn 0 0 1
vn 0 0 1
vn 0 0 1
vn 0 0 1
vn 0 0 1
vn 0 0 1
vn 0 0 1
vn 0 0 1
vn 0 0 1
vn 0 0 1
vn 0 0 1
vn 0 0 1
vn 0 0 1
vn 0 0 1
vn 0 0 1
vn 0 0 1
vn 0 0 1
vn 0 0 1
vn 0 0 1
vn 0 0 1
vn 0 0 1
vn 0 0 1
vn 0 0 1
vn 0 0 1
vn 0 0 1
vn 0 0 1
vn 0 0 1
vn 0 0 1
vn 0 0 1
vn 0 0 1
vn 0 0 1
vn 0 0 1
vn 0 0 1
vn 0 0 1
vn 0 0 1
vn 0 0 1
vn 0 0 1
vn 0 0 1
vn 0 0 1
vn 0 0 1
vn 0 0 1
vn 0 0 1
vn 0 0 1
vn 0 0 1
vn 0 0 1
vn 0 0 1
vn 0 0 1
vn 0 0 1
vn 0 0 1
vn 0 0 1
vn 0 0 1
vn 0 0 1
vn 0 0 1
vn 0 0 1
vn 0 -1 0
vn 0 -1 0
vn 0 -1 0
vn 0 -1 0
vn 0 -1 0
vn 0 -1 0
vn 0 -1 0
vn 0 -1 0
vn 0 -1 0
vn 0 -1 0
vn 0 -1 0
vn 0 -1 0
vn 0 -1 0
vn 0 -1 0
vn 1 0 0
vn 1 0 0
vn 1 0 0
vn 1 0 0
vn 1 0 0
vn 1 0 0
vn 1 0 0
vn 1 0 0
vn 1 0 0
vn 1 0 0
vn 1 0 0
vn 0 1 0
vn 0 1 0
vn 0 1 0
vn 0 1 0
vn 0 1 0
vn 0 1 0
vn 0 1 0
vn 0 1 0
vn 0 1 0
vn 0 1 0
vn 0 1 0
vn 0 1 0
vn 0 1 0
vn 0 1 0
vn -1 0 0
vn -1 0 0
vn -1 0 0
vn -1 0 0
vn -1 0 0
vn -1 0 0
vn -1 0 0
vn -1 0 0
vn -1 0 0
vn -1 0 0
vn -1 0 0
f 97/82/82 85/85/85 89/81/81
f 97/82/82 81/86/86 85/85/85
f 73/88/88 77/87/87 97/82/82
f 81/86/86 97/82/82 77/87/87
f 67/89/89 73/88/88 97/82/82
f 51/84/84 63/90/90 67/89/89
f 51/84/84 59/91/91 63/90/90
f 51/84/84 43/83/83 55/92/92
f 59/91/91 51/84/84 55/92/92
f 97/82/82 51/84/84 67/89/89
f 98/94/94 95/97/97 96/93/93
f 93/99/99 94/98/98 98/94/94
f 95/97/97 98/94/94 94/98/98
f 92/100/100 93/99/99 98/94/94
f 97/96/96 91/101/101 92/100/100
f 97/96/96 89/95/95 90/102/102
f 91/101/101 97/96/96 90/102/102
f 98/94/94 97/96/96 92/100/100
f 52/104/104 56/107/107 50/103/103
f 52/104/104 60/108/108 56/107/107
f 68/110/110 64/109/109 52/104/104
f 60/108/108 52/104/104 64/109/109
f 74/111/111 68/110/110 52/104/104
f 98/106/106 78/112/112 74/111/111
f 98/106/106 82/113/113 78/112/112
f 98/106/106 96/105/105 86/114/114
f 82/113/113 98/106/106 86/114/114
f 52/104/104 98/106/106 74/111/111
f 51/116/116 44/119/119 43/115/115
f 46/121/121 45/120/120 51/116/116
f 44/119/119 51/116/116 45/120/120
f 47/122/122 46/121/121 51/116/116
f 52/118/118 48/123/123 47/122/122
f 52/118/118 50/117/117 49/124/124
f 48/123/123 52/118/118 49/124/124
f 51/116/116 52/118/118 47/122/122
f 108/131/131 107/125/125 71/132/132
f 108/131/131 72/130/130 109/126/126
f 41/129/129 108/131/131 71/132/132
f 108/131/131 41/129/129 72/130/130
f 41/129/129 42/128/128 72/130/130
f 40/127/127 41/129/129 71/132/132
f 100/189/189 90/148/148 89/147/147 99/133/133
f 99/133/133 89/147/147 85/146/146 87/190/190
f 102/187/187 92/150/150 91/149/149 101/188/188
f 90/148/148 100/189/189 101/188/188 91/149/149
f 81/145/145 79/192/192 83/191/191
f 73/143/143 69/194/194 75/193/193
f 77/144/144 75/193/193 79/192/192
f 81/145/145 83/191/191 87/190/190 85/146/146
f 77/144/144 79/192/192 81/145/145
f 77/144/144 73/143/143 75/193/193
f 92/150/150 102/187/187 103/186/186 93/151/151
f 93/151/151 103/186/186 104/134/134 94/152/152
f 105/185/185 95/153/153 94/152/152 104/134/134
f 95/153/153 105/185/185 106/135/135 96/154/154
f 96/154/154 106/135/135 88/184/184 86/155/155
f 82/156/156 84/183/183 80/182/182 78/157/157
f 86/155/155 88/184/184 84/183/183 82/156/156
f 76/181/181 74/158/158 78/157/157 80/182/182
f 70/180/180 74/158/158 76/181/181
f 67/142/142 65/195/195 69/194/194 73/143/143
f 63/141/141 61/196/196 65/195/195
f 55/139/139 53/198/198 57/197/197
f 61/196/196 63/141/141 59/140/140 57/197/197
f 65/195/195 67/142/142 63/141/141
f 59/140/140 55/139/139 57/197/197
f 43/138/138 32/136/136 53/198/198 55/139/139
f 33/170/170 43/138/138 44/169/169
f 43/138/138 33/170/170 32/136/136
f 34/171/171 33/170/170 44/169/169
f 35/172/172 45/168/168 46/167/167
f 45/168/168 35/172/172 34/171/171
f 34/171/171 44/169/169 45/168/168
f 47/166/166 35/172/172 46/167/167
f 68/159/159 66/179/179 62/178/178 64/160/160
f 60/161/161 58/177/177 54/176/176 56/162/162
f 64/160/160 62/178/178 58/177/177 60/161/161
f 68/159/159 70/180/180 66/179/179
f 70/180/180 68/159/159 74/158/158
f 36/173/173 47/166/166 48/165/165
f 48/165/165 37/174/174 36/173/173
f 36/173/173 35/172/172 47/166/166
f 49/164/164 37/174/174 48/165/165
f 39/137/137 50/163/163 56/162/162 54/176/176
f 50/163/163 39/137/137 38/175/175
f 37/174/174 49/164/164 38/175/175
f 49/164/164 50/163/163 38/175/175
f 107/200/200 99/199/199 87/204/204
f 107/200/200 87/204/204 83/205/205
f 71/203/203 107/200/200 83/205/205 79/206/206
f 75/207/207 71/203/203 79/206/206
f 69/208/208 71/203/203 75/207/207
f 71/203/203 65/209/209 61/210/210
f 40/202/202 61/210/210 57/211/211
f 71/203/203 61/210/210 40/202/202
f 53/212/212 40/202/202 57/211/211
f 53/212/212 32/201/201 40/202/202
f 69/208/208 65/209/209 71/203/203
f 109/214/214 106/213/213 105/218/218
f 108/217/217 109/214/214 105/218/218 104/219/219
f 103/220/220 108/217/217 104/219/219
f 108/217/217 102/221/221 101/222/222
f 107/216/216 101/222/222 100/223/223
f 108/217/217 101/222/222 107/216/216
f 99/215/215 107/216/216 100/223/223
f 103/220/220 102/221/221 108/217/217
f 42/225/225 39/224/224 54/229/229
f 42/225/225 54/229/229 58/230/230
f 72/228/228 42/225/225 58/230/230 62/231/231
f 66/232/232 72/228/228 62/231/231
f 70/233/233 72/228/228 66/232/232
f 72/228/228 76/234/234 80/235/235
f 109/227/227 80/235/235 84/236/236
f 72/228/228 80/235/235 109/227/227
f 88/237/237 109/227/227 84/236/236
f 88/237/237 106/226/226 109/227/227
f 70/233/233 76/234/234 72/228/228
f 40/239/239 32/238/238 33/243/243
f 41/242/242 40/239/239 33/243/243 34/244/244
f 35/245/245 41/242/242 34/244/244
f 41/242/242 36/246/246 37/247/247
f 42/241/241 37/247/247 38/248/248
f 41/242/242 37/247/247 42/241/241
f 39/240/240 42/241/241 38/248/248
f 35/245/245 36/246/246 41/242/242
o object_3
usemtl BlueScreenEmissive
v -17.5 6.5 -1
v -17.5 31.5 -1
v 17.5 6.5 -1
v 17.5 31.5 -1
vt 0 0
vt 0 1
vt 1 0
vt 1 1
vn 0 0 1
vn 0 0 1
vn 0 0 1
vn 0 0 1
f 111/252/252 110/251/251 112/249/249 113/250/250
o object_4
usemtl CoalPlastic
v -5.196152210235596 12 -4
v -5.196152210235596 12 -7
v -2.598076105117798 16.5 -4
v -2.598076105117798 16.39284133911133 -5.523812770843506
v -4.440892098500626e-16 12 -4
v -4.440892098500626e-16 12 -7
v 0 21 -4
v 0 20.78568267822266 -4.04762601852417
v 2.598076105117798 16.5 -4
v 2.598076105117798 16.39284133911133 -5.523812770843506
v 5.196152210235596 12 -4
v 5.196152210235596 12 -7
vt 0.9901960492134094 0.9901960492134094
vt 0.5 0.9901960492134094
vt 0.009803921915590763 0.9901960492134094
vt 0.5 0.009803921915590763
vt 0.7450980544090271 0.5
vt 0.2549019753932953 0.5
vt 0.009803921915590763 0.009803921915590763
vt 0.5 0.009803921915590763
vt 0.9901960492134094 0.009803921915590763
vt 0.5 0.9901960492134094
vt 0.2549019753932953 0.5
vt 0.7450980544090271 0.5
vt 0 0
vt 0 1
vt 1 0
vt 1 1
vt 0 0.5
vt 1 0.5
vt 0 0
vt 0 1
vt 1 0
vt 1 1
vt 1 0.5
vt 0 0.5
vt 0 0
vt 0 1
vt 1 0
vt 1 1
vt 0 0.5
vt 1 0.5
vn 0 0.3185391426086426 -0.9479097127914429
vn 0 0.3185391426086426 -0.9479097127914429
vn 0 0.3185391426086426 -0.9479097127914429
vn 0 0.3185391426086426 -0.9479097127914429
vn 0 0.3185391426086426 -0.9479097127914429
vn 0 0.3185391426086426 -0.9479097127914429
vn 0 0 1
vn 0 0 1
vn 0 0 1
vn 0 0 1
vn 0 0 1
vn 0 0 1
vn 0.8607285618782044 0.5090641975402832 0
vn -0.1846372336149216 0.213200718164444 -0.9594032168388367
vn 0.8660253882408142 0.5 0
vn 0.351726233959198 0.2030692398548126 -0.9138115644454956
vn 0.8547489047050476 0.517763078212738 -0.03641035780310631
vn 0.8654905557632446 0.4996912181377411 -0.03513950109481812
vn 0.1846372336149216 0.213200718164444 -0.9594032168388367
vn -0.8607285618782044 0.5090641975402832 0
vn -0.351726233959198 0.2030692398548126 -0.9138115644454956
vn -0.8660253882408142 0.5 0
vn -0.8654905557632446 0.4996912181377411 -0.03513950109481812
vn -0.8547489047050476 0.517763078212738 -0.03641035780310631
vn -2.220446049250313e-16 -1 0
vn -2.220446049250313e-16 -1 0
vn -2.220446049250313e-16 -1 0
vn -2.220446049250313e-16 -1 0
vn -2.220446049250313e-16 -1 2.220446049250313e-16
vn -2.220446049250313e-16 -1 2.220446049250313e-16
f 119/254/254 115/255/255 117/258/258
f 123/257/257 119/254/254 117/258/258
f 119/254/254 123/257/257 125/253/253
f 121/256/256 123/257/257 117/258/258
f 116/263/263 114/259/259 118/260/260
f 122/264/264 116/263/263 118/260/260
f 116/263/263 122/264/264 120/262/262
f 118/260/260 124/261/261 122/264/264
f 123/269/269 122/270/270 124/267/267 125/265/265
f 121/266/266 120/268/268 122/270/270 123/269/269
f 117/276/276 116/275/275 120/273/273 121/271/271
f 115/272/272 114/274/274 116/275/275 117/276/276
f 119/281/281 118/282/282 114/279/279 115/277/277
f 125/278/278 124/280/280 118/282/282 119/281/281
