# Blender v2.77 (sub 0) OBJ File: 'No_Smoking_Sign.blend'
# www.blender.org
mtllib No_Smoking_Sign.mtl
o Cube_Cube.001
v 0.000000 0.000000 -0.000000
v 0.000000 0.200000 -0.000000
v 0.000000 0.000000 -0.150000
v 0.000000 0.200000 -0.150000
v 0.004885 0.000000 -0.000000
v 0.004885 0.200000 -0.000000
v 0.004885 0.000000 -0.150000
v 0.004885 0.200000 -0.150000
vt 0.8620 0.9998
vt 0.1432 0.9978
vt 0.1432 -0.0079
vt 0.8620 -0.0059
vt 0.8595 0.9964
vt 0.1373 0.9964
vt 0.1373 -0.0002
vt 0.8595 -0.0002
vn -1.0000 0.0000 0.0000
vn 1.0000 0.0000 0.0000
usemtl No_smoking_material
s off
f 2/1/1 4/2/1 3/3/1 1/4/1
f 8/5/2 6/6/2 5/7/2 7/8/2
