# Rhino

mtllib Painting_04.mtl
g object_1
usemtl Painting_04
v 28.29081153869629 5 -1
v 28.29081153869629 80.44216156005859 -1
v -28.29081153869629 5 -1
v -28.29081153869629 80.44216156005859 -1
v 28.29081153869629 5 0
v 28.29081153869629 80.44216156005859 0
v -28.29081153869629 5 0
v -28.29081153869629 80.44216156005859 0
v 28.29081153869629 5 0
v 28.29081153869629 5 -1
v -28.29081153869629 5 0
v -28.29081153869629 5 -1
v 28.29081153869629 80.44216156005859 0
v 28.29081153869629 80.44216156005859 -1
v 28.29081153869629 5 0
v 28.29081153869629 5 -1
v -28.29081153869629 80.44216156005859 0
v -28.29081153869629 80.44216156005859 -1
v 28.29081153869629 80.44216156005859 0
v 28.29081153869629 80.44216156005859 -1
v -28.29081153869629 5 0
v -28.29081153869629 5 -1
v -28.29081153869629 80.44216156005859 0
v -28.29081153869629 80.44216156005859 -1
vt 1 1.110223024625157e-16
vt 1 1
vt -5.471853192773324e-09 1.110223024625157e-16
vt -5.471853192773324e-09 1
vt 1 1.110223024625157e-16
vt 1 1
vt -5.471853192773324e-09 1.110223024625157e-16
vt -5.471853192773324e-09 1
vt 1 1.110223024625157e-16
vt 1 1.110223024625157e-16
vt -5.471853192773324e-09 1.110223024625157e-16
vt -5.471853192773324e-09 1.110223024625157e-16
vt 1 1
vt 1 1
vt 1 1.110223024625157e-16
vt 1 1.110223024625157e-16
vt -5.471853192773324e-09 1
vt -5.471853192773324e-09 1
vt 1 1
vt 1 1
vt -5.471853192773324e-09 1.110223024625157e-16
vt -5.471853192773324e-09 1.110223024625157e-16
vt -5.471853192773324e-09 1
vt -5.471853192773324e-09 1
vn 0 0 -1
vn 0 0 -1
vn 0 0 -1
vn 0 0 -1
vn 0 0 1
vn 0 0 1
vn 0 0 1
vn 0 0 1
vn 0 -1 0
vn 0 -1 0
vn 0 -1 0
vn 0 -1 0
vn 1 0 0
vn 1 0 0
vn 1 0 0
vn 1 0 0
vn 0 1 0
vn 0 1 0
vn 0 1 0
vn 0 1 0
vn -1 0 0
vn -1 0 0
vn -1 0 0
vn -1 0 0
f 2/2/2 1/1/1 3/3/3 4/4/4
f 6/6/6 8/8/8 7/7/7 5/5/5
f 10/10/10 9/9/9 11/11/11 12/12/12
f 14/14/14 13/13/13 15/15/15 16/16/16
f 18/18/18 17/17/17 19/19/19 20/20/20
f 22/22/22 21/21/21 23/23/23 24/24/24
g object_2
usemtl Wood
v -33.29080963134766 8.881784197001252e-16 0
v -33.29080963134766 8.881784197001252e-16 -2
v -33.29080963134766 85.44216156005859 0
v -33.29080963134766 85.44216156005859 -2
v -33.29080963134766 85.44216156005859 0
v -33.29080963134766 85.44216156005859 -2
v 33.29080963134766 85.44216156005859 0
v 33.29080963134766 85.44216156005859 -2
v 33.29080963134766 85.44216156005859 0
v 33.29080963134766 85.44216156005859 -2
v 33.29080963134766 8.881784197001252e-16 0
v 33.29080963134766 8.881784197001252e-16 -2
v 33.29080963134766 8.881784197001252e-16 0
v 33.29080963134766 8.881784197001252e-16 -2
v -33.29080963134766 8.881784197001252e-16 0
v -33.29080963134766 8.881784197001252e-16 -2
v -28.29081153869629 5 0
v -28.29081153869629 5 -2
v 28.29081153869629 5 0
v 28.29081153869629 5 -2
v 28.29081153869629 5 0
v 28.29081153869629 5 -2
v 28.29081153869629 80.44216156005859 0
v 28.29081153869629 80.44216156005859 -2
v 28.29081153869629 80.44216156005859 0
v 28.29081153869629 80.44216156005859 -2
v -28.29081153869629 80.44216156005859 0
v -28.29081153869629 80.44216156005859 -2
v -28.29081153869629 80.44216156005859 0
v -28.29081153869629 80.44216156005859 -2
v -28.29081153869629 5 0
v -28.29081153869629 5 -2
v -33.29080963134766 8.881784197001252e-16 0
v -33.29080963134766 85.44216156005859 0
v 33.29080963134766 85.44216156005859 0
v 33.29080963134766 8.881784197001252e-16 0
v -28.29081153869629 5 0
v 28.29081153869629 5 0
v 28.29081153869629 80.44216156005859 0
v -28.29081153869629 80.44216156005859 0
v -33.29080963134766 8.881784197001252e-16 -2
v -33.29080963134766 85.44216156005859 -2
v 33.29080963134766 85.44216156005859 -2
v 33.29080963134766 8.881784197001252e-16 -2
v -28.29081153869629 5 -2
v 28.29081153869629 5 -2
v 28.29081153869629 80.44216156005859 -2
v -28.29081153869629 80.44216156005859 -2
vt 0 0
vt 0 0.5073981881141663
vt 0.15625 0
vt 0.15625 0.5073981881141663
vt 0.15625 0
vt 0.15625 0.5073981881141663
vt 0.3125 0
vt 0.3125 0.5073981881141663
vt 0.3125 0
vt 0.3125 0.5073981881141663
vt 0.46875 0
vt 0.46875 0.5073981881141663
vt 0.46875 0
vt 0.46875 0.5073981881141663
vt 0.5625 0
vt 0.5625 0.5073981881141663
vt 0.5625 0
vt 0.5625 0.5073981881141663
vt 0.65625 0
vt 0.65625 0.5073981881141663
vt 0.65625 0
vt 0.65625 0.5073981881141663
vt 0.78125 0
vt 0.78125 0.5073981881141663
vt 0.78125 0
vt 0.78125 0.5073981881141663
vt 0.875 0
vt 0.875 0.5073981881141663
vt 0.875 0
vt 0.875 0.5073981881141663
vt 1 0
vt 1 0.5073981881141663
vt 0.1504011452198029 0.5073987245559692
vt 0 0.5073987245559692
vt 0 1
vt 0.1504011452198029 1
vt 0.1415998041629791 0.5443909764289856
vt 0.1415998041629791 0.9630076885223389
vt 0.00880134291946888 0.9630076885223389
vt 0.00880134291946888 0.5443909764289856
vt 0.1504011452198029 1
vt 0 1
vt 0 0.5073987245559692
vt 0.1504011452198029 0.5073987245559692
vt 0.1415998041629791 0.9630076885223389
vt 0.1415998041629791 0.5443909764289856
vt 0.00880134291946888 0.5443909764289856
vt 0.00880134291946888 0.9630076885223389
vn -1 0 0
vn -1 0 0
vn -1 0 0
vn -1 0 0
vn 0 1 0
vn 0 1 0
vn 0 1 0
vn 0 1 0
vn 1 0 0
vn 1 0 0
vn 1 0 0
vn 1 0 0
vn 0 -1 0
vn 0 -1 0
vn 0 -1 0
vn 0 -1 0
vn 0 1 0
vn 0 1 0
vn 0 1 0
vn 0 1 0
vn -1 0 0
vn -1 0 0
vn -1 0 0
vn -1 0 0
vn 0 -1 0
vn 0 -1 0
vn 0 -1 0
vn 0 -1 0
vn 1 0 0
vn 1 0 0
vn 1 0 0
vn 1 0 0
vn 0 0 1
vn 0 0 1
vn 0 0 1
vn 0 0 1
vn 0 0 1
vn 0 0 1
vn 0 0 1
vn 0 0 1
vn 0 0 -1
vn 0 0 -1
vn 0 0 -1
vn 0 0 -1
vn 0 0 -1
vn 0 0 -1
vn 0 0 -1
vn 0 0 -1
f 25/25/25 27/27/27 28/28/28 26/26/26
f 29/29/29 31/31/31 32/32/32 30/30/30
f 33/33/33 35/35/35 36/36/36 34/34/34
f 37/37/37 39/39/39 40/40/40 38/38/38
f 41/41/41 43/43/43 44/44/44 42/42/42
f 45/45/45 47/47/47 48/48/48 46/46/46
f 49/49/49 51/51/51 52/52/52 50/50/50
f 53/53/53 55/55/55 56/56/56 54/54/54
f 63/63/63 62/62/62 60/60/60
f 57/57/57 60/60/60 62/62/62
f 64/64/64 63/63/63 59/59/59
f 60/60/60 59/59/59 63/63/63
f 64/64/64 57/57/57 61/61/61
f 62/62/62 61/61/61 57/57/57
f 59/59/59 58/58/58 64/64/64
f 57/57/57 64/64/64 58/58/58
f 71/71/71 68/68/68 70/70/70
f 65/65/65 70/70/70 68/68/68
f 72/72/72 67/67/67 71/71/71
f 68/68/68 71/71/71 67/67/67
f 72/72/72 69/69/69 65/65/65
f 70/70/70 65/65/65 69/69/69
f 67/67/67 72/72/72 66/66/66
f 65/65/65 66/66/66 72/72/72
