# Rhino

mtllib Printer.mtl
g Printer__Body
o object_1
usemtl WhiteMatte
v -10.5 10.71450138092041 -17.39842033386231
v -10.5 10.57714080810547 -17.87918281555176
v -10.5 25.13735961914063 -21.51923751831055
v -10.5 25 -22
v 10.5 10.71450138092041 -17.39842033386231
v 10.5 10.57714080810547 -17.87918281555176
v 10.5 25.13735961914063 -21.51923751831055
v 10.5 25 -22
vt 0 0
vt 0 1
vt 1 0
vt 1 1
vt 0 0
vt 0 1
vt 1 0
vt 1 1
vt 0 0
vt 0 1
vt 1 0
vt 1 1
vt 0 0
vt 0 1
vt 1 0
vt 1 1
vt 0 0
vt 0 1
vt 1 0
vt 1 1
vt 0 0
vt 0 1
vt 1 0
vt 1 1
vn 0 0.2747211158275604 0.9615239500999451
vn 0 0.2747211158275604 0.9615239500999451
vn 0 0.2747211158275604 0.9615239500999451
vn 0 0.2747211158275604 0.9615239500999451
vn 0 -0.2747211158275604 -0.9615239500999451
vn 0 -0.2747211158275604 -0.9615239500999451
vn 0 -0.2747211158275604 -0.9615239500999451
vn 0 -0.2747211158275604 -0.9615239500999451
vn -1 0 0
vn -1 0 0
vn -1 0 0
vn -1 0 0
vn 0 0.9615239500999451 -0.2747211158275604
vn 0 0.9615239500999451 -0.2747211158275604
vn 0 0.9615239500999451 -0.2747211158275604
vn 0 0.9615239500999451 -0.2747211158275604
vn 1 0 0
vn 1 0 0
vn 1 0 0
vn 1 0 0
vn 0 -0.9615239500999451 0.2747211158275604
vn 0 -0.9615239500999451 0.2747211158275604
vn 0 -0.9615239500999451 0.2747211158275604
vn 0 -0.9615239500999451 0.2747211158275604
f 3/2/2 1/1/1 5/3/3 7/4/4
f 4/6/6 8/8/8 6/7/7 2/5/5
f 3/10/10 4/9/9 2/11/11 1/12/12
f 7/14/14 8/13/13 4/15/15 3/16/16
f 5/18/18 6/17/17 8/19/19 7/20/20
f 1/22/22 2/21/21 6/23/23 5/24/24
o object_2
usemtl WhiteMatte
v -10.5 5.5 25
v -10.5 6 25
v -10.5 5.5 -5
v -10.5 6 -5
v 10.5 5.5 25
v 10.5 6 25
v 10.5 5.5 -5
v 10.5 6 -5
vt 0 0
vt 0 1
vt 1 0
vt 1 1
vt 0 0
vt 0 1
vt 1 0
vt 1 1
vt 0 0
vt 0 1
vt 1 0
vt 1 1
vt 0 0
vt 0 1
vt 1 0
vt 1 1
vt 0 0
vt 0 1
vt 1 0
vt 1 1
vt 0 0
vt 0 1
vt 1 0
vt 1 1
vn 0 1 0
vn 0 1 0
vn 0 1 0
vn 0 1 0
vn 0 -1 0
vn 0 -1 0
vn 0 -1 0
vn 0 -1 0
vn -1 0 0
vn -1 0 0
vn -1 0 0
vn -1 0 0
vn 0 0 -1
vn 0 0 -1
vn 0 0 -1
vn 0 0 -1
vn 1 0 0
vn 1 0 0
vn 1 0 0
vn 1 0 0
vn 0 0 1
vn 0 0 1
vn 0 0 1
vn 0 0 1
f 12/26/26 10/25/25 14/27/27 16/28/28
f 11/30/30 15/32/32 13/31/31 9/29/29
f 12/34/34 11/33/33 9/35/35 10/36/36
f 16/38/38 15/37/37 11/39/39 12/40/40
f 14/42/42 13/41/41 15/43/43 16/44/44
f 10/46/46 9/45/45 13/47/47 14/48/48
o object_3
usemtl CoalPlastic
v -13 3 27
v -13 4 27
v -13 3 17
v -13 4 17
v 13 3 27
v 13 4 27
v 13 3 17
v 13 4 17
vt 0 0
vt 0 1
vt 1 0
vt 1 1
vt 0 0
vt 0 1
vt 1 0
vt 1 1
vt 0 0
vt 0 1
vt 1 0
vt 1 1
vt 0 0
vt 0 1
vt 1 0
vt 1 1
vt 0 0
vt 0 1
vt 1 0
vt 1 1
vt 0 0
vt 0 1
vt 1 0
vt 1 1
vn 0 0 1
vn 0 0 1
vn 0 0 1
vn 0 0 1
vn 0 0 -1
vn 0 0 -1
vn 0 0 -1
vn 0 0 -1
vn -1 0 0
vn -1 0 0
vn -1 0 0
vn -1 0 0
vn 0 1 0
vn 0 1 0
vn 0 1 0
vn 0 1 0
vn 1 0 0
vn 1 0 0
vn 1 0 0
vn 1 0 0
vn 0 -1 0
vn 0 -1 0
vn 0 -1 0
vn 0 -1 0
f 18/50/50 17/49/49 21/51/51 22/52/52
f 20/54/54 24/56/56 23/55/55 19/53/53
f 18/58/58 20/57/57 19/59/59 17/60/60
f 22/62/62 24/61/61 20/63/63 18/64/64
f 21/66/66 23/65/65 24/67/67 22/68/68
f 17/70/70 19/69/69 23/71/71 21/72/72
o object_4
usemtl CoalPlastic
v -13 15 -20
v -13 15 -21.51515197753906
v -13 22 -22
v -13 22 -23.51515197753906
v 13 15 -20
v 13 15 -21.51515197753906
v 13 22 -22
v 13 22 -23.51515197753906
vt 0 0
vt 0 1
vt 1 0
vt 1 1
vt 0 0
vt 0 1
vt 1 0
vt 1 1
vt 0 0
vt 0 1
vt 1 0
vt 1 1
vt 0 0
vt 0 1
vt 1 0
vt 1 1
vt 0 0
vt 0 1
vt 1 0
vt 1 1
vt 0 0
vt 0 1
vt 1 0
vt 1 1
vn 1 0 0
vn 1 0 0
vn 1 0 0
vn 1 0 0
vn 0 -0.2747211158275604 -0.9615239500999451
vn 0 -0.2747211158275604 -0.9615239500999451
vn 0 -0.2747211158275604 -0.9615239500999451
vn 0 -0.2747211158275604 -0.9615239500999451
vn -1 0 0
vn -1 0 0
vn -1 0 0
vn -1 0 0
vn 0 0.2747211158275604 0.9615239500999451
vn 0 0.2747211158275604 0.9615239500999451
vn 0 0.2747211158275604 0.9615239500999451
vn 0 0.2747211158275604 0.9615239500999451
vn 0 1 0
vn 0 1 0
vn 0 1 0
vn 0 1 0
vn 0 -1 0
vn 0 -1 0
vn 0 -1 0
vn 0 -1 0
f 29/74/74 30/73/73 32/75/75 31/76/76
f 30/78/78 26/77/77 28/79/79 32/80/80
f 26/82/82 25/81/81 27/83/83 28/84/84
f 25/86/86 29/85/85 31/87/87 27/88/88
f 27/90/90 31/92/92 32/91/91 28/89/89
f 26/94/94 30/96/96 29/95/95 25/93/93
o object_5
usemtl BlueScreenEmissive
v -6 11.34164047241211 14.31671810150147
v -6 14.02492237091065 8.950155258178711
v 6 11.34164047241211 14.31671810150147
v 6 14.02492237091065 8.950155258178711
vt 0.804984450340271 0.3522501289844513
vt 0.804984450340271 0.6477498412132263
vt 0.2683281600475311 0.3621842563152313
vt 0.2683281600475311 0.6378157138824463
vn -1.37547777789217e-17 0.8944271802902222 0.4472135901451111
vn -1.37547777789217e-17 0.8944271802902222 0.4472135901451111
vn 0 0.8944271802902222 0.4472135901451111
vn 0 0.8944271802902222 0.4472135901451111
f 35/100/100 36/98/98 34/97/97 33/99/99
o object_6
usemtl CoalPlastic
v -22.5 3 17
v -22.5 10 17
v -22.5 3 -24
v -22.5 10 -24
v -19.77272796630859 0 14.51515197753906
v -19.77272796630859 15 7
v -19.77272796630859 0 -21.51515197753906
v -19.77272796630859 15 -21.51515197753906
v -13 4 17
v -13 7 17
v -13 4 -8
v -13 7 -8
v -13 6 -16
v -13 15 -16
v -13 6 -20
v -13 15 -20
v -6 11.34164047241211 14.31671810150147
v -6 14.02492237091065 8.950155258178711
v 6 11.34164047241211 14.31671810150147
v 6 14.02492237091065 8.950155258178711
v 13 4 17
v 13 7 17
v 13 4 -8
v 13 7 -8
v 13 6 -16
v 13 15 -16
v 13 6 -20
v 13 15 -20
v 19.77272796630859 0 14.51515197753906
v 19.77272796630859 15 7
v 19.77272796630859 0 -21.51515197753906
v 19.77272796630859 15 -21.51515197753906
v 22.5 3 17
v 22.5 10 17
v 22.5 3 -24
v 22.5 10 -24
vt 0 0
vt 0 1
vt 1 0
vt 1 1
vt 0 0.1071428582072258
vt 0 1
vt 1 0.1071428582072258
vt 1 1
vt 0 0.1071428582072258
vt 0 1
vt 1 0.1071428582072258
vt 1 1
vt 0 0.1071428582072258
vt 0 1
vt 1 0.1071428582072258
vt 1 1
vt 0 0
vt 0 1
vt 1 0
vt 1 1
vt 0 0
vt 0 1
vt 1 0
vt 1 1
vt 0 0
vt 0 1
vt 1 0
vt 1 1
vt 0 0
vt 0 1
vt 1 0
vt 1 1
vt 0 0
vt 0 1
vt 1 0
vt 1 1
vt 0 0.1071428582072258
vt 0 1
vt 1 0.1071428582072258
vt 1 1
vt 0 0
vt 0 1
vt 1 0
vt 1 1
vt 0.8287356495857239 0.8065887093544006
vt 0.1712643653154373 0.8065887093544006
vt 0.8287356495857239 0.9468650221824646
vt 0.1712643653154373 0.9468650221824646
vt 0 0
vt 0 1
vt 1 0
vt 1 1
vt 0 0
vt 0 1
vt 1 0
vt 1 1
vt 0 0
vt 0 1
vt 1 0
vt 1 1
vt 0 0
vt 0 1
vt 1 0
vt 1 1
vt 0 0
vt 0 1
vt 1 0
vt 1 1
vt 0 0
vt 0 1
vt 1 0
vt 1 1
vt 0 0
vt 0 1
vt 1 0
vt 1 1
vt 0 0
vt 0 1
vt 1 0
vt 1 1
vt 0 0
vt 0 1
vt 1 0
vt 1 1
vt 0.5714285969734192 0.2111111134290695
vt 0.1428571492433548 0.2111111134290695
vt 0.1428571492433548 0.7888888716697693
vt 0.5714285969734192 0.7888888716697693
vt 0 0
vt 0 1
vt 1 0
vt 1 1
vt 0.2683281600475311 0.3621842563152313
vt 0.2683281600475311 0.6378157138824463
vt 0.804984450340271 0.3522501289844513
vt 0.804984450340271 0.6477498412132263
vt 0 0
vt 0 1
vt 1 0
vt 1 1
vt 0 0
vt 0 1
vt 1 0
vt 1 1
vt 0 0
vt 0 1
vt 1 0
vt 1 1
vn 0 0 1
vn 0 0 1
vn 0 0 1
vn 0 0 1
vn 1 -5.551115123125783e-17 0
vn 1 0 0
vn 1 -5.551115123125783e-17 0
vn 1 0 0
vn -1 5.551115123125783e-17 0
vn -1 0 0
vn -1 5.551115123125783e-17 0
vn -1 0 0
vn -6.938893903907228e-18 1 0
vn 0 1 0
vn -6.938893903907228e-18 1 0
vn 0 1 0
vn 0 1 0
vn 0 1 0
vn 0 1 0
vn 0 1 0
vn 0 0 -1
vn 0 0 -1
vn 0 0 -1
vn 0 0 -1
vn -1 0 0
vn -1 0 0
vn -1 0 0
vn -1 0 0
vn 0 0 1
vn 0 0 1
vn 0 0 1
vn 0 0 1
vn 1 0 0
vn 1 0 0
vn 1 0 0
vn 1 0 0
vn 2.081668171172169e-17 -1 0
vn 0 -1 0
vn 2.081668171172169e-17 -1 0
vn 0 -1 0
vn 0 1 0
vn 0 1 0
vn 0 1 0
vn 0 1 0
vn 0 1 0
vn 0 1 0
vn 0 1 0
vn 0 1 0
vn -0.7399400472640991 -0.6726728081703186 0
vn -0.7399400472640991 -0.6726728081703186 0
vn -0.7399400472640991 -0.6726728081703186 0
vn -0.7399400472640991 -0.6726728081703186 0
vn -1 0 0
vn -1 0 0
vn -1 0 0
vn -1 0 0
vn -0.8778955936431885 0.4788521230220795 0
vn -0.8778955936431885 0.4788521230220795 0
vn -0.8778955936431885 0.4788521230220795 0
vn -0.8778955936431885 0.4788521230220795 0
vn 0.7399400472640991 -0.6726728081703186 0
vn 0.7399400472640991 -0.6726728081703186 0
vn 0.7399400472640991 -0.6726728081703186 0
vn 0.7399400472640991 -0.6726728081703186 0
vn 1 0 0
vn 1 0 0
vn 1 0 0
vn 1 0 0
vn 0.8778955936431885 0.4788521230220795 0
vn 0.8778955936431885 0.4788521230220795 0
vn 0.8778955936431885 0.4788521230220795 0
vn 0.8778955936431885 0.4788521230220795 0
vn 0 -1 0
vn 0 -1 0
vn 0 -1 0
vn 0 -1 0
vn 0 -0.6378860473632813 0.7701307535171509
vn 0 -0.6378860473632813 0.7701307535171509
vn 0 -0.6378860473632813 0.7701307535171509
vn 0 -0.6378860473632813 0.7701307535171509
vn 0 0 1
vn 0 0 1
vn 0 0 1
vn 0 0 1
vn 0 1.110223024625157e-16 1
vn 0 1.110223024625157e-16 1
vn 0 2.220446049250313e-16 1
vn 0 2.220446049250313e-16 1
vn 0 0.8944271802902222 0.4472135901451111
vn 0 0.8944271802902222 0.4472135901451111
vn 0 0.8944271802902222 0.4472135901451111
vn 0 0.8944271802902222 0.4472135901451111
vn 0 0.8944271802902222 0.4472135901451111
vn 0 0.8944271802902222 0.4472135901451111
vn 0 0.8944271802902222 0.4472135901451111
vn 0 0.8944271802902222 0.4472135901451111
vn 0 -0.6378860473632813 -0.7701307535171509
vn 0 -0.6378860473632813 -0.7701307535171509
vn 0 -0.6378860473632813 -0.7701307535171509
vn 0 -0.6378860473632813 -0.7701307535171509
vn 0 0.4450413584709168 -0.8955100178718567
vn 0 0.4450413584709168 -0.8955100178718567
vn 0 0.4450413584709168 -0.8955100178718567
vn 0 0.4450413584709168 -0.8955100178718567
vn 0 0 -1
vn 0 0 -1
vn 0 0 -1
vn 0 0 -1
f 60/102/102 48/104/104 47/103/103 59/101/101
f 47/106/106 48/108/108 46/107/107 45/105/105
f 60/110/110 59/112/112 57/111/111 58/109/109
f 59/114/114 47/116/116 45/115/115 57/113/113
f 63/118/118 51/120/120 49/119/119 61/117/117
f 61/122/122 49/124/124 50/123/123 62/121/121
f 63/126/126 61/128/128 62/127/127 64/125/125
f 51/130/130 63/132/132 64/131/131 52/129/129
f 49/134/134 51/136/136 52/135/135 50/133/133
f 48/138/138 60/140/140 58/139/139 46/137/137
f 44/142/142 42/141/141 50/146/146
f 42/141/141 66/143/143 62/145/145 50/146/146
f 52/148/148 64/147/147 68/144/144 44/142/142
f 50/146/146 52/148/148 44/142/142
f 68/144/144 62/145/145 66/143/143
f 62/145/145 68/144/144 64/147/147
f 41/150/150 37/152/152 39/151/151 43/149/149
f 37/154/154 38/156/156 40/155/155 39/153/153
f 38/158/158 42/160/160 44/159/159 40/157/157
f 67/162/162 71/164/164 69/163/163 65/161/161
f 71/166/166 72/168/168 70/167/167 69/165/165
f 72/170/170 68/172/172 66/171/171 70/169/169
f 41/174/174 43/173/173 67/175/175 65/176/176
f 65/178/178 69/180/180 37/179/179 41/177/177
f 45/186/186 37/181/181 69/182/182 57/187/187
f 46/185/185 37/181/181 45/186/186
f 58/188/188 57/187/187 69/182/182
f 38/183/183 46/185/185 58/188/188 70/184/184
f 37/181/181 46/185/185 38/183/183
f 69/182/182 70/184/184 58/188/188
f 70/190/190 53/193/193 38/189/189
f 42/191/191 38/189/189 53/193/193
f 66/192/192 55/194/194 70/190/190
f 53/193/193 70/190/190 55/194/194
f 56/196/196 42/191/191 54/195/195
f 53/193/193 54/195/195 42/191/191
f 55/194/194 66/192/192 56/196/196
f 42/191/191 56/196/196 66/192/192
f 43/198/198 39/200/200 71/199/199 67/197/197
f 40/202/202 44/204/204 68/203/203 72/201/201
f 39/206/206 40/208/208 72/207/207 71/205/205
