# Blender v2.77 (sub 0) OBJ File: 'RoofLamp.blend'
# www.blender.org
mtllib RoofLamp.mtl
o Cone_Cone.001
v -0.476314 0.000000 0.825000
v -0.122781 0.000000 0.696325
v -0.476314 -0.173550 0.275000
v 0.065330 0.000000 0.370507
v 0.000000 0.000000 0.000000
v -0.288203 -0.000000 -0.241831
v -0.664425 -0.000000 -0.241831
v -0.952628 0.000000 0.000000
v -1.017958 0.000000 0.370507
v -0.829847 0.000000 0.696324
vn 0.1089 -0.9480 0.2991
vn 0.2757 -0.9480 0.1592
vn 0.3135 -0.9480 -0.0553
vn 0.2046 -0.9480 -0.2439
vn -0.0000 -0.9480 -0.3183
vn -0.2046 -0.9480 -0.2439
vn -0.3135 -0.9480 -0.0553
vn -0.2757 -0.9480 0.1592
vn -0.1089 -0.9480 0.2991
vn -0.0000 1.0000 -0.0000
usemtl Rooflamp
s off
f 1//1 3//1 2//1
f 2//2 3//2 4//2
f 4//3 3//3 5//3
f 5//4 3//4 6//4
f 6//5 3//5 7//5
f 7//6 3//6 8//6
f 8//7 3//7 9//7
f 9//8 3//8 10//8
f 10//9 3//9 1//9
f 1//10 2//10 4//10 5//10 6//10 7//10 8//10 9//10 10//10
