# 3ds Max Wavefront OBJ Exporter v0.97b - (c)2007 guruware
# File Created: 13.05.2016 16:07:05

mtllib SofaLeather.mtl

#
# object SofaLeather
#

v  -41.8812 15.0000 -53.0586
v  -41.8812 0.0000 -53.0586
v  -41.8812 0.0000 -66.0586
v  -41.8812 15.0000 -66.0586
v  -45.8812 15.0000 -53.0586
v  -45.8812 0.0000 -53.0586
v  -45.8812 15.0000 -66.0586
v  -45.8812 0.0000 -66.0586
v  38.9628 15.0000 -53.0586
v  34.9628 15.0000 -53.0586
v  34.9628 0.0000 -53.0586
v  38.9628 0.0000 -53.0586
v  34.9628 15.0000 -66.0586
v  34.9628 0.0000 -66.0586
v  -41.8640 15.0000 101.3994
v  -41.8640 0.0000 101.3994
v  -41.8640 0.0000 88.3994
v  -41.8640 15.0000 88.3994
v  -45.8640 15.0000 101.3994
v  -45.8640 0.0000 101.3994
v  -45.8640 15.0000 88.3994
v  -45.8640 0.0000 88.3994
v  38.9628 15.0000 101.3998
v  34.9628 15.0000 101.3709
v  34.9628 0.0000 101.3709
v  38.9628 0.0000 101.3709
v  34.9628 15.0000 88.3709
v  34.9628 0.0000 88.3709
v  38.9628 15.0000 88.3709
v  38.9628 0.0000 88.3709
v  -46.0372 15.0000 -66.0586
v  38.9628 0.0000 -66.0586
v  38.9628 15.0000 -66.0586
v  38.9628 70.0000 101.4287
v  -46.0372 70.0000 101.4287
v  -46.0372 15.0000 101.4287
v  -46.0372 70.0000 88.5377
v  -46.0372 38.0000 88.5377
v  -46.0372 38.0000 -51.9497
v  -46.0372 70.0000 -51.9497
v  -46.0372 70.0000 -66.0586
v  38.9628 70.0000 -66.0586
v  21.9628 70.0000 -51.9497
v  21.9628 70.0000 88.5377
v  14.2439 38.0000 88.5377
v  14.2439 38.0000 -51.9497
# 46 vertices

vn 1.0000 0.0000 0.0000
vn -0.0000 0.0000 1.0000
vn -1.0000 0.0000 -0.0000
vn -0.0000 0.0000 -1.0000
vn -0.0036 -0.0010 1.0000
vn 0.0000 0.0000 -1.0000
vn 0.0002 -0.0003 1.0000
vn -1.0000 -0.0000 -0.0000
vn 0.0000 1.0000 -0.0000
vn -0.0000 -0.0000 1.0000
vn -0.9721 0.2345 -0.0000
vn 1.0000 -0.0000 -0.0000
# 12 vertex normals

vt 0.0000 0.0000 0.0000
vt 0.5000 0.5000 0.0000
# 2 texture coords

g SofaLeather
usemtl Handles
s off
f 1/1/1 2/1/1 3/1/1 4/1/1 
f 1/1/2 5/1/2 6/1/2 2/1/2 
f 6/1/3 5/1/3 7/1/3 8/1/3 
f 9/1/2 10/1/2 11/1/2 12/1/2 
f 11/1/3 10/1/3 13/1/3 14/1/3 
f 15/1/1 16/1/1 17/1/1 18/1/1 
f 15/1/2 19/1/2 20/1/2 16/1/2 
f 20/1/3 19/1/3 21/1/3 22/1/3 
f 21/1/4 18/1/4 17/1/4 22/1/4 
f 23/1/5 24/1/5 25/1/5 26/1/5 
f 25/1/3 24/1/3 27/1/3 28/1/3 
f 27/1/6 29/1/6 30/1/6 28/1/6 
f 3/1/6 8/1/6 31/2/6 4/1/6 
f 32/1/6 14/1/6 13/1/6 33/1/6 
f 12/1/1 32/1/1 33/1/1 9/1/1 
f 26/1/1 30/1/1 29/1/1 23/1/1 
usemtl BrownCloth
f 34/1/7 35/1/7 36/1/7 23/1/7 
f 31/1/8 36/1/8 35/1/8 37/1/8 38/1/8 39/1/8 40/1/8 41/1/8 
f 34/1/9 42/1/9 41/1/9 40/1/9 43/1/9 44/1/9 37/1/9 35/1/9 
f 39/1/9 38/1/9 45/1/9 46/1/9 
f 37/1/4 44/1/4 45/1/4 38/1/4 
f 43/1/10 40/1/10 39/1/10 46/1/10 
f 45/1/11 44/1/11 43/1/11 46/1/11 
f 33/1/6 31/1/6 41/1/6 42/1/6 
f 23/1/12 33/1/12 42/1/12 34/1/12 
# 25 polygons

