# Rhino

mtllib Trashbin.mtl
g Trashbin__Body
o object_1
usemtl GreyMatte
v -15 40 15
v -15 40 -15
v -14 40 14
v -14 40 -14
v -10 0 10
v -10 0 -10
v -9 1 9
v -9 1 -9
v 9 1 9
v 9 1 -9
v 10 0 10
v 10 0 -10
v 14 40 14
v 14 40 -14
v 15 40 15
v 15 40 -15
vt 0 0
vt 0 1
vt 1 0
vt 1 1
vt 0 0
vt 0 1
vt 1 0
vt 1 1
vt 0.03333333507180214 0.9666666388511658
vt 0.9666666388511658 0.9666666388511658
vt 0.03333333507180214 0.03333333507180214
vt 0.9666666388511658 0.03333333507180214
vt 0 0
vt 0 1
vt 1 0
vt 1 1
vt 0 0
vt 0 1
vt 1 0
vt 1 1
vt 0 0
vt 0 1
vt 1 0
vt 1 1
vt 0 0
vt 0 1
vt 1 0
vt 1 1
vt 0 0
vt 0 1
vt 1 0
vt 1 1
vt 0 0
vt 0 1
vt 1 0
vt 1 1
vt 0 0
vt 0 1
vt 1 0
vt 1 1
vt 0 0
vt 0 1
vt 1 0
vt 1 1
vt 0 0
vt 0 1
vt 1 0
vt 1 1
vn 0 1 0
vn 0 1 0
vn 0 1 0
vn 0 1 0
vn 0 1 0
vn 0 1 0
vn 0 1 0
vn 0 1 0
vn 0 1 0
vn 0 1 0
vn 0 1 0
vn 0 1 0
vn 0.9922778606414795 -0.1240347325801849 0
vn 0.9922778606414795 -0.1240347325801849 0
vn 0.9922778606414795 -0.1240347325801849 0
vn 0.9922778606414795 -0.1240347325801849 0
vn 0 -0.1240347325801849 -0.9922778606414795
vn 0 -0.1240347325801849 -0.9922778606414795
vn 0 -0.1240347325801849 -0.9922778606414795
vn 0 -0.1240347325801849 -0.9922778606414795
vn -0.9922778606414795 -0.1240347325801849 0
vn -0.9922778606414795 -0.1240347325801849 0
vn -0.9922778606414795 -0.1240347325801849 0
vn -0.9922778606414795 -0.1240347325801849 0
vn 0 -0.1240347325801849 0.9922778606414795
vn 0 -0.1240347325801849 0.9922778606414795
vn 0 -0.1240347325801849 0.9922778606414795
vn 0 -0.1240347325801849 0.9922778606414795
vn 0 -1 0
vn 0 -1 0
vn 0 -1 0
vn 0 -1 0
vn 0 0.1271643191576004 -0.9918816685676575
vn 0 0.1271643191576004 -0.9918816685676575
vn 2.123761870532665e-16 0.1271643191576004 -0.9918816685676575
vn 2.123761870532665e-16 0.1271643191576004 -0.9918816685676575
vn 0.9918816685676575 0.1271643191576004 -2.202419732294864e-16
vn 0.9918816685676575 0.1271643191576004 -2.202419732294864e-16
vn 0.9918816685676575 0.1271643191576004 1.415841247021777e-16
vn 0.9918816685676575 0.1271643191576004 1.415841247021777e-16
vn 0 0.1271643191576004 0.9918816685676575
vn 0 0.1271643191576004 0.9918816685676575
vn 2.831682494043553e-16 0.1271643191576004 0.9918816685676575
vn 2.831682494043553e-16 0.1271643191576004 0.9918816685676575
vn -0.9918816685676575 0.1271643191576004 0
vn -0.9918816685676575 0.1271643191576004 0
vn -0.9918816685676575 0.1271643191576004 1.415841247021777e-16
vn -0.9918816685676575 0.1271643191576004 1.415841247021777e-16
f 8/2/2 7/1/1 9/3/3 10/4/4
f 1/6/6 4/11/11 2/5/5
f 14/12/12 2/5/5 4/11/11
f 3/9/9 1/6/6 15/8/8 13/10/10
f 4/11/11 1/6/6 3/9/9
f 13/10/10 16/7/7 14/12/12
f 2/5/5 14/12/12 16/7/7
f 16/7/7 13/10/10 15/8/8
f 11/14/14 12/13/13 16/15/15 15/16/16
f 12/18/18 6/17/17 2/19/19 16/20/20
f 6/22/22 5/21/21 1/23/23 2/24/24
f 5/26/26 11/25/25 15/27/27 1/28/28
f 6/30/30 12/32/32 11/31/31 5/29/29
f 7/34/34 3/36/36 13/35/35 9/33/33
f 8/38/38 4/40/40 3/39/39 7/37/37
f 10/42/42 14/44/44 4/43/43 8/41/41
f 9/46/46 13/48/48 14/47/47 10/45/45
